%TF.GenerationSoftware,KiCad,Pcbnew,7.0.8*%
%TF.CreationDate,2024-03-13T15:39:52-04:00*%
%TF.ProjectId,Amplifier,416d706c-6966-4696-9572-2e6b69636164,rev?*%
%TF.SameCoordinates,Original*%
%TF.FileFunction,Legend,Top*%
%TF.FilePolarity,Positive*%
%FSLAX46Y46*%
G04 Gerber Fmt 4.6, Leading zero omitted, Abs format (unit mm)*
G04 Created by KiCad (PCBNEW 7.0.8) date 2024-03-13 15:39:52*
%MOMM*%
%LPD*%
G01*
G04 APERTURE LIST*
%ADD10C,0.127000*%
%ADD11C,0.300000*%
%ADD12C,0.120000*%
%ADD13C,0.152400*%
G04 APERTURE END LIST*
D10*
%TO.C,REF\u002A\u002A*%
X44365001Y-46638000D02*
X44365001Y-47738000D01*
X40565001Y-46638000D02*
X40565001Y-47738000D01*
X44365001Y-49338000D02*
X44365001Y-50438000D01*
X40565001Y-49338000D02*
X40565001Y-50438000D01*
D11*
X45833001Y-48465000D02*
G75*
G03*
X45833001Y-48465000I-100000J0D01*
G01*
D12*
X49470000Y-49590000D02*
X49470000Y-48260000D01*
X50800000Y-49590000D02*
X49470000Y-49590000D01*
X52070000Y-49590000D02*
X54670000Y-49590000D01*
X52070000Y-49590000D02*
X52070000Y-46930000D01*
X54670000Y-49590000D02*
X54670000Y-46930000D01*
X52070000Y-46930000D02*
X54670000Y-46930000D01*
X67201252Y-44890000D02*
X64878748Y-44890000D01*
X67201252Y-41470000D02*
X64878748Y-41470000D01*
D10*
X72140000Y-50411250D02*
X72140000Y-49311250D01*
X75940000Y-50411250D02*
X75940000Y-49311250D01*
X72140000Y-47711250D02*
X72140000Y-46611250D01*
X75940000Y-47711250D02*
X75940000Y-46611250D01*
D11*
X70872000Y-48584250D02*
G75*
G03*
X70872000Y-48584250I-100000J0D01*
G01*
D13*
X58361001Y-47726001D02*
X59011000Y-47726001D01*
X58361001Y-50026001D02*
X58535999Y-50026001D01*
X60336001Y-47726001D02*
X60510999Y-47726001D01*
X60336001Y-50026001D02*
X60510999Y-50026001D01*
D12*
X62678000Y-49590000D02*
X62678000Y-48260000D01*
X64008000Y-49590000D02*
X62678000Y-49590000D01*
X65278000Y-49590000D02*
X67878000Y-49590000D01*
X65278000Y-49590000D02*
X65278000Y-46930000D01*
X67878000Y-49590000D02*
X67878000Y-46930000D01*
X65278000Y-46930000D02*
X67878000Y-46930000D01*
%TD*%
M02*
