%TF.GenerationSoftware,KiCad,Pcbnew,7.0.8*%
%TF.CreationDate,2024-03-13T15:39:51-04:00*%
%TF.ProjectId,Amplifier,416d706c-6966-4696-9572-2e6b69636164,rev?*%
%TF.SameCoordinates,Original*%
%TF.FileFunction,Copper,L1,Top*%
%TF.FilePolarity,Positive*%
%FSLAX46Y46*%
G04 Gerber Fmt 4.6, Leading zero omitted, Abs format (unit mm)*
G04 Created by KiCad (PCBNEW 7.0.8) date 2024-03-13 15:39:51*
%MOMM*%
%LPD*%
G01*
G04 APERTURE LIST*
G04 Aperture macros list*
%AMRoundRect*
0 Rectangle with rounded corners*
0 $1 Rounding radius*
0 $2 $3 $4 $5 $6 $7 $8 $9 X,Y pos of 4 corners*
0 Add a 4 corners polygon primitive as box body*
4,1,4,$2,$3,$4,$5,$6,$7,$8,$9,$2,$3,0*
0 Add four circle primitives for the rounded corners*
1,1,$1+$1,$2,$3*
1,1,$1+$1,$4,$5*
1,1,$1+$1,$6,$7*
1,1,$1+$1,$8,$9*
0 Add four rect primitives between the rounded corners*
20,1,$1+$1,$2,$3,$4,$5,0*
20,1,$1+$1,$4,$5,$6,$7,0*
20,1,$1+$1,$6,$7,$8,$9,0*
20,1,$1+$1,$8,$9,$2,$3,0*%
G04 Aperture macros list end*
%ADD10C,0.300000*%
%TA.AperFunction,NonConductor*%
%ADD11C,0.300000*%
%TD*%
%TA.AperFunction,NonConductor*%
%ADD12C,0.200000*%
%TD*%
%TA.AperFunction,ComponentPad*%
%ADD13R,1.700000X1.700000*%
%TD*%
%TA.AperFunction,SMDPad,CuDef*%
%ADD14R,4.560000X0.850000*%
%TD*%
%TA.AperFunction,SMDPad,CuDef*%
%ADD15R,4.560000X1.000000*%
%TD*%
%TA.AperFunction,ComponentPad*%
%ADD16O,1.700000X1.700000*%
%TD*%
%TA.AperFunction,SMDPad,CuDef*%
%ADD17RoundRect,0.249999X0.450001X1.450001X-0.450001X1.450001X-0.450001X-1.450001X0.450001X-1.450001X0*%
%TD*%
%TA.AperFunction,SMDPad,CuDef*%
%ADD18R,0.499999X0.249999*%
%TD*%
%TA.AperFunction,SMDPad,CuDef*%
%ADD19R,0.900001X1.599999*%
%TD*%
%TA.AperFunction,ComponentPad*%
%ADD20C,0.499999*%
%TD*%
%TA.AperFunction,Conductor*%
%ADD21C,0.762000*%
%TD*%
%TA.AperFunction,Conductor*%
%ADD22C,0.500000*%
%TD*%
%TA.AperFunction,Conductor*%
%ADD23C,0.250000*%
%TD*%
G04 APERTURE END LIST*
D10*
D11*
X41448510Y-37646828D02*
X41448510Y-36146828D01*
X41448510Y-36146828D02*
X42019939Y-36146828D01*
X42019939Y-36146828D02*
X42162796Y-36218257D01*
X42162796Y-36218257D02*
X42234225Y-36289685D01*
X42234225Y-36289685D02*
X42305653Y-36432542D01*
X42305653Y-36432542D02*
X42305653Y-36646828D01*
X42305653Y-36646828D02*
X42234225Y-36789685D01*
X42234225Y-36789685D02*
X42162796Y-36861114D01*
X42162796Y-36861114D02*
X42019939Y-36932542D01*
X42019939Y-36932542D02*
X41448510Y-36932542D01*
X42948510Y-37646828D02*
X42948510Y-36646828D01*
X42948510Y-36146828D02*
X42877082Y-36218257D01*
X42877082Y-36218257D02*
X42948510Y-36289685D01*
X42948510Y-36289685D02*
X43019939Y-36218257D01*
X43019939Y-36218257D02*
X42948510Y-36146828D01*
X42948510Y-36146828D02*
X42948510Y-36289685D01*
X43662796Y-36646828D02*
X43662796Y-37646828D01*
X43662796Y-36789685D02*
X43734225Y-36718257D01*
X43734225Y-36718257D02*
X43877082Y-36646828D01*
X43877082Y-36646828D02*
X44091368Y-36646828D01*
X44091368Y-36646828D02*
X44234225Y-36718257D01*
X44234225Y-36718257D02*
X44305654Y-36861114D01*
X44305654Y-36861114D02*
X44305654Y-37646828D01*
X46948511Y-37646828D02*
X46091368Y-37646828D01*
X46519939Y-37646828D02*
X46519939Y-36146828D01*
X46519939Y-36146828D02*
X46377082Y-36361114D01*
X46377082Y-36361114D02*
X46234225Y-36503971D01*
X46234225Y-36503971D02*
X46091368Y-36575400D01*
X49377082Y-36646828D02*
X49377082Y-37646828D01*
X48734224Y-36646828D02*
X48734224Y-37432542D01*
X48734224Y-37432542D02*
X48805653Y-37575400D01*
X48805653Y-37575400D02*
X48948510Y-37646828D01*
X48948510Y-37646828D02*
X49162796Y-37646828D01*
X49162796Y-37646828D02*
X49305653Y-37575400D01*
X49305653Y-37575400D02*
X49377082Y-37503971D01*
X50091367Y-36646828D02*
X50091367Y-38146828D01*
X50091367Y-36718257D02*
X50234225Y-36646828D01*
X50234225Y-36646828D02*
X50519939Y-36646828D01*
X50519939Y-36646828D02*
X50662796Y-36718257D01*
X50662796Y-36718257D02*
X50734225Y-36789685D01*
X50734225Y-36789685D02*
X50805653Y-36932542D01*
X50805653Y-36932542D02*
X50805653Y-37361114D01*
X50805653Y-37361114D02*
X50734225Y-37503971D01*
X50734225Y-37503971D02*
X50662796Y-37575400D01*
X50662796Y-37575400D02*
X50519939Y-37646828D01*
X50519939Y-37646828D02*
X50234225Y-37646828D01*
X50234225Y-37646828D02*
X50091367Y-37575400D01*
X52591367Y-37646828D02*
X52591367Y-36146828D01*
X53234225Y-37646828D02*
X53234225Y-36861114D01*
X53234225Y-36861114D02*
X53162796Y-36718257D01*
X53162796Y-36718257D02*
X53019939Y-36646828D01*
X53019939Y-36646828D02*
X52805653Y-36646828D01*
X52805653Y-36646828D02*
X52662796Y-36718257D01*
X52662796Y-36718257D02*
X52591367Y-36789685D01*
X54519939Y-37575400D02*
X54377082Y-37646828D01*
X54377082Y-37646828D02*
X54091368Y-37646828D01*
X54091368Y-37646828D02*
X53948510Y-37575400D01*
X53948510Y-37575400D02*
X53877082Y-37432542D01*
X53877082Y-37432542D02*
X53877082Y-36861114D01*
X53877082Y-36861114D02*
X53948510Y-36718257D01*
X53948510Y-36718257D02*
X54091368Y-36646828D01*
X54091368Y-36646828D02*
X54377082Y-36646828D01*
X54377082Y-36646828D02*
X54519939Y-36718257D01*
X54519939Y-36718257D02*
X54591368Y-36861114D01*
X54591368Y-36861114D02*
X54591368Y-37003971D01*
X54591368Y-37003971D02*
X53877082Y-37146828D01*
X55234224Y-37646828D02*
X55234224Y-36646828D01*
X55234224Y-36932542D02*
X55305653Y-36789685D01*
X55305653Y-36789685D02*
X55377082Y-36718257D01*
X55377082Y-36718257D02*
X55519939Y-36646828D01*
X55519939Y-36646828D02*
X55662796Y-36646828D01*
X56734224Y-37575400D02*
X56591367Y-37646828D01*
X56591367Y-37646828D02*
X56305653Y-37646828D01*
X56305653Y-37646828D02*
X56162795Y-37575400D01*
X56162795Y-37575400D02*
X56091367Y-37432542D01*
X56091367Y-37432542D02*
X56091367Y-36861114D01*
X56091367Y-36861114D02*
X56162795Y-36718257D01*
X56162795Y-36718257D02*
X56305653Y-36646828D01*
X56305653Y-36646828D02*
X56591367Y-36646828D01*
X56591367Y-36646828D02*
X56734224Y-36718257D01*
X56734224Y-36718257D02*
X56805653Y-36861114D01*
X56805653Y-36861114D02*
X56805653Y-37003971D01*
X56805653Y-37003971D02*
X56091367Y-37146828D01*
D10*
D11*
X70952225Y-39956828D02*
X71452225Y-41456828D01*
X71452225Y-41456828D02*
X71952225Y-39956828D01*
X73309367Y-41313971D02*
X73237939Y-41385400D01*
X73237939Y-41385400D02*
X73023653Y-41456828D01*
X73023653Y-41456828D02*
X72880796Y-41456828D01*
X72880796Y-41456828D02*
X72666510Y-41385400D01*
X72666510Y-41385400D02*
X72523653Y-41242542D01*
X72523653Y-41242542D02*
X72452224Y-41099685D01*
X72452224Y-41099685D02*
X72380796Y-40813971D01*
X72380796Y-40813971D02*
X72380796Y-40599685D01*
X72380796Y-40599685D02*
X72452224Y-40313971D01*
X72452224Y-40313971D02*
X72523653Y-40171114D01*
X72523653Y-40171114D02*
X72666510Y-40028257D01*
X72666510Y-40028257D02*
X72880796Y-39956828D01*
X72880796Y-39956828D02*
X73023653Y-39956828D01*
X73023653Y-39956828D02*
X73237939Y-40028257D01*
X73237939Y-40028257D02*
X73309367Y-40099685D01*
X74809367Y-41313971D02*
X74737939Y-41385400D01*
X74737939Y-41385400D02*
X74523653Y-41456828D01*
X74523653Y-41456828D02*
X74380796Y-41456828D01*
X74380796Y-41456828D02*
X74166510Y-41385400D01*
X74166510Y-41385400D02*
X74023653Y-41242542D01*
X74023653Y-41242542D02*
X73952224Y-41099685D01*
X73952224Y-41099685D02*
X73880796Y-40813971D01*
X73880796Y-40813971D02*
X73880796Y-40599685D01*
X73880796Y-40599685D02*
X73952224Y-40313971D01*
X73952224Y-40313971D02*
X74023653Y-40171114D01*
X74023653Y-40171114D02*
X74166510Y-40028257D01*
X74166510Y-40028257D02*
X74380796Y-39956828D01*
X74380796Y-39956828D02*
X74523653Y-39956828D01*
X74523653Y-39956828D02*
X74737939Y-40028257D01*
X74737939Y-40028257D02*
X74809367Y-40099685D01*
D10*
D11*
X50632225Y-44274828D02*
X51132225Y-45774828D01*
X51132225Y-45774828D02*
X51632225Y-44274828D01*
X52989367Y-45631971D02*
X52917939Y-45703400D01*
X52917939Y-45703400D02*
X52703653Y-45774828D01*
X52703653Y-45774828D02*
X52560796Y-45774828D01*
X52560796Y-45774828D02*
X52346510Y-45703400D01*
X52346510Y-45703400D02*
X52203653Y-45560542D01*
X52203653Y-45560542D02*
X52132224Y-45417685D01*
X52132224Y-45417685D02*
X52060796Y-45131971D01*
X52060796Y-45131971D02*
X52060796Y-44917685D01*
X52060796Y-44917685D02*
X52132224Y-44631971D01*
X52132224Y-44631971D02*
X52203653Y-44489114D01*
X52203653Y-44489114D02*
X52346510Y-44346257D01*
X52346510Y-44346257D02*
X52560796Y-44274828D01*
X52560796Y-44274828D02*
X52703653Y-44274828D01*
X52703653Y-44274828D02*
X52917939Y-44346257D01*
X52917939Y-44346257D02*
X52989367Y-44417685D01*
X54489367Y-45631971D02*
X54417939Y-45703400D01*
X54417939Y-45703400D02*
X54203653Y-45774828D01*
X54203653Y-45774828D02*
X54060796Y-45774828D01*
X54060796Y-45774828D02*
X53846510Y-45703400D01*
X53846510Y-45703400D02*
X53703653Y-45560542D01*
X53703653Y-45560542D02*
X53632224Y-45417685D01*
X53632224Y-45417685D02*
X53560796Y-45131971D01*
X53560796Y-45131971D02*
X53560796Y-44917685D01*
X53560796Y-44917685D02*
X53632224Y-44631971D01*
X53632224Y-44631971D02*
X53703653Y-44489114D01*
X53703653Y-44489114D02*
X53846510Y-44346257D01*
X53846510Y-44346257D02*
X54060796Y-44274828D01*
X54060796Y-44274828D02*
X54203653Y-44274828D01*
X54203653Y-44274828D02*
X54417939Y-44346257D01*
X54417939Y-44346257D02*
X54489367Y-44417685D01*
D12*
X40640000Y-35560000D02*
X75946000Y-35560000D01*
X75946000Y-55880000D01*
X40640000Y-55880000D01*
X40640000Y-35560000D01*
D10*
D11*
X41123082Y-39250257D02*
X41837368Y-39250257D01*
X40980225Y-39678828D02*
X41480225Y-38178828D01*
X41480225Y-38178828D02*
X41980225Y-39678828D01*
X42480224Y-39678828D02*
X42480224Y-38678828D01*
X42480224Y-38821685D02*
X42551653Y-38750257D01*
X42551653Y-38750257D02*
X42694510Y-38678828D01*
X42694510Y-38678828D02*
X42908796Y-38678828D01*
X42908796Y-38678828D02*
X43051653Y-38750257D01*
X43051653Y-38750257D02*
X43123082Y-38893114D01*
X43123082Y-38893114D02*
X43123082Y-39678828D01*
X43123082Y-38893114D02*
X43194510Y-38750257D01*
X43194510Y-38750257D02*
X43337367Y-38678828D01*
X43337367Y-38678828D02*
X43551653Y-38678828D01*
X43551653Y-38678828D02*
X43694510Y-38750257D01*
X43694510Y-38750257D02*
X43765939Y-38893114D01*
X43765939Y-38893114D02*
X43765939Y-39678828D01*
X44480224Y-38678828D02*
X44480224Y-40178828D01*
X44480224Y-38750257D02*
X44623082Y-38678828D01*
X44623082Y-38678828D02*
X44908796Y-38678828D01*
X44908796Y-38678828D02*
X45051653Y-38750257D01*
X45051653Y-38750257D02*
X45123082Y-38821685D01*
X45123082Y-38821685D02*
X45194510Y-38964542D01*
X45194510Y-38964542D02*
X45194510Y-39393114D01*
X45194510Y-39393114D02*
X45123082Y-39535971D01*
X45123082Y-39535971D02*
X45051653Y-39607400D01*
X45051653Y-39607400D02*
X44908796Y-39678828D01*
X44908796Y-39678828D02*
X44623082Y-39678828D01*
X44623082Y-39678828D02*
X44480224Y-39607400D01*
X46051653Y-39678828D02*
X45908796Y-39607400D01*
X45908796Y-39607400D02*
X45837367Y-39464542D01*
X45837367Y-39464542D02*
X45837367Y-38178828D01*
X46623081Y-39678828D02*
X46623081Y-38678828D01*
X46623081Y-38178828D02*
X46551653Y-38250257D01*
X46551653Y-38250257D02*
X46623081Y-38321685D01*
X46623081Y-38321685D02*
X46694510Y-38250257D01*
X46694510Y-38250257D02*
X46623081Y-38178828D01*
X46623081Y-38178828D02*
X46623081Y-38321685D01*
X47123082Y-38678828D02*
X47694510Y-38678828D01*
X47337367Y-39678828D02*
X47337367Y-38393114D01*
X47337367Y-38393114D02*
X47408796Y-38250257D01*
X47408796Y-38250257D02*
X47551653Y-38178828D01*
X47551653Y-38178828D02*
X47694510Y-38178828D01*
X48194510Y-39678828D02*
X48194510Y-38678828D01*
X48194510Y-38178828D02*
X48123082Y-38250257D01*
X48123082Y-38250257D02*
X48194510Y-38321685D01*
X48194510Y-38321685D02*
X48265939Y-38250257D01*
X48265939Y-38250257D02*
X48194510Y-38178828D01*
X48194510Y-38178828D02*
X48194510Y-38321685D01*
X49480225Y-39607400D02*
X49337368Y-39678828D01*
X49337368Y-39678828D02*
X49051654Y-39678828D01*
X49051654Y-39678828D02*
X48908796Y-39607400D01*
X48908796Y-39607400D02*
X48837368Y-39464542D01*
X48837368Y-39464542D02*
X48837368Y-38893114D01*
X48837368Y-38893114D02*
X48908796Y-38750257D01*
X48908796Y-38750257D02*
X49051654Y-38678828D01*
X49051654Y-38678828D02*
X49337368Y-38678828D01*
X49337368Y-38678828D02*
X49480225Y-38750257D01*
X49480225Y-38750257D02*
X49551654Y-38893114D01*
X49551654Y-38893114D02*
X49551654Y-39035971D01*
X49551654Y-39035971D02*
X48837368Y-39178828D01*
X50194510Y-39678828D02*
X50194510Y-38678828D01*
X50194510Y-38964542D02*
X50265939Y-38821685D01*
X50265939Y-38821685D02*
X50337368Y-38750257D01*
X50337368Y-38750257D02*
X50480225Y-38678828D01*
X50480225Y-38678828D02*
X50623082Y-38678828D01*
D13*
%TO.P,,1*%
%TO.N,N/C*%
X53340000Y-50800000D03*
%TD*%
%TO.P,,1*%
%TO.N,N/C*%
X60960000Y-50800000D03*
%TD*%
%TO.P,,1*%
%TO.N,N/C*%
X71120000Y-43180000D03*
%TD*%
%TO.P,,1*%
%TO.N,N/C*%
X55880000Y-45720000D03*
%TD*%
D14*
%TO.P,REF\u002A\u002A,1*%
%TO.N,N/C*%
X42845001Y-48538000D03*
D15*
%TO.P,REF\u002A\u002A,SH1*%
X42845001Y-45768000D03*
%TO.P,REF\u002A\u002A,SH2*%
X42845001Y-51308000D03*
%TD*%
D13*
%TO.P,,1*%
%TO.N,N/C*%
X60960000Y-45720000D03*
%TD*%
%TO.P,REF\u002A\u002A,1*%
%TO.N,N/C*%
X50800000Y-48260000D03*
D16*
%TO.P,REF\u002A\u002A,2*%
X53340000Y-48260000D03*
%TD*%
D17*
%TO.P,REF\u002A\u002A,1*%
%TO.N,N/C*%
X68090000Y-43180000D03*
%TO.P,REF\u002A\u002A,2*%
X63990000Y-43180000D03*
%TD*%
D14*
%TO.P,REF\u002A\u002A,1*%
%TO.N,N/C*%
X73660000Y-48511250D03*
D15*
%TO.P,REF\u002A\u002A,SH1*%
X73660000Y-51281250D03*
%TO.P,REF\u002A\u002A,SH2*%
X73660000Y-45741250D03*
%TD*%
D18*
%TO.P,REF\u002A\u002A,1*%
%TO.N,N/C*%
X58485999Y-48126000D03*
%TO.P,REF\u002A\u002A,2*%
X58485999Y-48625999D03*
%TO.P,REF\u002A\u002A,3*%
X58485999Y-49126001D03*
%TO.P,REF\u002A\u002A,4*%
X58485999Y-49625999D03*
%TO.P,REF\u002A\u002A,5*%
X60386001Y-49625999D03*
%TO.P,REF\u002A\u002A,6*%
X60386001Y-49126001D03*
%TO.P,REF\u002A\u002A,7*%
X60386001Y-48625999D03*
%TO.P,REF\u002A\u002A,8*%
X60386001Y-48126000D03*
D19*
%TO.P,REF\u002A\u002A,9*%
X59436000Y-48875998D03*
D20*
%TO.P,REF\u002A\u002A,V*%
X59436000Y-48476002D03*
X59436000Y-49276000D03*
%TD*%
D13*
%TO.P,REF\u002A\u002A,1*%
%TO.N,N/C*%
X64008000Y-48260000D03*
D16*
%TO.P,REF\u002A\u002A,2*%
X66548000Y-48260000D03*
%TD*%
D21*
%TO.N,*%
X55514001Y-48260000D02*
X55880000Y-48625999D01*
X53340000Y-48260000D02*
X55514001Y-48260000D01*
X56388000Y-50800000D02*
X57562001Y-49625999D01*
X53340000Y-50800000D02*
X56388000Y-50800000D01*
X52832000Y-51308000D02*
X53340000Y-50800000D01*
X42845001Y-51308000D02*
X52832000Y-51308000D01*
X62484000Y-50800000D02*
X61309999Y-49625999D01*
X62484000Y-50800000D02*
X62965250Y-51281250D01*
X60960000Y-50800000D02*
X62484000Y-50800000D01*
D22*
X59436000Y-50800000D02*
X59436000Y-52832000D01*
X58674000Y-45720000D02*
X58674000Y-44958000D01*
X58674000Y-46228000D02*
X58674000Y-45720000D01*
X59436000Y-46990000D02*
X58674000Y-46228000D01*
D21*
X55880000Y-45720000D02*
X55880000Y-48625999D01*
D23*
X58485999Y-48625999D02*
X55880000Y-48625999D01*
D21*
X68090000Y-43180000D02*
X71120000Y-43180000D01*
X64008000Y-43198000D02*
X63990000Y-43180000D01*
X64008000Y-48260000D02*
X64008000Y-43198000D01*
X60960000Y-45842002D02*
X60386001Y-46416001D01*
X73660000Y-51281250D02*
X62965250Y-51281250D01*
X66799250Y-48511250D02*
X66548000Y-48260000D01*
X73660000Y-48511250D02*
X66799250Y-48511250D01*
X61468000Y-48260000D02*
X61214000Y-48514000D01*
X64008000Y-48260000D02*
X61468000Y-48260000D01*
D23*
X61102001Y-48625999D02*
X61214000Y-48514000D01*
X60386001Y-48625999D02*
X61102001Y-48625999D01*
X57562001Y-49625999D02*
X57531000Y-49657000D01*
X58485999Y-49625999D02*
X57562001Y-49625999D01*
X58061999Y-49126001D02*
X57531000Y-49657000D01*
D21*
X43123001Y-48260000D02*
X42845001Y-48538000D01*
D23*
X60810001Y-49126001D02*
X61309999Y-49625999D01*
X61214000Y-49625999D02*
X61309999Y-49625999D01*
X60386001Y-49625999D02*
X61214000Y-49625999D01*
X58485999Y-48126000D02*
X58032000Y-48126000D01*
D21*
X50800000Y-48260000D02*
X43123001Y-48260000D01*
D23*
X60386001Y-49126001D02*
X60810001Y-49126001D01*
X58485999Y-49126001D02*
X58061999Y-49126001D01*
X60386001Y-48126000D02*
X60386001Y-46416001D01*
D22*
X59436000Y-49276000D02*
X59436000Y-50800000D01*
X59436000Y-48476002D02*
X59436000Y-46990000D01*
D23*
X42933000Y-48625999D02*
X42845001Y-48538000D01*
%TD*%
%TA.AperFunction,NonConductor*%
G36*
X58628539Y-52597685D02*
G01*
X58674294Y-52650489D01*
X58685500Y-52702000D01*
X58685500Y-52875709D01*
X58699063Y-52991749D01*
X58700759Y-53006256D01*
X58700760Y-53006259D01*
X58760762Y-53171115D01*
X58760764Y-53171119D01*
X58857167Y-53317693D01*
X58857168Y-53317694D01*
X58984778Y-53438089D01*
X58984780Y-53438090D01*
X58984782Y-53438092D01*
X59136719Y-53525812D01*
X59304790Y-53576130D01*
X59479935Y-53586331D01*
X59652711Y-53555865D01*
X59813804Y-53486377D01*
X59954530Y-53381610D01*
X60067302Y-53247214D01*
X60146040Y-53090433D01*
X60186500Y-52919721D01*
X60186500Y-52702000D01*
X60206185Y-52634961D01*
X60258989Y-52589206D01*
X60310500Y-52578000D01*
X74806000Y-52578000D01*
X74873039Y-52597685D01*
X74918794Y-52650489D01*
X74930000Y-52702000D01*
X74930000Y-55155500D01*
X74910315Y-55222539D01*
X74857511Y-55268294D01*
X74806000Y-55279500D01*
X42796000Y-55279500D01*
X42728961Y-55259815D01*
X42683206Y-55207011D01*
X42672000Y-55155500D01*
X42672000Y-52702000D01*
X42691685Y-52634961D01*
X42744489Y-52589206D01*
X42796000Y-52578000D01*
X58561500Y-52578000D01*
X58628539Y-52597685D01*
G37*
%TD.AperFunction*%
%TA.AperFunction,NonConductor*%
G36*
X68777039Y-36180185D02*
G01*
X68822794Y-36232989D01*
X68834000Y-36284500D01*
X68834000Y-40516000D01*
X68814315Y-40583039D01*
X68761511Y-40628794D01*
X68710000Y-40640000D01*
X62230000Y-40640000D01*
X62230000Y-44072000D01*
X62210315Y-44139039D01*
X62157511Y-44184794D01*
X62106000Y-44196000D01*
X59436000Y-44196000D01*
X59436000Y-44357651D01*
X59416315Y-44424690D01*
X59363511Y-44470445D01*
X59294353Y-44480389D01*
X59230797Y-44451364D01*
X59226906Y-44447845D01*
X59125221Y-44351910D01*
X58973281Y-44264188D01*
X58973282Y-44264188D01*
X58805210Y-44213870D01*
X58805205Y-44213869D01*
X58630066Y-44203669D01*
X58630065Y-44203669D01*
X58572220Y-44213869D01*
X58457293Y-44234134D01*
X58457291Y-44234134D01*
X58457289Y-44234135D01*
X58457287Y-44234136D01*
X58296198Y-44303622D01*
X58296190Y-44303626D01*
X58155469Y-44408390D01*
X58042698Y-44542785D01*
X58042697Y-44542787D01*
X57963961Y-44699562D01*
X57963960Y-44699567D01*
X57934913Y-44822127D01*
X57923500Y-44870281D01*
X57923500Y-45342000D01*
X57903815Y-45409039D01*
X57851011Y-45454794D01*
X57799500Y-45466000D01*
X57528000Y-45466000D01*
X57460961Y-45446315D01*
X57415206Y-45393511D01*
X57404000Y-45342000D01*
X57404000Y-43434000D01*
X51686000Y-43434000D01*
X51618961Y-43414315D01*
X51573206Y-43361511D01*
X51562000Y-43310000D01*
X51562000Y-38986000D01*
X51581685Y-38918961D01*
X51634489Y-38873206D01*
X51686000Y-38862000D01*
X58420000Y-38862000D01*
X58420000Y-36284500D01*
X58439685Y-36217461D01*
X58492489Y-36171706D01*
X58544000Y-36160500D01*
X68710000Y-36160500D01*
X68777039Y-36180185D01*
G37*
%TD.AperFunction*%
M02*
