%TF.GenerationSoftware,KiCad,Pcbnew,7.0.8*%
%TF.CreationDate,2024-01-25T14:59:16-05:00*%
%TF.ProjectId,1.8V_VoltageReg,312e3856-5f56-46f6-9c74-616765526567,rev?*%
%TF.SameCoordinates,Original*%
%TF.FileFunction,Legend,Top*%
%TF.FilePolarity,Positive*%
%FSLAX46Y46*%
G04 Gerber Fmt 4.6, Leading zero omitted, Abs format (unit mm)*
G04 Created by KiCad (PCBNEW 7.0.8) date 2024-01-25 14:59:16*
%MOMM*%
%LPD*%
G01*
G04 APERTURE LIST*
%ADD10C,0.120000*%
%ADD11C,0.200000*%
G04 APERTURE END LIST*
D10*
%TO.C,REF\u002A\u002A*%
X59115000Y-38100000D02*
X59115000Y-38785000D01*
X59115000Y-37415000D02*
X59115000Y-35540000D01*
X58025507Y-35540000D02*
X57725000Y-35540000D01*
X59115000Y-35540000D02*
X58814493Y-35540000D01*
X59115000Y-38785000D02*
X58420000Y-38785000D01*
X57811724Y-37415000D02*
X57725000Y-37415000D01*
X59115000Y-37415000D02*
X59028276Y-37415000D01*
X57725000Y-37415000D02*
X57725000Y-35540000D01*
X47565000Y-35560000D02*
X47565000Y-34875000D01*
X47565000Y-36245000D02*
X47565000Y-38120000D01*
X48654493Y-38120000D02*
X48955000Y-38120000D01*
X47565000Y-38120000D02*
X47865507Y-38120000D01*
X47565000Y-34875000D02*
X48260000Y-34875000D01*
X48868276Y-36245000D02*
X48955000Y-36245000D01*
X47565000Y-36245000D02*
X47651724Y-36245000D01*
X48955000Y-36245000D02*
X48955000Y-38120000D01*
D11*
X52290000Y-36760000D02*
X52539999Y-36760000D01*
X54140001Y-36760000D02*
X54390000Y-36760000D01*
X54140001Y-34360000D02*
X54390000Y-34360000D01*
X52290000Y-34360000D02*
X53140000Y-34360000D01*
%TD*%
M02*
