%TF.GenerationSoftware,KiCad,Pcbnew,7.0.8*%
%TF.CreationDate,2024-01-26T16:12:31-05:00*%
%TF.ProjectId,LPF-Eval-Board,4c50462d-4576-4616-9c2d-426f6172642e,rev?*%
%TF.SameCoordinates,Original*%
%TF.FileFunction,Profile,NP*%
%FSLAX46Y46*%
G04 Gerber Fmt 4.6, Leading zero omitted, Abs format (unit mm)*
G04 Created by KiCad (PCBNEW 7.0.8) date 2024-01-26 16:12:31*
%MOMM*%
%LPD*%
G01*
G04 APERTURE LIST*
%TA.AperFunction,Profile*%
%ADD10C,0.200000*%
%TD*%
%TA.AperFunction,ComponentPad*%
%ADD11R,1.700000X1.700000*%
%TD*%
%TA.AperFunction,ComponentPad*%
%ADD12O,1.700000X1.700000*%
%TD*%
%TA.AperFunction,SMDPad,CuDef*%
%ADD13R,4.560000X0.850000*%
%TD*%
%TA.AperFunction,SMDPad,CuDef*%
%ADD14R,4.560000X1.000000*%
%TD*%
%TA.AperFunction,SMDPad,CuDef*%
%ADD15R,1.460500X0.533400*%
%TD*%
%TA.AperFunction,Conductor*%
%ADD16C,1.000000*%
%TD*%
%TA.AperFunction,Conductor*%
%ADD17C,0.500000*%
%TD*%
G04 APERTURE END LIST*
D10*
X136906000Y-73152000D02*
X163068000Y-73152000D01*
X163068000Y-91440000D01*
X136906000Y-91440000D01*
X136906000Y-73152000D01*
D11*
%TO.P,REF\u002A\u002A,1*%
%TO.N,N/C*%
X160020000Y-86360000D03*
D12*
%TO.P,REF\u002A\u002A,2*%
X160020000Y-88900000D03*
%TD*%
%TO.P,REF\u002A\u002A,2*%
%TO.N,N/C*%
X139700000Y-88900000D03*
D11*
%TO.P,REF\u002A\u002A,1*%
X139700000Y-86360000D03*
%TD*%
D13*
%TO.P,REF\u002A\u002A,1*%
%TO.N,N/C*%
X160528000Y-78229250D03*
D14*
%TO.P,REF\u002A\u002A,SH1*%
X160528000Y-80999250D03*
%TO.P,REF\u002A\u002A,SH2*%
X160528000Y-75459250D03*
%TD*%
D13*
%TO.P,REF\u002A\u002A,1*%
%TO.N,N/C*%
X139332500Y-78234750D03*
D14*
%TO.P,REF\u002A\u002A,SH1*%
X139332500Y-75464750D03*
%TO.P,REF\u002A\u002A,SH2*%
X139332500Y-81004750D03*
%TD*%
D15*
%TO.P,REF\u002A\u002A,1*%
%TO.N,N/C*%
X147135850Y-78740000D03*
%TO.P,REF\u002A\u002A,2*%
X147135850Y-80010000D03*
%TO.P,REF\u002A\u002A,3*%
X147135850Y-81280000D03*
%TO.P,REF\u002A\u002A,4*%
X147135850Y-82550000D03*
%TO.P,REF\u002A\u002A,5*%
X152584150Y-82550000D03*
%TO.P,REF\u002A\u002A,6*%
X152584150Y-81280000D03*
%TO.P,REF\u002A\u002A,7*%
X152584150Y-80010000D03*
%TO.P,REF\u002A\u002A,8*%
X152584150Y-78740000D03*
%TD*%
D16*
%TO.N,*%
X143483250Y-75464750D02*
X144272000Y-74676000D01*
X139332500Y-75464750D02*
X143483250Y-75464750D01*
X156993250Y-75459250D02*
X156464000Y-74930000D01*
X160528000Y-75459250D02*
X156993250Y-75459250D01*
D17*
X154940000Y-85090000D02*
X154940000Y-83820000D01*
X154940000Y-83820000D02*
X153670000Y-82550000D01*
X158750000Y-88900000D02*
X154940000Y-85090000D01*
X160020000Y-88900000D02*
X158750000Y-88900000D01*
X153670000Y-82550000D02*
X152584150Y-82550000D01*
X160020000Y-86360000D02*
X159004000Y-86360000D01*
X159004000Y-86360000D02*
X153924000Y-81280000D01*
X153924000Y-81280000D02*
X152584150Y-81280000D01*
X155167250Y-80999250D02*
X160528000Y-80999250D01*
X152584150Y-80010000D02*
X154178000Y-80010000D01*
X154178000Y-80010000D02*
X155167250Y-80999250D01*
X155704750Y-78229250D02*
X155194000Y-78740000D01*
X155194000Y-78740000D02*
X152584150Y-78740000D01*
X160528000Y-78229250D02*
X155704750Y-78229250D01*
X145161000Y-83185000D02*
X145161000Y-85725000D01*
X145796000Y-82550000D02*
X145161000Y-83185000D01*
X142240000Y-88646000D02*
X145161000Y-85725000D01*
X147135850Y-82550000D02*
X145796000Y-82550000D01*
X141986000Y-88900000D02*
X142240000Y-88646000D01*
X139700000Y-88900000D02*
X141986000Y-88900000D01*
X142494000Y-84328000D02*
X145542000Y-81280000D01*
X140208000Y-84328000D02*
X142494000Y-84328000D01*
X139700000Y-84836000D02*
X140208000Y-84328000D01*
X145542000Y-81280000D02*
X147135850Y-81280000D01*
X139700000Y-86360000D02*
X139700000Y-84836000D01*
X147135850Y-80010000D02*
X145034000Y-80010000D01*
X147135850Y-78740000D02*
X144780000Y-78740000D01*
X144039250Y-81004750D02*
X139332500Y-81004750D01*
X145034000Y-80010000D02*
X144039250Y-81004750D01*
X144269250Y-78234750D02*
X139332500Y-78234750D01*
X144272000Y-78232000D02*
X144269250Y-78234750D01*
X144780000Y-78740000D02*
X144272000Y-78232000D01*
%TD*%
M02*
