%TF.GenerationSoftware,KiCad,Pcbnew,(7.0.0)*%
%TF.CreationDate,2024-01-24T18:28:00-05:00*%
%TF.ProjectId,LPF-Eval-Board,4c50462d-4576-4616-9c2d-426f6172642e,rev?*%
%TF.SameCoordinates,Original*%
%TF.FileFunction,Drillmap*%
%TF.FilePolarity,Positive*%
%FSLAX45Y45*%
G04 Gerber Fmt 4.5, Leading zero omitted, Abs format (unit mm)*
G04 Created by KiCad (PCBNEW (7.0.0)) date 2024-01-24 18:28:00*
%MOMM*%
%LPD*%
G01*
G04 APERTURE LIST*
%ADD10C,0.200000*%
%ADD11C,0.102000*%
G04 APERTURE END LIST*
D10*
X12954000Y-7112000D02*
X16764000Y-7112000D01*
X16764000Y-7112000D02*
X16764000Y-9144000D01*
X16764000Y-9144000D02*
X12954000Y-9144000D01*
X12954000Y-9144000D02*
X12954000Y-7112000D01*
D11*
X13695000Y-7697000D02*
X13797000Y-7799000D01*
X13797000Y-7697000D02*
X13695000Y-7799000D01*
X13695000Y-7951000D02*
X13797000Y-8053000D01*
X13797000Y-7951000D02*
X13695000Y-8053000D01*
X13695000Y-8205000D02*
X13797000Y-8307000D01*
X13797000Y-8205000D02*
X13695000Y-8307000D01*
X13695000Y-8459000D02*
X13797000Y-8561000D01*
X13797000Y-8459000D02*
X13695000Y-8561000D01*
X16235000Y-7697000D02*
X16337000Y-7799000D01*
X16337000Y-7697000D02*
X16235000Y-7799000D01*
X16235000Y-7951000D02*
X16337000Y-8053000D01*
X16337000Y-7951000D02*
X16235000Y-8053000D01*
X16235000Y-8205000D02*
X16337000Y-8307000D01*
X16337000Y-8205000D02*
X16235000Y-8307000D01*
X16235000Y-8459000D02*
X16337000Y-8561000D01*
X16337000Y-8459000D02*
X16235000Y-8561000D01*
D10*
X13191619Y-9447476D02*
X13191619Y-9247476D01*
X13191619Y-9247476D02*
X13239238Y-9247476D01*
X13239238Y-9247476D02*
X13267809Y-9257000D01*
X13267809Y-9257000D02*
X13286857Y-9276048D01*
X13286857Y-9276048D02*
X13296381Y-9295095D01*
X13296381Y-9295095D02*
X13305905Y-9333190D01*
X13305905Y-9333190D02*
X13305905Y-9361762D01*
X13305905Y-9361762D02*
X13296381Y-9399857D01*
X13296381Y-9399857D02*
X13286857Y-9418905D01*
X13286857Y-9418905D02*
X13267809Y-9437952D01*
X13267809Y-9437952D02*
X13239238Y-9447476D01*
X13239238Y-9447476D02*
X13191619Y-9447476D01*
X13391619Y-9447476D02*
X13391619Y-9314143D01*
X13391619Y-9352238D02*
X13401143Y-9333190D01*
X13401143Y-9333190D02*
X13410667Y-9323667D01*
X13410667Y-9323667D02*
X13429714Y-9314143D01*
X13429714Y-9314143D02*
X13448762Y-9314143D01*
X13515428Y-9447476D02*
X13515428Y-9314143D01*
X13515428Y-9247476D02*
X13505905Y-9257000D01*
X13505905Y-9257000D02*
X13515428Y-9266524D01*
X13515428Y-9266524D02*
X13524952Y-9257000D01*
X13524952Y-9257000D02*
X13515428Y-9247476D01*
X13515428Y-9247476D02*
X13515428Y-9266524D01*
X13639238Y-9447476D02*
X13620190Y-9437952D01*
X13620190Y-9437952D02*
X13610667Y-9418905D01*
X13610667Y-9418905D02*
X13610667Y-9247476D01*
X13744000Y-9447476D02*
X13724952Y-9437952D01*
X13724952Y-9437952D02*
X13715428Y-9418905D01*
X13715428Y-9418905D02*
X13715428Y-9247476D01*
X13940190Y-9447476D02*
X13940190Y-9247476D01*
X13940190Y-9247476D02*
X14006857Y-9390333D01*
X14006857Y-9390333D02*
X14073524Y-9247476D01*
X14073524Y-9247476D02*
X14073524Y-9447476D01*
X14254476Y-9447476D02*
X14254476Y-9342714D01*
X14254476Y-9342714D02*
X14244952Y-9323667D01*
X14244952Y-9323667D02*
X14225905Y-9314143D01*
X14225905Y-9314143D02*
X14187809Y-9314143D01*
X14187809Y-9314143D02*
X14168762Y-9323667D01*
X14254476Y-9437952D02*
X14235428Y-9447476D01*
X14235428Y-9447476D02*
X14187809Y-9447476D01*
X14187809Y-9447476D02*
X14168762Y-9437952D01*
X14168762Y-9437952D02*
X14159238Y-9418905D01*
X14159238Y-9418905D02*
X14159238Y-9399857D01*
X14159238Y-9399857D02*
X14168762Y-9380810D01*
X14168762Y-9380810D02*
X14187809Y-9371286D01*
X14187809Y-9371286D02*
X14235428Y-9371286D01*
X14235428Y-9371286D02*
X14254476Y-9361762D01*
X14349714Y-9314143D02*
X14349714Y-9514143D01*
X14349714Y-9323667D02*
X14368762Y-9314143D01*
X14368762Y-9314143D02*
X14406857Y-9314143D01*
X14406857Y-9314143D02*
X14425905Y-9323667D01*
X14425905Y-9323667D02*
X14435428Y-9333190D01*
X14435428Y-9333190D02*
X14444952Y-9352238D01*
X14444952Y-9352238D02*
X14444952Y-9409381D01*
X14444952Y-9409381D02*
X14435428Y-9428429D01*
X14435428Y-9428429D02*
X14425905Y-9437952D01*
X14425905Y-9437952D02*
X14406857Y-9447476D01*
X14406857Y-9447476D02*
X14368762Y-9447476D01*
X14368762Y-9447476D02*
X14349714Y-9437952D01*
X14530667Y-9428429D02*
X14540190Y-9437952D01*
X14540190Y-9437952D02*
X14530667Y-9447476D01*
X14530667Y-9447476D02*
X14521143Y-9437952D01*
X14521143Y-9437952D02*
X14530667Y-9428429D01*
X14530667Y-9428429D02*
X14530667Y-9447476D01*
X14530667Y-9323667D02*
X14540190Y-9333190D01*
X14540190Y-9333190D02*
X14530667Y-9342714D01*
X14530667Y-9342714D02*
X14521143Y-9333190D01*
X14521143Y-9333190D02*
X14530667Y-9323667D01*
X14530667Y-9323667D02*
X14530667Y-9342714D01*
D11*
X12842000Y-9743000D02*
X12944000Y-9845000D01*
X12944000Y-9743000D02*
X12842000Y-9845000D01*
D10*
X13296381Y-9867476D02*
X13182095Y-9867476D01*
X13239238Y-9867476D02*
X13239238Y-9667476D01*
X13239238Y-9667476D02*
X13220190Y-9696048D01*
X13220190Y-9696048D02*
X13201143Y-9715095D01*
X13201143Y-9715095D02*
X13182095Y-9724619D01*
X13382095Y-9848429D02*
X13391619Y-9857952D01*
X13391619Y-9857952D02*
X13382095Y-9867476D01*
X13382095Y-9867476D02*
X13372571Y-9857952D01*
X13372571Y-9857952D02*
X13382095Y-9848429D01*
X13382095Y-9848429D02*
X13382095Y-9867476D01*
X13515428Y-9667476D02*
X13534476Y-9667476D01*
X13534476Y-9667476D02*
X13553524Y-9677000D01*
X13553524Y-9677000D02*
X13563048Y-9686524D01*
X13563048Y-9686524D02*
X13572571Y-9705571D01*
X13572571Y-9705571D02*
X13582095Y-9743667D01*
X13582095Y-9743667D02*
X13582095Y-9791286D01*
X13582095Y-9791286D02*
X13572571Y-9829381D01*
X13572571Y-9829381D02*
X13563048Y-9848429D01*
X13563048Y-9848429D02*
X13553524Y-9857952D01*
X13553524Y-9857952D02*
X13534476Y-9867476D01*
X13534476Y-9867476D02*
X13515428Y-9867476D01*
X13515428Y-9867476D02*
X13496381Y-9857952D01*
X13496381Y-9857952D02*
X13486857Y-9848429D01*
X13486857Y-9848429D02*
X13477333Y-9829381D01*
X13477333Y-9829381D02*
X13467809Y-9791286D01*
X13467809Y-9791286D02*
X13467809Y-9743667D01*
X13467809Y-9743667D02*
X13477333Y-9705571D01*
X13477333Y-9705571D02*
X13486857Y-9686524D01*
X13486857Y-9686524D02*
X13496381Y-9677000D01*
X13496381Y-9677000D02*
X13515428Y-9667476D01*
X13658286Y-9686524D02*
X13667809Y-9677000D01*
X13667809Y-9677000D02*
X13686857Y-9667476D01*
X13686857Y-9667476D02*
X13734476Y-9667476D01*
X13734476Y-9667476D02*
X13753524Y-9677000D01*
X13753524Y-9677000D02*
X13763048Y-9686524D01*
X13763048Y-9686524D02*
X13772571Y-9705571D01*
X13772571Y-9705571D02*
X13772571Y-9724619D01*
X13772571Y-9724619D02*
X13763048Y-9753190D01*
X13763048Y-9753190D02*
X13648762Y-9867476D01*
X13648762Y-9867476D02*
X13772571Y-9867476D01*
X13896381Y-9667476D02*
X13915429Y-9667476D01*
X13915429Y-9667476D02*
X13934476Y-9677000D01*
X13934476Y-9677000D02*
X13944000Y-9686524D01*
X13944000Y-9686524D02*
X13953524Y-9705571D01*
X13953524Y-9705571D02*
X13963048Y-9743667D01*
X13963048Y-9743667D02*
X13963048Y-9791286D01*
X13963048Y-9791286D02*
X13953524Y-9829381D01*
X13953524Y-9829381D02*
X13944000Y-9848429D01*
X13944000Y-9848429D02*
X13934476Y-9857952D01*
X13934476Y-9857952D02*
X13915429Y-9867476D01*
X13915429Y-9867476D02*
X13896381Y-9867476D01*
X13896381Y-9867476D02*
X13877333Y-9857952D01*
X13877333Y-9857952D02*
X13867809Y-9848429D01*
X13867809Y-9848429D02*
X13858286Y-9829381D01*
X13858286Y-9829381D02*
X13848762Y-9791286D01*
X13848762Y-9791286D02*
X13848762Y-9743667D01*
X13848762Y-9743667D02*
X13858286Y-9705571D01*
X13858286Y-9705571D02*
X13867809Y-9686524D01*
X13867809Y-9686524D02*
X13877333Y-9677000D01*
X13877333Y-9677000D02*
X13896381Y-9667476D01*
X14048762Y-9867476D02*
X14048762Y-9734143D01*
X14048762Y-9753190D02*
X14058286Y-9743667D01*
X14058286Y-9743667D02*
X14077333Y-9734143D01*
X14077333Y-9734143D02*
X14105905Y-9734143D01*
X14105905Y-9734143D02*
X14124952Y-9743667D01*
X14124952Y-9743667D02*
X14134476Y-9762714D01*
X14134476Y-9762714D02*
X14134476Y-9867476D01*
X14134476Y-9762714D02*
X14144000Y-9743667D01*
X14144000Y-9743667D02*
X14163048Y-9734143D01*
X14163048Y-9734143D02*
X14191619Y-9734143D01*
X14191619Y-9734143D02*
X14210667Y-9743667D01*
X14210667Y-9743667D02*
X14220190Y-9762714D01*
X14220190Y-9762714D02*
X14220190Y-9867476D01*
X14315429Y-9867476D02*
X14315429Y-9734143D01*
X14315429Y-9753190D02*
X14324952Y-9743667D01*
X14324952Y-9743667D02*
X14344000Y-9734143D01*
X14344000Y-9734143D02*
X14372571Y-9734143D01*
X14372571Y-9734143D02*
X14391619Y-9743667D01*
X14391619Y-9743667D02*
X14401143Y-9762714D01*
X14401143Y-9762714D02*
X14401143Y-9867476D01*
X14401143Y-9762714D02*
X14410667Y-9743667D01*
X14410667Y-9743667D02*
X14429714Y-9734143D01*
X14429714Y-9734143D02*
X14458286Y-9734143D01*
X14458286Y-9734143D02*
X14477333Y-9743667D01*
X14477333Y-9743667D02*
X14486857Y-9762714D01*
X14486857Y-9762714D02*
X14486857Y-9867476D01*
X14844952Y-9657952D02*
X14673524Y-9915095D01*
X15069714Y-9667476D02*
X15088762Y-9667476D01*
X15088762Y-9667476D02*
X15107810Y-9677000D01*
X15107810Y-9677000D02*
X15117333Y-9686524D01*
X15117333Y-9686524D02*
X15126857Y-9705571D01*
X15126857Y-9705571D02*
X15136381Y-9743667D01*
X15136381Y-9743667D02*
X15136381Y-9791286D01*
X15136381Y-9791286D02*
X15126857Y-9829381D01*
X15126857Y-9829381D02*
X15117333Y-9848429D01*
X15117333Y-9848429D02*
X15107810Y-9857952D01*
X15107810Y-9857952D02*
X15088762Y-9867476D01*
X15088762Y-9867476D02*
X15069714Y-9867476D01*
X15069714Y-9867476D02*
X15050667Y-9857952D01*
X15050667Y-9857952D02*
X15041143Y-9848429D01*
X15041143Y-9848429D02*
X15031619Y-9829381D01*
X15031619Y-9829381D02*
X15022095Y-9791286D01*
X15022095Y-9791286D02*
X15022095Y-9743667D01*
X15022095Y-9743667D02*
X15031619Y-9705571D01*
X15031619Y-9705571D02*
X15041143Y-9686524D01*
X15041143Y-9686524D02*
X15050667Y-9677000D01*
X15050667Y-9677000D02*
X15069714Y-9667476D01*
X15222095Y-9848429D02*
X15231619Y-9857952D01*
X15231619Y-9857952D02*
X15222095Y-9867476D01*
X15222095Y-9867476D02*
X15212571Y-9857952D01*
X15212571Y-9857952D02*
X15222095Y-9848429D01*
X15222095Y-9848429D02*
X15222095Y-9867476D01*
X15355429Y-9667476D02*
X15374476Y-9667476D01*
X15374476Y-9667476D02*
X15393524Y-9677000D01*
X15393524Y-9677000D02*
X15403048Y-9686524D01*
X15403048Y-9686524D02*
X15412571Y-9705571D01*
X15412571Y-9705571D02*
X15422095Y-9743667D01*
X15422095Y-9743667D02*
X15422095Y-9791286D01*
X15422095Y-9791286D02*
X15412571Y-9829381D01*
X15412571Y-9829381D02*
X15403048Y-9848429D01*
X15403048Y-9848429D02*
X15393524Y-9857952D01*
X15393524Y-9857952D02*
X15374476Y-9867476D01*
X15374476Y-9867476D02*
X15355429Y-9867476D01*
X15355429Y-9867476D02*
X15336381Y-9857952D01*
X15336381Y-9857952D02*
X15326857Y-9848429D01*
X15326857Y-9848429D02*
X15317333Y-9829381D01*
X15317333Y-9829381D02*
X15307810Y-9791286D01*
X15307810Y-9791286D02*
X15307810Y-9743667D01*
X15307810Y-9743667D02*
X15317333Y-9705571D01*
X15317333Y-9705571D02*
X15326857Y-9686524D01*
X15326857Y-9686524D02*
X15336381Y-9677000D01*
X15336381Y-9677000D02*
X15355429Y-9667476D01*
X15593524Y-9734143D02*
X15593524Y-9867476D01*
X15545905Y-9657952D02*
X15498286Y-9800810D01*
X15498286Y-9800810D02*
X15622095Y-9800810D01*
X15736381Y-9667476D02*
X15755429Y-9667476D01*
X15755429Y-9667476D02*
X15774476Y-9677000D01*
X15774476Y-9677000D02*
X15784000Y-9686524D01*
X15784000Y-9686524D02*
X15793524Y-9705571D01*
X15793524Y-9705571D02*
X15803048Y-9743667D01*
X15803048Y-9743667D02*
X15803048Y-9791286D01*
X15803048Y-9791286D02*
X15793524Y-9829381D01*
X15793524Y-9829381D02*
X15784000Y-9848429D01*
X15784000Y-9848429D02*
X15774476Y-9857952D01*
X15774476Y-9857952D02*
X15755429Y-9867476D01*
X15755429Y-9867476D02*
X15736381Y-9867476D01*
X15736381Y-9867476D02*
X15717333Y-9857952D01*
X15717333Y-9857952D02*
X15707810Y-9848429D01*
X15707810Y-9848429D02*
X15698286Y-9829381D01*
X15698286Y-9829381D02*
X15688762Y-9791286D01*
X15688762Y-9791286D02*
X15688762Y-9743667D01*
X15688762Y-9743667D02*
X15698286Y-9705571D01*
X15698286Y-9705571D02*
X15707810Y-9686524D01*
X15707810Y-9686524D02*
X15717333Y-9677000D01*
X15717333Y-9677000D02*
X15736381Y-9667476D01*
X15879238Y-9686524D02*
X15888762Y-9677000D01*
X15888762Y-9677000D02*
X15907810Y-9667476D01*
X15907810Y-9667476D02*
X15955429Y-9667476D01*
X15955429Y-9667476D02*
X15974476Y-9677000D01*
X15974476Y-9677000D02*
X15984000Y-9686524D01*
X15984000Y-9686524D02*
X15993524Y-9705571D01*
X15993524Y-9705571D02*
X15993524Y-9724619D01*
X15993524Y-9724619D02*
X15984000Y-9753190D01*
X15984000Y-9753190D02*
X15869714Y-9867476D01*
X15869714Y-9867476D02*
X15993524Y-9867476D01*
X16069714Y-9667476D02*
X16069714Y-9705571D01*
X16145905Y-9667476D02*
X16145905Y-9705571D01*
X16408762Y-9943667D02*
X16399238Y-9934143D01*
X16399238Y-9934143D02*
X16380191Y-9905571D01*
X16380191Y-9905571D02*
X16370667Y-9886524D01*
X16370667Y-9886524D02*
X16361143Y-9857952D01*
X16361143Y-9857952D02*
X16351619Y-9810333D01*
X16351619Y-9810333D02*
X16351619Y-9772238D01*
X16351619Y-9772238D02*
X16361143Y-9724619D01*
X16361143Y-9724619D02*
X16370667Y-9696048D01*
X16370667Y-9696048D02*
X16380191Y-9677000D01*
X16380191Y-9677000D02*
X16399238Y-9648429D01*
X16399238Y-9648429D02*
X16408762Y-9638905D01*
X16513524Y-9753190D02*
X16494476Y-9743667D01*
X16494476Y-9743667D02*
X16484952Y-9734143D01*
X16484952Y-9734143D02*
X16475429Y-9715095D01*
X16475429Y-9715095D02*
X16475429Y-9705571D01*
X16475429Y-9705571D02*
X16484952Y-9686524D01*
X16484952Y-9686524D02*
X16494476Y-9677000D01*
X16494476Y-9677000D02*
X16513524Y-9667476D01*
X16513524Y-9667476D02*
X16551619Y-9667476D01*
X16551619Y-9667476D02*
X16570667Y-9677000D01*
X16570667Y-9677000D02*
X16580191Y-9686524D01*
X16580191Y-9686524D02*
X16589714Y-9705571D01*
X16589714Y-9705571D02*
X16589714Y-9715095D01*
X16589714Y-9715095D02*
X16580191Y-9734143D01*
X16580191Y-9734143D02*
X16570667Y-9743667D01*
X16570667Y-9743667D02*
X16551619Y-9753190D01*
X16551619Y-9753190D02*
X16513524Y-9753190D01*
X16513524Y-9753190D02*
X16494476Y-9762714D01*
X16494476Y-9762714D02*
X16484952Y-9772238D01*
X16484952Y-9772238D02*
X16475429Y-9791286D01*
X16475429Y-9791286D02*
X16475429Y-9829381D01*
X16475429Y-9829381D02*
X16484952Y-9848429D01*
X16484952Y-9848429D02*
X16494476Y-9857952D01*
X16494476Y-9857952D02*
X16513524Y-9867476D01*
X16513524Y-9867476D02*
X16551619Y-9867476D01*
X16551619Y-9867476D02*
X16570667Y-9857952D01*
X16570667Y-9857952D02*
X16580191Y-9848429D01*
X16580191Y-9848429D02*
X16589714Y-9829381D01*
X16589714Y-9829381D02*
X16589714Y-9791286D01*
X16589714Y-9791286D02*
X16580191Y-9772238D01*
X16580191Y-9772238D02*
X16570667Y-9762714D01*
X16570667Y-9762714D02*
X16551619Y-9753190D01*
X16795429Y-9867476D02*
X16795429Y-9667476D01*
X16881143Y-9867476D02*
X16881143Y-9762714D01*
X16881143Y-9762714D02*
X16871619Y-9743667D01*
X16871619Y-9743667D02*
X16852572Y-9734143D01*
X16852572Y-9734143D02*
X16824000Y-9734143D01*
X16824000Y-9734143D02*
X16804953Y-9743667D01*
X16804953Y-9743667D02*
X16795429Y-9753190D01*
X17004953Y-9867476D02*
X16985905Y-9857952D01*
X16985905Y-9857952D02*
X16976381Y-9848429D01*
X16976381Y-9848429D02*
X16966857Y-9829381D01*
X16966857Y-9829381D02*
X16966857Y-9772238D01*
X16966857Y-9772238D02*
X16976381Y-9753190D01*
X16976381Y-9753190D02*
X16985905Y-9743667D01*
X16985905Y-9743667D02*
X17004953Y-9734143D01*
X17004953Y-9734143D02*
X17033524Y-9734143D01*
X17033524Y-9734143D02*
X17052572Y-9743667D01*
X17052572Y-9743667D02*
X17062095Y-9753190D01*
X17062095Y-9753190D02*
X17071619Y-9772238D01*
X17071619Y-9772238D02*
X17071619Y-9829381D01*
X17071619Y-9829381D02*
X17062095Y-9848429D01*
X17062095Y-9848429D02*
X17052572Y-9857952D01*
X17052572Y-9857952D02*
X17033524Y-9867476D01*
X17033524Y-9867476D02*
X17004953Y-9867476D01*
X17185905Y-9867476D02*
X17166857Y-9857952D01*
X17166857Y-9857952D02*
X17157334Y-9838905D01*
X17157334Y-9838905D02*
X17157334Y-9667476D01*
X17338286Y-9857952D02*
X17319238Y-9867476D01*
X17319238Y-9867476D02*
X17281143Y-9867476D01*
X17281143Y-9867476D02*
X17262095Y-9857952D01*
X17262095Y-9857952D02*
X17252572Y-9838905D01*
X17252572Y-9838905D02*
X17252572Y-9762714D01*
X17252572Y-9762714D02*
X17262095Y-9743667D01*
X17262095Y-9743667D02*
X17281143Y-9734143D01*
X17281143Y-9734143D02*
X17319238Y-9734143D01*
X17319238Y-9734143D02*
X17338286Y-9743667D01*
X17338286Y-9743667D02*
X17347810Y-9762714D01*
X17347810Y-9762714D02*
X17347810Y-9781762D01*
X17347810Y-9781762D02*
X17252572Y-9800810D01*
X17424000Y-9857952D02*
X17443048Y-9867476D01*
X17443048Y-9867476D02*
X17481143Y-9867476D01*
X17481143Y-9867476D02*
X17500191Y-9857952D01*
X17500191Y-9857952D02*
X17509715Y-9838905D01*
X17509715Y-9838905D02*
X17509715Y-9829381D01*
X17509715Y-9829381D02*
X17500191Y-9810333D01*
X17500191Y-9810333D02*
X17481143Y-9800810D01*
X17481143Y-9800810D02*
X17452572Y-9800810D01*
X17452572Y-9800810D02*
X17433524Y-9791286D01*
X17433524Y-9791286D02*
X17424000Y-9772238D01*
X17424000Y-9772238D02*
X17424000Y-9762714D01*
X17424000Y-9762714D02*
X17433524Y-9743667D01*
X17433524Y-9743667D02*
X17452572Y-9734143D01*
X17452572Y-9734143D02*
X17481143Y-9734143D01*
X17481143Y-9734143D02*
X17500191Y-9743667D01*
X17576381Y-9943667D02*
X17585905Y-9934143D01*
X17585905Y-9934143D02*
X17604953Y-9905571D01*
X17604953Y-9905571D02*
X17614476Y-9886524D01*
X17614476Y-9886524D02*
X17624000Y-9857952D01*
X17624000Y-9857952D02*
X17633524Y-9810333D01*
X17633524Y-9810333D02*
X17633524Y-9772238D01*
X17633524Y-9772238D02*
X17624000Y-9724619D01*
X17624000Y-9724619D02*
X17614476Y-9696048D01*
X17614476Y-9696048D02*
X17604953Y-9677000D01*
X17604953Y-9677000D02*
X17585905Y-9648429D01*
X17585905Y-9648429D02*
X17576381Y-9638905D01*
M02*
