%TF.GenerationSoftware,KiCad,Pcbnew,(7.0.0)*%
%TF.CreationDate,2024-01-24T18:28:03-05:00*%
%TF.ProjectId,LPF-Eval-Board,4c50462d-4576-4616-9c2d-426f6172642e,rev?*%
%TF.SameCoordinates,Original*%
%TF.FileFunction,Soldermask,Top*%
%TF.FilePolarity,Negative*%
%FSLAX46Y46*%
G04 Gerber Fmt 4.6, Leading zero omitted, Abs format (unit mm)*
G04 Created by KiCad (PCBNEW (7.0.0)) date 2024-01-24 18:28:03*
%MOMM*%
%LPD*%
G01*
G04 APERTURE LIST*
%ADD10O,2.030000X1.730000*%
%ADD11R,2.030000X1.730000*%
%ADD12C,1.100000*%
%ADD13R,1.460500X0.533400*%
%TA.AperFunction,ComponentPad*%
%ADD14O,2.030000X1.730000*%
%TD*%
%TA.AperFunction,ComponentPad*%
%ADD15R,2.030000X1.730000*%
%TD*%
%TA.AperFunction,SMDPad,CuDef*%
%ADD16R,1.460500X0.533400*%
%TD*%
%TA.AperFunction,Conductor*%
%ADD17C,0.762000*%
%TD*%
%TA.AperFunction,Conductor*%
%ADD18C,0.000000*%
%TD*%
G04 APERTURE END LIST*
D10*
%TO.C,REF\u002A\u002A*%
X137459999Y-85099999D03*
X137459999Y-82559999D03*
X137459999Y-80019999D03*
D11*
X137459999Y-77479999D03*
D12*
X139620000Y-82560000D03*
%TD*%
%TO.C,REF\u002A\u002A*%
X165020000Y-82560000D03*
D11*
X162859999Y-77479999D03*
D10*
X162859999Y-80019999D03*
X162859999Y-82559999D03*
X162859999Y-85099999D03*
%TD*%
D13*
%TO.C,REF\u002A\u002A*%
X152399999Y-78739999D03*
X152399999Y-80009999D03*
X152399999Y-81279999D03*
X152399999Y-82549999D03*
X146951699Y-82549999D03*
X146951699Y-81279999D03*
X146951699Y-80009999D03*
X146951699Y-78739999D03*
%TD*%
D14*
%TO.P,REF\u002A\u002A,4*%
%TO.N,N/C*%
X137459999Y-85099999D03*
%TO.P,REF\u002A\u002A,3*%
X137459999Y-82559999D03*
%TO.P,REF\u002A\u002A,2*%
X137459999Y-80019999D03*
D15*
%TO.P,REF\u002A\u002A,1*%
X137459999Y-77479999D03*
%TD*%
%TO.P,REF\u002A\u002A,1*%
%TO.N,N/C*%
X162859999Y-77479999D03*
D14*
%TO.P,REF\u002A\u002A,2*%
X162859999Y-80019999D03*
%TO.P,REF\u002A\u002A,3*%
X162859999Y-82559999D03*
%TO.P,REF\u002A\u002A,4*%
X162859999Y-85099999D03*
%TD*%
D16*
%TO.P,REF\u002A\u002A,8*%
%TO.N,N/C*%
X152399999Y-78739999D03*
%TO.P,REF\u002A\u002A,7*%
X152399999Y-80009999D03*
%TO.P,REF\u002A\u002A,6*%
X152399999Y-81279999D03*
%TO.P,REF\u002A\u002A,5*%
X152399999Y-82549999D03*
%TO.P,REF\u002A\u002A,4*%
X146951699Y-82549999D03*
%TO.P,REF\u002A\u002A,3*%
X146951699Y-81279999D03*
%TO.P,REF\u002A\u002A,2*%
X146951699Y-80009999D03*
%TO.P,REF\u002A\u002A,1*%
X146951699Y-78739999D03*
%TD*%
D17*
%TO.N,*%
X157480000Y-86360000D02*
X158740000Y-85100000D01*
X158740000Y-85100000D02*
X162860000Y-85100000D01*
X154940000Y-86360000D02*
X157480000Y-86360000D01*
X152400000Y-83820000D02*
X154940000Y-86360000D01*
X152400000Y-82550000D02*
X152400000Y-83820000D01*
X144780000Y-86360000D02*
X142240000Y-86360000D01*
X142240000Y-86360000D02*
X140980000Y-85100000D01*
X140980000Y-85100000D02*
X137460000Y-85100000D01*
X146951700Y-84188300D02*
X144780000Y-86360000D01*
X146951700Y-82550000D02*
X146951700Y-84188300D01*
X146951700Y-81280000D02*
X138740000Y-81280000D01*
X138740000Y-81280000D02*
X137460000Y-82560000D01*
X161580000Y-81280000D02*
X162860000Y-82560000D01*
X152400000Y-81280000D02*
X161580000Y-81280000D01*
X162850000Y-80010000D02*
X162860000Y-80020000D01*
X152400000Y-80010000D02*
X162850000Y-80010000D01*
X137470000Y-80010000D02*
X137460000Y-80020000D01*
X146951700Y-80010000D02*
X137470000Y-80010000D01*
X145691700Y-77480000D02*
X146951700Y-78740000D01*
X137460000Y-77480000D02*
X145691700Y-77480000D01*
X162860000Y-77480000D02*
X153660000Y-77480000D01*
X153660000Y-77480000D02*
X152400000Y-78740000D01*
D18*
X145738850Y-81026000D02*
X146119850Y-81407000D01*
%TD*%
M02*
