%TF.GenerationSoftware,KiCad,Pcbnew,(7.0.0)*%
%TF.CreationDate,2024-03-15T11:21:40-04:00*%
%TF.ProjectId,DC-Offset-Amp,44432d4f-6666-4736-9574-2d416d702e6b,rev?*%
%TF.SameCoordinates,Original*%
%TF.FileFunction,Drillmap*%
%TF.FilePolarity,Positive*%
%FSLAX45Y45*%
G04 Gerber Fmt 4.5, Leading zero omitted, Abs format (unit mm)*
G04 Created by KiCad (PCBNEW (7.0.0)) date 2024-03-15 11:21:40*
%MOMM*%
%LPD*%
G01*
G04 APERTURE LIST*
%ADD10C,0.200000*%
G04 APERTURE END LIST*
D10*
X247619Y-293476D02*
X247619Y-93476D01*
X247619Y-93476D02*
X295238Y-93476D01*
X295238Y-93476D02*
X323810Y-103000D01*
X323810Y-103000D02*
X342857Y-122048D01*
X342857Y-122048D02*
X352381Y-141095D01*
X352381Y-141095D02*
X361905Y-179190D01*
X361905Y-179190D02*
X361905Y-207762D01*
X361905Y-207762D02*
X352381Y-245857D01*
X352381Y-245857D02*
X342857Y-264905D01*
X342857Y-264905D02*
X323810Y-283952D01*
X323810Y-283952D02*
X295238Y-293476D01*
X295238Y-293476D02*
X247619Y-293476D01*
X447619Y-293476D02*
X447619Y-160143D01*
X447619Y-198238D02*
X457143Y-179190D01*
X457143Y-179190D02*
X466667Y-169667D01*
X466667Y-169667D02*
X485714Y-160143D01*
X485714Y-160143D02*
X504762Y-160143D01*
X571429Y-293476D02*
X571429Y-160143D01*
X571429Y-93476D02*
X561905Y-103000D01*
X561905Y-103000D02*
X571429Y-112524D01*
X571429Y-112524D02*
X580952Y-103000D01*
X580952Y-103000D02*
X571429Y-93476D01*
X571429Y-93476D02*
X571429Y-112524D01*
X695238Y-293476D02*
X676190Y-283952D01*
X676190Y-283952D02*
X666667Y-264905D01*
X666667Y-264905D02*
X666667Y-93476D01*
X800000Y-293476D02*
X780952Y-283952D01*
X780952Y-283952D02*
X771428Y-264905D01*
X771428Y-264905D02*
X771428Y-93476D01*
X996190Y-293476D02*
X996190Y-93476D01*
X996190Y-93476D02*
X1062857Y-236333D01*
X1062857Y-236333D02*
X1129524Y-93476D01*
X1129524Y-93476D02*
X1129524Y-293476D01*
X1310476Y-293476D02*
X1310476Y-188714D01*
X1310476Y-188714D02*
X1300952Y-169667D01*
X1300952Y-169667D02*
X1281905Y-160143D01*
X1281905Y-160143D02*
X1243809Y-160143D01*
X1243809Y-160143D02*
X1224762Y-169667D01*
X1310476Y-283952D02*
X1291429Y-293476D01*
X1291429Y-293476D02*
X1243809Y-293476D01*
X1243809Y-293476D02*
X1224762Y-283952D01*
X1224762Y-283952D02*
X1215238Y-264905D01*
X1215238Y-264905D02*
X1215238Y-245857D01*
X1215238Y-245857D02*
X1224762Y-226809D01*
X1224762Y-226809D02*
X1243809Y-217286D01*
X1243809Y-217286D02*
X1291429Y-217286D01*
X1291429Y-217286D02*
X1310476Y-207762D01*
X1405714Y-160143D02*
X1405714Y-360143D01*
X1405714Y-169667D02*
X1424762Y-160143D01*
X1424762Y-160143D02*
X1462857Y-160143D01*
X1462857Y-160143D02*
X1481905Y-169667D01*
X1481905Y-169667D02*
X1491428Y-179190D01*
X1491428Y-179190D02*
X1500952Y-198238D01*
X1500952Y-198238D02*
X1500952Y-255381D01*
X1500952Y-255381D02*
X1491428Y-274429D01*
X1491428Y-274429D02*
X1481905Y-283952D01*
X1481905Y-283952D02*
X1462857Y-293476D01*
X1462857Y-293476D02*
X1424762Y-293476D01*
X1424762Y-293476D02*
X1405714Y-283952D01*
X1586667Y-274429D02*
X1596190Y-283952D01*
X1596190Y-283952D02*
X1586667Y-293476D01*
X1586667Y-293476D02*
X1577143Y-283952D01*
X1577143Y-283952D02*
X1586667Y-274429D01*
X1586667Y-274429D02*
X1586667Y-293476D01*
X1586667Y-169667D02*
X1596190Y-179190D01*
X1596190Y-179190D02*
X1586667Y-188714D01*
X1586667Y-188714D02*
X1577143Y-179190D01*
X1577143Y-179190D02*
X1586667Y-169667D01*
X1586667Y-169667D02*
X1586667Y-188714D01*
M02*
