M48
; DRILL file {KiCad (7.0.0)} date Fri Mar 15 11:21:35 2024
; FORMAT={-:-/ absolute / metric / decimal}
; #@! TF.CreationDate,2024-03-15T11:21:35-04:00
; #@! TF.GenerationSoftware,Kicad,Pcbnew,(7.0.0)
; #@! TF.FileFunction,Plated,1,2,PTH
FMAT,2
METRIC
; #@! TA.AperFunction,Plated,PTH,ComponentDrill
T1C0.800
; #@! TA.AperFunction,Plated,PTH,ComponentDrill
T2C1.000
%
G90
G05
T1
X124.46Y-93.98
X132.08Y-77.47
X132.08Y-85.09
X132.08Y-93.98
X140.97Y-66.04
X140.98Y-77.48
X140.98Y-80.02
X140.98Y-82.56
X140.98Y-85.1
X148.59Y-66.04
X148.6Y-77.48
X148.6Y-80.02
X148.6Y-82.56
X148.6Y-85.1
X154.94Y-81.28
X154.94Y-88.9
X161.29Y-66.04
X162.56Y-81.28
X162.56Y-88.9
X168.91Y-66.04
T2
X139.7Y-106.68
X142.24Y-106.68
X144.78Y-106.68
X147.32Y-106.68
X149.86Y-106.68
X152.4Y-106.68
T0
M30
