%TF.GenerationSoftware,KiCad,Pcbnew,(7.0.0)*%
%TF.CreationDate,2024-03-15T11:21:40-04:00*%
%TF.ProjectId,DC-Offset-Amp,44432d4f-6666-4736-9574-2d416d702e6b,rev?*%
%TF.SameCoordinates,Original*%
%TF.FileFunction,Drillmap*%
%TF.FilePolarity,Positive*%
%FSLAX45Y45*%
G04 Gerber Fmt 4.5, Leading zero omitted, Abs format (unit mm)*
G04 Created by KiCad (PCBNEW (7.0.0)) date 2024-03-15 11:21:40*
%MOMM*%
%LPD*%
G01*
G04 APERTURE LIST*
%ADD10C,0.200000*%
%ADD11C,0.080000*%
%ADD12C,0.100000*%
G04 APERTURE END LIST*
D10*
D11*
X12406000Y-9358000D02*
X12486000Y-9438000D01*
X12486000Y-9358000D02*
X12406000Y-9438000D01*
X13168000Y-7707000D02*
X13248000Y-7787000D01*
X13248000Y-7707000D02*
X13168000Y-7787000D01*
X13168000Y-8469000D02*
X13248000Y-8549000D01*
X13248000Y-8469000D02*
X13168000Y-8549000D01*
X13168000Y-9358000D02*
X13248000Y-9438000D01*
X13248000Y-9358000D02*
X13168000Y-9438000D01*
X14057000Y-6564000D02*
X14137000Y-6644000D01*
X14137000Y-6564000D02*
X14057000Y-6644000D01*
X14058000Y-7708000D02*
X14138000Y-7788000D01*
X14138000Y-7708000D02*
X14058000Y-7788000D01*
X14058000Y-7962000D02*
X14138000Y-8042000D01*
X14138000Y-7962000D02*
X14058000Y-8042000D01*
X14058000Y-8216000D02*
X14138000Y-8296000D01*
X14138000Y-8216000D02*
X14058000Y-8296000D01*
X14058000Y-8470000D02*
X14138000Y-8550000D01*
X14138000Y-8470000D02*
X14058000Y-8550000D01*
X14819000Y-6564000D02*
X14899000Y-6644000D01*
X14899000Y-6564000D02*
X14819000Y-6644000D01*
X14820000Y-7708000D02*
X14900000Y-7788000D01*
X14900000Y-7708000D02*
X14820000Y-7788000D01*
X14820000Y-7962000D02*
X14900000Y-8042000D01*
X14900000Y-7962000D02*
X14820000Y-8042000D01*
X14820000Y-8216000D02*
X14900000Y-8296000D01*
X14900000Y-8216000D02*
X14820000Y-8296000D01*
X14820000Y-8470000D02*
X14900000Y-8550000D01*
X14900000Y-8470000D02*
X14820000Y-8550000D01*
X15454000Y-8088000D02*
X15534000Y-8168000D01*
X15534000Y-8088000D02*
X15454000Y-8168000D01*
X15454000Y-8850000D02*
X15534000Y-8930000D01*
X15534000Y-8850000D02*
X15454000Y-8930000D01*
X16089000Y-6564000D02*
X16169000Y-6644000D01*
X16169000Y-6564000D02*
X16089000Y-6644000D01*
X16216000Y-8088000D02*
X16296000Y-8168000D01*
X16296000Y-8088000D02*
X16216000Y-8168000D01*
X16216000Y-8850000D02*
X16296000Y-8930000D01*
X16296000Y-8850000D02*
X16216000Y-8930000D01*
X16851000Y-6564000D02*
X16931000Y-6644000D01*
X16931000Y-6564000D02*
X16851000Y-6644000D01*
D12*
X14020000Y-10668000D02*
G75*
G03*
X14020000Y-10668000I-50000J0D01*
G01*
X14274000Y-10668000D02*
G75*
G03*
X14274000Y-10668000I-50000J0D01*
G01*
X14528000Y-10668000D02*
G75*
G03*
X14528000Y-10668000I-50000J0D01*
G01*
X14782000Y-10668000D02*
G75*
G03*
X14782000Y-10668000I-50000J0D01*
G01*
X15036000Y-10668000D02*
G75*
G03*
X15036000Y-10668000I-50000J0D01*
G01*
X15290000Y-10668000D02*
G75*
G03*
X15290000Y-10668000I-50000J0D01*
G01*
D10*
X247619Y-293476D02*
X247619Y-93476D01*
X247619Y-93476D02*
X295238Y-93476D01*
X295238Y-93476D02*
X323810Y-103000D01*
X323810Y-103000D02*
X342857Y-122048D01*
X342857Y-122048D02*
X352381Y-141095D01*
X352381Y-141095D02*
X361905Y-179190D01*
X361905Y-179190D02*
X361905Y-207762D01*
X361905Y-207762D02*
X352381Y-245857D01*
X352381Y-245857D02*
X342857Y-264905D01*
X342857Y-264905D02*
X323810Y-283952D01*
X323810Y-283952D02*
X295238Y-293476D01*
X295238Y-293476D02*
X247619Y-293476D01*
X447619Y-293476D02*
X447619Y-160143D01*
X447619Y-198238D02*
X457143Y-179190D01*
X457143Y-179190D02*
X466667Y-169667D01*
X466667Y-169667D02*
X485714Y-160143D01*
X485714Y-160143D02*
X504762Y-160143D01*
X571429Y-293476D02*
X571429Y-160143D01*
X571429Y-93476D02*
X561905Y-103000D01*
X561905Y-103000D02*
X571429Y-112524D01*
X571429Y-112524D02*
X580952Y-103000D01*
X580952Y-103000D02*
X571429Y-93476D01*
X571429Y-93476D02*
X571429Y-112524D01*
X695238Y-293476D02*
X676190Y-283952D01*
X676190Y-283952D02*
X666667Y-264905D01*
X666667Y-264905D02*
X666667Y-93476D01*
X800000Y-293476D02*
X780952Y-283952D01*
X780952Y-283952D02*
X771428Y-264905D01*
X771428Y-264905D02*
X771428Y-93476D01*
X996190Y-293476D02*
X996190Y-93476D01*
X996190Y-93476D02*
X1062857Y-236333D01*
X1062857Y-236333D02*
X1129524Y-93476D01*
X1129524Y-93476D02*
X1129524Y-293476D01*
X1310476Y-293476D02*
X1310476Y-188714D01*
X1310476Y-188714D02*
X1300952Y-169667D01*
X1300952Y-169667D02*
X1281905Y-160143D01*
X1281905Y-160143D02*
X1243809Y-160143D01*
X1243809Y-160143D02*
X1224762Y-169667D01*
X1310476Y-283952D02*
X1291429Y-293476D01*
X1291429Y-293476D02*
X1243809Y-293476D01*
X1243809Y-293476D02*
X1224762Y-283952D01*
X1224762Y-283952D02*
X1215238Y-264905D01*
X1215238Y-264905D02*
X1215238Y-245857D01*
X1215238Y-245857D02*
X1224762Y-226809D01*
X1224762Y-226809D02*
X1243809Y-217286D01*
X1243809Y-217286D02*
X1291429Y-217286D01*
X1291429Y-217286D02*
X1310476Y-207762D01*
X1405714Y-160143D02*
X1405714Y-360143D01*
X1405714Y-169667D02*
X1424762Y-160143D01*
X1424762Y-160143D02*
X1462857Y-160143D01*
X1462857Y-160143D02*
X1481905Y-169667D01*
X1481905Y-169667D02*
X1491428Y-179190D01*
X1491428Y-179190D02*
X1500952Y-198238D01*
X1500952Y-198238D02*
X1500952Y-255381D01*
X1500952Y-255381D02*
X1491428Y-274429D01*
X1491428Y-274429D02*
X1481905Y-283952D01*
X1481905Y-283952D02*
X1462857Y-293476D01*
X1462857Y-293476D02*
X1424762Y-293476D01*
X1424762Y-293476D02*
X1405714Y-283952D01*
X1586667Y-274429D02*
X1596190Y-283952D01*
X1596190Y-283952D02*
X1586667Y-293476D01*
X1586667Y-293476D02*
X1577143Y-283952D01*
X1577143Y-283952D02*
X1586667Y-274429D01*
X1586667Y-274429D02*
X1586667Y-293476D01*
X1586667Y-169667D02*
X1596190Y-179190D01*
X1596190Y-179190D02*
X1586667Y-188714D01*
X1586667Y-188714D02*
X1577143Y-179190D01*
X1577143Y-179190D02*
X1586667Y-169667D01*
X1586667Y-169667D02*
X1586667Y-188714D01*
D11*
X-80000Y-600000D02*
X0Y-680000D01*
X0Y-600000D02*
X-80000Y-680000D01*
D10*
X285714Y-513476D02*
X304762Y-513476D01*
X304762Y-513476D02*
X323810Y-523000D01*
X323810Y-523000D02*
X333333Y-532524D01*
X333333Y-532524D02*
X342857Y-551571D01*
X342857Y-551571D02*
X352381Y-589667D01*
X352381Y-589667D02*
X352381Y-637286D01*
X352381Y-637286D02*
X342857Y-675381D01*
X342857Y-675381D02*
X333333Y-694429D01*
X333333Y-694429D02*
X323810Y-703952D01*
X323810Y-703952D02*
X304762Y-713476D01*
X304762Y-713476D02*
X285714Y-713476D01*
X285714Y-713476D02*
X266667Y-703952D01*
X266667Y-703952D02*
X257143Y-694429D01*
X257143Y-694429D02*
X247619Y-675381D01*
X247619Y-675381D02*
X238095Y-637286D01*
X238095Y-637286D02*
X238095Y-589667D01*
X238095Y-589667D02*
X247619Y-551571D01*
X247619Y-551571D02*
X257143Y-532524D01*
X257143Y-532524D02*
X266667Y-523000D01*
X266667Y-523000D02*
X285714Y-513476D01*
X438095Y-694429D02*
X447619Y-703952D01*
X447619Y-703952D02*
X438095Y-713476D01*
X438095Y-713476D02*
X428571Y-703952D01*
X428571Y-703952D02*
X438095Y-694429D01*
X438095Y-694429D02*
X438095Y-713476D01*
X561905Y-599190D02*
X542857Y-589667D01*
X542857Y-589667D02*
X533333Y-580143D01*
X533333Y-580143D02*
X523809Y-561095D01*
X523809Y-561095D02*
X523809Y-551571D01*
X523809Y-551571D02*
X533333Y-532524D01*
X533333Y-532524D02*
X542857Y-523000D01*
X542857Y-523000D02*
X561905Y-513476D01*
X561905Y-513476D02*
X600000Y-513476D01*
X600000Y-513476D02*
X619048Y-523000D01*
X619048Y-523000D02*
X628571Y-532524D01*
X628571Y-532524D02*
X638095Y-551571D01*
X638095Y-551571D02*
X638095Y-561095D01*
X638095Y-561095D02*
X628571Y-580143D01*
X628571Y-580143D02*
X619048Y-589667D01*
X619048Y-589667D02*
X600000Y-599190D01*
X600000Y-599190D02*
X561905Y-599190D01*
X561905Y-599190D02*
X542857Y-608714D01*
X542857Y-608714D02*
X533333Y-618238D01*
X533333Y-618238D02*
X523809Y-637286D01*
X523809Y-637286D02*
X523809Y-675381D01*
X523809Y-675381D02*
X533333Y-694429D01*
X533333Y-694429D02*
X542857Y-703952D01*
X542857Y-703952D02*
X561905Y-713476D01*
X561905Y-713476D02*
X600000Y-713476D01*
X600000Y-713476D02*
X619048Y-703952D01*
X619048Y-703952D02*
X628571Y-694429D01*
X628571Y-694429D02*
X638095Y-675381D01*
X638095Y-675381D02*
X638095Y-637286D01*
X638095Y-637286D02*
X628571Y-618238D01*
X628571Y-618238D02*
X619048Y-608714D01*
X619048Y-608714D02*
X600000Y-599190D01*
X761905Y-513476D02*
X780952Y-513476D01*
X780952Y-513476D02*
X800000Y-523000D01*
X800000Y-523000D02*
X809524Y-532524D01*
X809524Y-532524D02*
X819048Y-551571D01*
X819048Y-551571D02*
X828571Y-589667D01*
X828571Y-589667D02*
X828571Y-637286D01*
X828571Y-637286D02*
X819048Y-675381D01*
X819048Y-675381D02*
X809524Y-694429D01*
X809524Y-694429D02*
X800000Y-703952D01*
X800000Y-703952D02*
X780952Y-713476D01*
X780952Y-713476D02*
X761905Y-713476D01*
X761905Y-713476D02*
X742857Y-703952D01*
X742857Y-703952D02*
X733333Y-694429D01*
X733333Y-694429D02*
X723809Y-675381D01*
X723809Y-675381D02*
X714286Y-637286D01*
X714286Y-637286D02*
X714286Y-589667D01*
X714286Y-589667D02*
X723809Y-551571D01*
X723809Y-551571D02*
X733333Y-532524D01*
X733333Y-532524D02*
X742857Y-523000D01*
X742857Y-523000D02*
X761905Y-513476D01*
X952381Y-513476D02*
X971429Y-513476D01*
X971429Y-513476D02*
X990476Y-523000D01*
X990476Y-523000D02*
X1000000Y-532524D01*
X1000000Y-532524D02*
X1009524Y-551571D01*
X1009524Y-551571D02*
X1019048Y-589667D01*
X1019048Y-589667D02*
X1019048Y-637286D01*
X1019048Y-637286D02*
X1009524Y-675381D01*
X1009524Y-675381D02*
X1000000Y-694429D01*
X1000000Y-694429D02*
X990476Y-703952D01*
X990476Y-703952D02*
X971429Y-713476D01*
X971429Y-713476D02*
X952381Y-713476D01*
X952381Y-713476D02*
X933333Y-703952D01*
X933333Y-703952D02*
X923809Y-694429D01*
X923809Y-694429D02*
X914286Y-675381D01*
X914286Y-675381D02*
X904762Y-637286D01*
X904762Y-637286D02*
X904762Y-589667D01*
X904762Y-589667D02*
X914286Y-551571D01*
X914286Y-551571D02*
X923809Y-532524D01*
X923809Y-532524D02*
X933333Y-523000D01*
X933333Y-523000D02*
X952381Y-513476D01*
X1104762Y-713476D02*
X1104762Y-580143D01*
X1104762Y-599190D02*
X1114286Y-589667D01*
X1114286Y-589667D02*
X1133333Y-580143D01*
X1133333Y-580143D02*
X1161905Y-580143D01*
X1161905Y-580143D02*
X1180952Y-589667D01*
X1180952Y-589667D02*
X1190476Y-608714D01*
X1190476Y-608714D02*
X1190476Y-713476D01*
X1190476Y-608714D02*
X1200000Y-589667D01*
X1200000Y-589667D02*
X1219048Y-580143D01*
X1219048Y-580143D02*
X1247619Y-580143D01*
X1247619Y-580143D02*
X1266667Y-589667D01*
X1266667Y-589667D02*
X1276191Y-608714D01*
X1276191Y-608714D02*
X1276191Y-713476D01*
X1371429Y-713476D02*
X1371429Y-580143D01*
X1371429Y-599190D02*
X1380952Y-589667D01*
X1380952Y-589667D02*
X1400000Y-580143D01*
X1400000Y-580143D02*
X1428571Y-580143D01*
X1428571Y-580143D02*
X1447619Y-589667D01*
X1447619Y-589667D02*
X1457143Y-608714D01*
X1457143Y-608714D02*
X1457143Y-713476D01*
X1457143Y-608714D02*
X1466667Y-589667D01*
X1466667Y-589667D02*
X1485714Y-580143D01*
X1485714Y-580143D02*
X1514286Y-580143D01*
X1514286Y-580143D02*
X1533333Y-589667D01*
X1533333Y-589667D02*
X1542857Y-608714D01*
X1542857Y-608714D02*
X1542857Y-713476D01*
X1900952Y-503952D02*
X1729524Y-761095D01*
X2125714Y-513476D02*
X2144762Y-513476D01*
X2144762Y-513476D02*
X2163810Y-523000D01*
X2163810Y-523000D02*
X2173333Y-532524D01*
X2173333Y-532524D02*
X2182857Y-551571D01*
X2182857Y-551571D02*
X2192381Y-589667D01*
X2192381Y-589667D02*
X2192381Y-637286D01*
X2192381Y-637286D02*
X2182857Y-675381D01*
X2182857Y-675381D02*
X2173333Y-694429D01*
X2173333Y-694429D02*
X2163810Y-703952D01*
X2163810Y-703952D02*
X2144762Y-713476D01*
X2144762Y-713476D02*
X2125714Y-713476D01*
X2125714Y-713476D02*
X2106667Y-703952D01*
X2106667Y-703952D02*
X2097143Y-694429D01*
X2097143Y-694429D02*
X2087619Y-675381D01*
X2087619Y-675381D02*
X2078095Y-637286D01*
X2078095Y-637286D02*
X2078095Y-589667D01*
X2078095Y-589667D02*
X2087619Y-551571D01*
X2087619Y-551571D02*
X2097143Y-532524D01*
X2097143Y-532524D02*
X2106667Y-523000D01*
X2106667Y-523000D02*
X2125714Y-513476D01*
X2278095Y-694429D02*
X2287619Y-703952D01*
X2287619Y-703952D02*
X2278095Y-713476D01*
X2278095Y-713476D02*
X2268572Y-703952D01*
X2268572Y-703952D02*
X2278095Y-694429D01*
X2278095Y-694429D02*
X2278095Y-713476D01*
X2411429Y-513476D02*
X2430476Y-513476D01*
X2430476Y-513476D02*
X2449524Y-523000D01*
X2449524Y-523000D02*
X2459048Y-532524D01*
X2459048Y-532524D02*
X2468572Y-551571D01*
X2468572Y-551571D02*
X2478095Y-589667D01*
X2478095Y-589667D02*
X2478095Y-637286D01*
X2478095Y-637286D02*
X2468572Y-675381D01*
X2468572Y-675381D02*
X2459048Y-694429D01*
X2459048Y-694429D02*
X2449524Y-703952D01*
X2449524Y-703952D02*
X2430476Y-713476D01*
X2430476Y-713476D02*
X2411429Y-713476D01*
X2411429Y-713476D02*
X2392381Y-703952D01*
X2392381Y-703952D02*
X2382857Y-694429D01*
X2382857Y-694429D02*
X2373333Y-675381D01*
X2373333Y-675381D02*
X2363810Y-637286D01*
X2363810Y-637286D02*
X2363810Y-589667D01*
X2363810Y-589667D02*
X2373333Y-551571D01*
X2373333Y-551571D02*
X2382857Y-532524D01*
X2382857Y-532524D02*
X2392381Y-523000D01*
X2392381Y-523000D02*
X2411429Y-513476D01*
X2544762Y-513476D02*
X2668572Y-513476D01*
X2668572Y-513476D02*
X2601905Y-589667D01*
X2601905Y-589667D02*
X2630476Y-589667D01*
X2630476Y-589667D02*
X2649524Y-599190D01*
X2649524Y-599190D02*
X2659048Y-608714D01*
X2659048Y-608714D02*
X2668572Y-627762D01*
X2668572Y-627762D02*
X2668572Y-675381D01*
X2668572Y-675381D02*
X2659048Y-694429D01*
X2659048Y-694429D02*
X2649524Y-703952D01*
X2649524Y-703952D02*
X2630476Y-713476D01*
X2630476Y-713476D02*
X2573333Y-713476D01*
X2573333Y-713476D02*
X2554286Y-703952D01*
X2554286Y-703952D02*
X2544762Y-694429D01*
X2859048Y-713476D02*
X2744762Y-713476D01*
X2801905Y-713476D02*
X2801905Y-513476D01*
X2801905Y-513476D02*
X2782857Y-542048D01*
X2782857Y-542048D02*
X2763810Y-561095D01*
X2763810Y-561095D02*
X2744762Y-570619D01*
X3040000Y-513476D02*
X2944762Y-513476D01*
X2944762Y-513476D02*
X2935238Y-608714D01*
X2935238Y-608714D02*
X2944762Y-599190D01*
X2944762Y-599190D02*
X2963810Y-589667D01*
X2963810Y-589667D02*
X3011429Y-589667D01*
X3011429Y-589667D02*
X3030476Y-599190D01*
X3030476Y-599190D02*
X3040000Y-608714D01*
X3040000Y-608714D02*
X3049524Y-627762D01*
X3049524Y-627762D02*
X3049524Y-675381D01*
X3049524Y-675381D02*
X3040000Y-694429D01*
X3040000Y-694429D02*
X3030476Y-703952D01*
X3030476Y-703952D02*
X3011429Y-713476D01*
X3011429Y-713476D02*
X2963810Y-713476D01*
X2963810Y-713476D02*
X2944762Y-703952D01*
X2944762Y-703952D02*
X2935238Y-694429D01*
X3125714Y-513476D02*
X3125714Y-551571D01*
X3201905Y-513476D02*
X3201905Y-551571D01*
X3464762Y-789667D02*
X3455238Y-780143D01*
X3455238Y-780143D02*
X3436191Y-751571D01*
X3436191Y-751571D02*
X3426667Y-732524D01*
X3426667Y-732524D02*
X3417143Y-703952D01*
X3417143Y-703952D02*
X3407619Y-656333D01*
X3407619Y-656333D02*
X3407619Y-618238D01*
X3407619Y-618238D02*
X3417143Y-570619D01*
X3417143Y-570619D02*
X3426667Y-542048D01*
X3426667Y-542048D02*
X3436191Y-523000D01*
X3436191Y-523000D02*
X3455238Y-494428D01*
X3455238Y-494428D02*
X3464762Y-484905D01*
X3531429Y-532524D02*
X3540952Y-523000D01*
X3540952Y-523000D02*
X3560000Y-513476D01*
X3560000Y-513476D02*
X3607619Y-513476D01*
X3607619Y-513476D02*
X3626667Y-523000D01*
X3626667Y-523000D02*
X3636191Y-532524D01*
X3636191Y-532524D02*
X3645714Y-551571D01*
X3645714Y-551571D02*
X3645714Y-570619D01*
X3645714Y-570619D02*
X3636191Y-599190D01*
X3636191Y-599190D02*
X3521905Y-713476D01*
X3521905Y-713476D02*
X3645714Y-713476D01*
X3769524Y-513476D02*
X3788572Y-513476D01*
X3788572Y-513476D02*
X3807619Y-523000D01*
X3807619Y-523000D02*
X3817143Y-532524D01*
X3817143Y-532524D02*
X3826667Y-551571D01*
X3826667Y-551571D02*
X3836191Y-589667D01*
X3836191Y-589667D02*
X3836191Y-637286D01*
X3836191Y-637286D02*
X3826667Y-675381D01*
X3826667Y-675381D02*
X3817143Y-694429D01*
X3817143Y-694429D02*
X3807619Y-703952D01*
X3807619Y-703952D02*
X3788572Y-713476D01*
X3788572Y-713476D02*
X3769524Y-713476D01*
X3769524Y-713476D02*
X3750476Y-703952D01*
X3750476Y-703952D02*
X3740952Y-694429D01*
X3740952Y-694429D02*
X3731429Y-675381D01*
X3731429Y-675381D02*
X3721905Y-637286D01*
X3721905Y-637286D02*
X3721905Y-589667D01*
X3721905Y-589667D02*
X3731429Y-551571D01*
X3731429Y-551571D02*
X3740952Y-532524D01*
X3740952Y-532524D02*
X3750476Y-523000D01*
X3750476Y-523000D02*
X3769524Y-513476D01*
X4041905Y-713476D02*
X4041905Y-513476D01*
X4127619Y-713476D02*
X4127619Y-608714D01*
X4127619Y-608714D02*
X4118095Y-589667D01*
X4118095Y-589667D02*
X4099048Y-580143D01*
X4099048Y-580143D02*
X4070476Y-580143D01*
X4070476Y-580143D02*
X4051429Y-589667D01*
X4051429Y-589667D02*
X4041905Y-599190D01*
X4251429Y-713476D02*
X4232381Y-703952D01*
X4232381Y-703952D02*
X4222857Y-694429D01*
X4222857Y-694429D02*
X4213334Y-675381D01*
X4213334Y-675381D02*
X4213334Y-618238D01*
X4213334Y-618238D02*
X4222857Y-599190D01*
X4222857Y-599190D02*
X4232381Y-589667D01*
X4232381Y-589667D02*
X4251429Y-580143D01*
X4251429Y-580143D02*
X4280000Y-580143D01*
X4280000Y-580143D02*
X4299048Y-589667D01*
X4299048Y-589667D02*
X4308572Y-599190D01*
X4308572Y-599190D02*
X4318095Y-618238D01*
X4318095Y-618238D02*
X4318095Y-675381D01*
X4318095Y-675381D02*
X4308572Y-694429D01*
X4308572Y-694429D02*
X4299048Y-703952D01*
X4299048Y-703952D02*
X4280000Y-713476D01*
X4280000Y-713476D02*
X4251429Y-713476D01*
X4432381Y-713476D02*
X4413334Y-703952D01*
X4413334Y-703952D02*
X4403810Y-684905D01*
X4403810Y-684905D02*
X4403810Y-513476D01*
X4584762Y-703952D02*
X4565715Y-713476D01*
X4565715Y-713476D02*
X4527619Y-713476D01*
X4527619Y-713476D02*
X4508572Y-703952D01*
X4508572Y-703952D02*
X4499048Y-684905D01*
X4499048Y-684905D02*
X4499048Y-608714D01*
X4499048Y-608714D02*
X4508572Y-589667D01*
X4508572Y-589667D02*
X4527619Y-580143D01*
X4527619Y-580143D02*
X4565715Y-580143D01*
X4565715Y-580143D02*
X4584762Y-589667D01*
X4584762Y-589667D02*
X4594286Y-608714D01*
X4594286Y-608714D02*
X4594286Y-627762D01*
X4594286Y-627762D02*
X4499048Y-646810D01*
X4670476Y-703952D02*
X4689524Y-713476D01*
X4689524Y-713476D02*
X4727619Y-713476D01*
X4727619Y-713476D02*
X4746667Y-703952D01*
X4746667Y-703952D02*
X4756191Y-684905D01*
X4756191Y-684905D02*
X4756191Y-675381D01*
X4756191Y-675381D02*
X4746667Y-656333D01*
X4746667Y-656333D02*
X4727619Y-646810D01*
X4727619Y-646810D02*
X4699048Y-646810D01*
X4699048Y-646810D02*
X4680000Y-637286D01*
X4680000Y-637286D02*
X4670476Y-618238D01*
X4670476Y-618238D02*
X4670476Y-608714D01*
X4670476Y-608714D02*
X4680000Y-589667D01*
X4680000Y-589667D02*
X4699048Y-580143D01*
X4699048Y-580143D02*
X4727619Y-580143D01*
X4727619Y-580143D02*
X4746667Y-589667D01*
X4822857Y-789667D02*
X4832381Y-780143D01*
X4832381Y-780143D02*
X4851429Y-751571D01*
X4851429Y-751571D02*
X4860953Y-732524D01*
X4860953Y-732524D02*
X4870476Y-703952D01*
X4870476Y-703952D02*
X4880000Y-656333D01*
X4880000Y-656333D02*
X4880000Y-618238D01*
X4880000Y-618238D02*
X4870476Y-570619D01*
X4870476Y-570619D02*
X4860953Y-542048D01*
X4860953Y-542048D02*
X4851429Y-523000D01*
X4851429Y-523000D02*
X4832381Y-494428D01*
X4832381Y-494428D02*
X4822857Y-484905D01*
D12*
X0Y-904000D02*
G75*
G03*
X0Y-904000I-50000J0D01*
G01*
D10*
X352381Y-977476D02*
X238095Y-977476D01*
X295238Y-977476D02*
X295238Y-777476D01*
X295238Y-777476D02*
X276190Y-806048D01*
X276190Y-806048D02*
X257143Y-825095D01*
X257143Y-825095D02*
X238095Y-834619D01*
X438095Y-958428D02*
X447619Y-967952D01*
X447619Y-967952D02*
X438095Y-977476D01*
X438095Y-977476D02*
X428571Y-967952D01*
X428571Y-967952D02*
X438095Y-958428D01*
X438095Y-958428D02*
X438095Y-977476D01*
X571429Y-777476D02*
X590476Y-777476D01*
X590476Y-777476D02*
X609524Y-787000D01*
X609524Y-787000D02*
X619048Y-796524D01*
X619048Y-796524D02*
X628571Y-815571D01*
X628571Y-815571D02*
X638095Y-853667D01*
X638095Y-853667D02*
X638095Y-901286D01*
X638095Y-901286D02*
X628571Y-939381D01*
X628571Y-939381D02*
X619048Y-958428D01*
X619048Y-958428D02*
X609524Y-967952D01*
X609524Y-967952D02*
X590476Y-977476D01*
X590476Y-977476D02*
X571429Y-977476D01*
X571429Y-977476D02*
X552381Y-967952D01*
X552381Y-967952D02*
X542857Y-958428D01*
X542857Y-958428D02*
X533333Y-939381D01*
X533333Y-939381D02*
X523809Y-901286D01*
X523809Y-901286D02*
X523809Y-853667D01*
X523809Y-853667D02*
X533333Y-815571D01*
X533333Y-815571D02*
X542857Y-796524D01*
X542857Y-796524D02*
X552381Y-787000D01*
X552381Y-787000D02*
X571429Y-777476D01*
X761905Y-777476D02*
X780952Y-777476D01*
X780952Y-777476D02*
X800000Y-787000D01*
X800000Y-787000D02*
X809524Y-796524D01*
X809524Y-796524D02*
X819048Y-815571D01*
X819048Y-815571D02*
X828571Y-853667D01*
X828571Y-853667D02*
X828571Y-901286D01*
X828571Y-901286D02*
X819048Y-939381D01*
X819048Y-939381D02*
X809524Y-958428D01*
X809524Y-958428D02*
X800000Y-967952D01*
X800000Y-967952D02*
X780952Y-977476D01*
X780952Y-977476D02*
X761905Y-977476D01*
X761905Y-977476D02*
X742857Y-967952D01*
X742857Y-967952D02*
X733333Y-958428D01*
X733333Y-958428D02*
X723809Y-939381D01*
X723809Y-939381D02*
X714286Y-901286D01*
X714286Y-901286D02*
X714286Y-853667D01*
X714286Y-853667D02*
X723809Y-815571D01*
X723809Y-815571D02*
X733333Y-796524D01*
X733333Y-796524D02*
X742857Y-787000D01*
X742857Y-787000D02*
X761905Y-777476D01*
X952381Y-777476D02*
X971429Y-777476D01*
X971429Y-777476D02*
X990476Y-787000D01*
X990476Y-787000D02*
X1000000Y-796524D01*
X1000000Y-796524D02*
X1009524Y-815571D01*
X1009524Y-815571D02*
X1019048Y-853667D01*
X1019048Y-853667D02*
X1019048Y-901286D01*
X1019048Y-901286D02*
X1009524Y-939381D01*
X1009524Y-939381D02*
X1000000Y-958428D01*
X1000000Y-958428D02*
X990476Y-967952D01*
X990476Y-967952D02*
X971429Y-977476D01*
X971429Y-977476D02*
X952381Y-977476D01*
X952381Y-977476D02*
X933333Y-967952D01*
X933333Y-967952D02*
X923809Y-958428D01*
X923809Y-958428D02*
X914286Y-939381D01*
X914286Y-939381D02*
X904762Y-901286D01*
X904762Y-901286D02*
X904762Y-853667D01*
X904762Y-853667D02*
X914286Y-815571D01*
X914286Y-815571D02*
X923809Y-796524D01*
X923809Y-796524D02*
X933333Y-787000D01*
X933333Y-787000D02*
X952381Y-777476D01*
X1104762Y-977476D02*
X1104762Y-844143D01*
X1104762Y-863190D02*
X1114286Y-853667D01*
X1114286Y-853667D02*
X1133333Y-844143D01*
X1133333Y-844143D02*
X1161905Y-844143D01*
X1161905Y-844143D02*
X1180952Y-853667D01*
X1180952Y-853667D02*
X1190476Y-872714D01*
X1190476Y-872714D02*
X1190476Y-977476D01*
X1190476Y-872714D02*
X1200000Y-853667D01*
X1200000Y-853667D02*
X1219048Y-844143D01*
X1219048Y-844143D02*
X1247619Y-844143D01*
X1247619Y-844143D02*
X1266667Y-853667D01*
X1266667Y-853667D02*
X1276191Y-872714D01*
X1276191Y-872714D02*
X1276191Y-977476D01*
X1371429Y-977476D02*
X1371429Y-844143D01*
X1371429Y-863190D02*
X1380952Y-853667D01*
X1380952Y-853667D02*
X1400000Y-844143D01*
X1400000Y-844143D02*
X1428571Y-844143D01*
X1428571Y-844143D02*
X1447619Y-853667D01*
X1447619Y-853667D02*
X1457143Y-872714D01*
X1457143Y-872714D02*
X1457143Y-977476D01*
X1457143Y-872714D02*
X1466667Y-853667D01*
X1466667Y-853667D02*
X1485714Y-844143D01*
X1485714Y-844143D02*
X1514286Y-844143D01*
X1514286Y-844143D02*
X1533333Y-853667D01*
X1533333Y-853667D02*
X1542857Y-872714D01*
X1542857Y-872714D02*
X1542857Y-977476D01*
X1900952Y-767952D02*
X1729524Y-1025095D01*
X2125714Y-777476D02*
X2144762Y-777476D01*
X2144762Y-777476D02*
X2163810Y-787000D01*
X2163810Y-787000D02*
X2173333Y-796524D01*
X2173333Y-796524D02*
X2182857Y-815571D01*
X2182857Y-815571D02*
X2192381Y-853667D01*
X2192381Y-853667D02*
X2192381Y-901286D01*
X2192381Y-901286D02*
X2182857Y-939381D01*
X2182857Y-939381D02*
X2173333Y-958428D01*
X2173333Y-958428D02*
X2163810Y-967952D01*
X2163810Y-967952D02*
X2144762Y-977476D01*
X2144762Y-977476D02*
X2125714Y-977476D01*
X2125714Y-977476D02*
X2106667Y-967952D01*
X2106667Y-967952D02*
X2097143Y-958428D01*
X2097143Y-958428D02*
X2087619Y-939381D01*
X2087619Y-939381D02*
X2078095Y-901286D01*
X2078095Y-901286D02*
X2078095Y-853667D01*
X2078095Y-853667D02*
X2087619Y-815571D01*
X2087619Y-815571D02*
X2097143Y-796524D01*
X2097143Y-796524D02*
X2106667Y-787000D01*
X2106667Y-787000D02*
X2125714Y-777476D01*
X2278095Y-958428D02*
X2287619Y-967952D01*
X2287619Y-967952D02*
X2278095Y-977476D01*
X2278095Y-977476D02*
X2268572Y-967952D01*
X2268572Y-967952D02*
X2278095Y-958428D01*
X2278095Y-958428D02*
X2278095Y-977476D01*
X2411429Y-777476D02*
X2430476Y-777476D01*
X2430476Y-777476D02*
X2449524Y-787000D01*
X2449524Y-787000D02*
X2459048Y-796524D01*
X2459048Y-796524D02*
X2468572Y-815571D01*
X2468572Y-815571D02*
X2478095Y-853667D01*
X2478095Y-853667D02*
X2478095Y-901286D01*
X2478095Y-901286D02*
X2468572Y-939381D01*
X2468572Y-939381D02*
X2459048Y-958428D01*
X2459048Y-958428D02*
X2449524Y-967952D01*
X2449524Y-967952D02*
X2430476Y-977476D01*
X2430476Y-977476D02*
X2411429Y-977476D01*
X2411429Y-977476D02*
X2392381Y-967952D01*
X2392381Y-967952D02*
X2382857Y-958428D01*
X2382857Y-958428D02*
X2373333Y-939381D01*
X2373333Y-939381D02*
X2363810Y-901286D01*
X2363810Y-901286D02*
X2363810Y-853667D01*
X2363810Y-853667D02*
X2373333Y-815571D01*
X2373333Y-815571D02*
X2382857Y-796524D01*
X2382857Y-796524D02*
X2392381Y-787000D01*
X2392381Y-787000D02*
X2411429Y-777476D01*
X2544762Y-777476D02*
X2668572Y-777476D01*
X2668572Y-777476D02*
X2601905Y-853667D01*
X2601905Y-853667D02*
X2630476Y-853667D01*
X2630476Y-853667D02*
X2649524Y-863190D01*
X2649524Y-863190D02*
X2659048Y-872714D01*
X2659048Y-872714D02*
X2668572Y-891762D01*
X2668572Y-891762D02*
X2668572Y-939381D01*
X2668572Y-939381D02*
X2659048Y-958428D01*
X2659048Y-958428D02*
X2649524Y-967952D01*
X2649524Y-967952D02*
X2630476Y-977476D01*
X2630476Y-977476D02*
X2573333Y-977476D01*
X2573333Y-977476D02*
X2554286Y-967952D01*
X2554286Y-967952D02*
X2544762Y-958428D01*
X2763810Y-977476D02*
X2801905Y-977476D01*
X2801905Y-977476D02*
X2820952Y-967952D01*
X2820952Y-967952D02*
X2830476Y-958428D01*
X2830476Y-958428D02*
X2849524Y-929857D01*
X2849524Y-929857D02*
X2859048Y-891762D01*
X2859048Y-891762D02*
X2859048Y-815571D01*
X2859048Y-815571D02*
X2849524Y-796524D01*
X2849524Y-796524D02*
X2840000Y-787000D01*
X2840000Y-787000D02*
X2820952Y-777476D01*
X2820952Y-777476D02*
X2782857Y-777476D01*
X2782857Y-777476D02*
X2763810Y-787000D01*
X2763810Y-787000D02*
X2754286Y-796524D01*
X2754286Y-796524D02*
X2744762Y-815571D01*
X2744762Y-815571D02*
X2744762Y-863190D01*
X2744762Y-863190D02*
X2754286Y-882238D01*
X2754286Y-882238D02*
X2763810Y-891762D01*
X2763810Y-891762D02*
X2782857Y-901286D01*
X2782857Y-901286D02*
X2820952Y-901286D01*
X2820952Y-901286D02*
X2840000Y-891762D01*
X2840000Y-891762D02*
X2849524Y-882238D01*
X2849524Y-882238D02*
X2859048Y-863190D01*
X3030476Y-844143D02*
X3030476Y-977476D01*
X2982857Y-767952D02*
X2935238Y-910809D01*
X2935238Y-910809D02*
X3059048Y-910809D01*
X3125714Y-777476D02*
X3125714Y-815571D01*
X3201905Y-777476D02*
X3201905Y-815571D01*
X3464762Y-1053667D02*
X3455238Y-1044143D01*
X3455238Y-1044143D02*
X3436191Y-1015571D01*
X3436191Y-1015571D02*
X3426667Y-996524D01*
X3426667Y-996524D02*
X3417143Y-967952D01*
X3417143Y-967952D02*
X3407619Y-920333D01*
X3407619Y-920333D02*
X3407619Y-882238D01*
X3407619Y-882238D02*
X3417143Y-834619D01*
X3417143Y-834619D02*
X3426667Y-806048D01*
X3426667Y-806048D02*
X3436191Y-787000D01*
X3436191Y-787000D02*
X3455238Y-758428D01*
X3455238Y-758428D02*
X3464762Y-748905D01*
X3626667Y-777476D02*
X3588571Y-777476D01*
X3588571Y-777476D02*
X3569524Y-787000D01*
X3569524Y-787000D02*
X3560000Y-796524D01*
X3560000Y-796524D02*
X3540952Y-825095D01*
X3540952Y-825095D02*
X3531429Y-863190D01*
X3531429Y-863190D02*
X3531429Y-939381D01*
X3531429Y-939381D02*
X3540952Y-958428D01*
X3540952Y-958428D02*
X3550476Y-967952D01*
X3550476Y-967952D02*
X3569524Y-977476D01*
X3569524Y-977476D02*
X3607619Y-977476D01*
X3607619Y-977476D02*
X3626667Y-967952D01*
X3626667Y-967952D02*
X3636191Y-958428D01*
X3636191Y-958428D02*
X3645714Y-939381D01*
X3645714Y-939381D02*
X3645714Y-891762D01*
X3645714Y-891762D02*
X3636191Y-872714D01*
X3636191Y-872714D02*
X3626667Y-863190D01*
X3626667Y-863190D02*
X3607619Y-853667D01*
X3607619Y-853667D02*
X3569524Y-853667D01*
X3569524Y-853667D02*
X3550476Y-863190D01*
X3550476Y-863190D02*
X3540952Y-872714D01*
X3540952Y-872714D02*
X3531429Y-891762D01*
X3851429Y-977476D02*
X3851429Y-777476D01*
X3937143Y-977476D02*
X3937143Y-872714D01*
X3937143Y-872714D02*
X3927619Y-853667D01*
X3927619Y-853667D02*
X3908572Y-844143D01*
X3908572Y-844143D02*
X3880000Y-844143D01*
X3880000Y-844143D02*
X3860952Y-853667D01*
X3860952Y-853667D02*
X3851429Y-863190D01*
X4060952Y-977476D02*
X4041905Y-967952D01*
X4041905Y-967952D02*
X4032381Y-958428D01*
X4032381Y-958428D02*
X4022857Y-939381D01*
X4022857Y-939381D02*
X4022857Y-882238D01*
X4022857Y-882238D02*
X4032381Y-863190D01*
X4032381Y-863190D02*
X4041905Y-853667D01*
X4041905Y-853667D02*
X4060952Y-844143D01*
X4060952Y-844143D02*
X4089524Y-844143D01*
X4089524Y-844143D02*
X4108572Y-853667D01*
X4108572Y-853667D02*
X4118095Y-863190D01*
X4118095Y-863190D02*
X4127619Y-882238D01*
X4127619Y-882238D02*
X4127619Y-939381D01*
X4127619Y-939381D02*
X4118095Y-958428D01*
X4118095Y-958428D02*
X4108572Y-967952D01*
X4108572Y-967952D02*
X4089524Y-977476D01*
X4089524Y-977476D02*
X4060952Y-977476D01*
X4241905Y-977476D02*
X4222857Y-967952D01*
X4222857Y-967952D02*
X4213334Y-948905D01*
X4213334Y-948905D02*
X4213334Y-777476D01*
X4394286Y-967952D02*
X4375238Y-977476D01*
X4375238Y-977476D02*
X4337143Y-977476D01*
X4337143Y-977476D02*
X4318095Y-967952D01*
X4318095Y-967952D02*
X4308572Y-948905D01*
X4308572Y-948905D02*
X4308572Y-872714D01*
X4308572Y-872714D02*
X4318095Y-853667D01*
X4318095Y-853667D02*
X4337143Y-844143D01*
X4337143Y-844143D02*
X4375238Y-844143D01*
X4375238Y-844143D02*
X4394286Y-853667D01*
X4394286Y-853667D02*
X4403810Y-872714D01*
X4403810Y-872714D02*
X4403810Y-891762D01*
X4403810Y-891762D02*
X4308572Y-910809D01*
X4480000Y-967952D02*
X4499048Y-977476D01*
X4499048Y-977476D02*
X4537143Y-977476D01*
X4537143Y-977476D02*
X4556191Y-967952D01*
X4556191Y-967952D02*
X4565715Y-948905D01*
X4565715Y-948905D02*
X4565715Y-939381D01*
X4565715Y-939381D02*
X4556191Y-920333D01*
X4556191Y-920333D02*
X4537143Y-910809D01*
X4537143Y-910809D02*
X4508572Y-910809D01*
X4508572Y-910809D02*
X4489524Y-901286D01*
X4489524Y-901286D02*
X4480000Y-882238D01*
X4480000Y-882238D02*
X4480000Y-872714D01*
X4480000Y-872714D02*
X4489524Y-853667D01*
X4489524Y-853667D02*
X4508572Y-844143D01*
X4508572Y-844143D02*
X4537143Y-844143D01*
X4537143Y-844143D02*
X4556191Y-853667D01*
X4632381Y-1053667D02*
X4641905Y-1044143D01*
X4641905Y-1044143D02*
X4660953Y-1015571D01*
X4660953Y-1015571D02*
X4670476Y-996524D01*
X4670476Y-996524D02*
X4680000Y-967952D01*
X4680000Y-967952D02*
X4689524Y-920333D01*
X4689524Y-920333D02*
X4689524Y-882238D01*
X4689524Y-882238D02*
X4680000Y-834619D01*
X4680000Y-834619D02*
X4670476Y-806048D01*
X4670476Y-806048D02*
X4660953Y-787000D01*
X4660953Y-787000D02*
X4641905Y-758428D01*
X4641905Y-758428D02*
X4632381Y-748905D01*
M02*
