%TF.GenerationSoftware,KiCad,Pcbnew,7.0.8*%
%TF.CreationDate,2024-01-26T14:13:43-05:00*%
%TF.ProjectId,Voltage_Reg_1V,566f6c74-6167-4655-9f52-65675f31562e,rev?*%
%TF.SameCoordinates,Original*%
%TF.FileFunction,Copper,L1,Top*%
%TF.FilePolarity,Positive*%
%FSLAX46Y46*%
G04 Gerber Fmt 4.6, Leading zero omitted, Abs format (unit mm)*
G04 Created by KiCad (PCBNEW 7.0.8) date 2024-01-26 14:13:43*
%MOMM*%
%LPD*%
G01*
G04 APERTURE LIST*
%TA.AperFunction,NonConductor*%
%ADD10C,0.200000*%
%TD*%
%TA.AperFunction,ComponentPad*%
%ADD11R,2.030000X1.730000*%
%TD*%
%TA.AperFunction,ComponentPad*%
%ADD12O,2.030000X1.730000*%
%TD*%
%TA.AperFunction,SMDPad,CuDef*%
%ADD13R,0.449999X0.299999*%
%TD*%
%TA.AperFunction,SMDPad,CuDef*%
%ADD14R,1.000000X1.599999*%
%TD*%
%TA.AperFunction,ComponentPad*%
%ADD15C,0.499999*%
%TD*%
%TA.AperFunction,Conductor*%
%ADD16C,0.250000*%
%TD*%
G04 APERTURE END LIST*
D10*
X52070000Y-43180000D02*
X76200000Y-43180000D01*
X76200000Y-53340000D01*
X52070000Y-53340000D01*
X52070000Y-43180000D01*
D11*
%TO.P,REF\u002A\u002A,1*%
%TO.N,N/C*%
X71120000Y-50800000D03*
D12*
%TO.P,REF\u002A\u002A,2*%
X71120000Y-48260000D03*
%TO.P,REF\u002A\u002A,3*%
X71120000Y-45720000D03*
%TD*%
D11*
%TO.P,REF\u002A\u002A,1*%
%TO.N,N/C*%
X55880000Y-50800000D03*
D12*
%TO.P,REF\u002A\u002A,2*%
X55880000Y-48260000D03*
%TO.P,REF\u002A\u002A,3*%
X55880000Y-45720000D03*
%TD*%
D13*
%TO.P,REF\u002A\u002A,1*%
%TO.N,N/C*%
X63500000Y-45069999D03*
%TO.P,REF\u002A\u002A,2*%
X63500000Y-45720000D03*
%TO.P,REF\u002A\u002A,3*%
X63500000Y-46369999D03*
%TO.P,REF\u002A\u002A,4*%
X65449998Y-46369999D03*
%TO.P,REF\u002A\u002A,5*%
X65449998Y-45720000D03*
%TO.P,REF\u002A\u002A,6*%
X65449998Y-45069999D03*
D14*
%TO.P,REF\u002A\u002A,7*%
X64474999Y-45720000D03*
D15*
%TO.P,REF\u002A\u002A,V*%
X64474999Y-45170001D03*
X64474999Y-46269999D03*
%TD*%
D16*
%TO.N,*%
X58166000Y-50800000D02*
X55880000Y-50800000D01*
X62596001Y-46369999D02*
X58166000Y-50800000D01*
X63500000Y-46369999D02*
X62596001Y-46369999D01*
X59436000Y-48260000D02*
X55880000Y-48260000D01*
X61976000Y-45720000D02*
X59436000Y-48260000D01*
X63500000Y-45720000D02*
X61976000Y-45720000D01*
X60960000Y-45720000D02*
X55880000Y-45720000D01*
X61610001Y-45069999D02*
X60960000Y-45720000D01*
X63500000Y-45069999D02*
X61610001Y-45069999D01*
X70358000Y-50800000D02*
X71120000Y-50800000D01*
X65927999Y-46369999D02*
X70358000Y-50800000D01*
X65449998Y-46369999D02*
X65927999Y-46369999D01*
X69342000Y-48260000D02*
X71120000Y-48260000D01*
X66802000Y-45720000D02*
X69342000Y-48260000D01*
X65449998Y-45720000D02*
X66802000Y-45720000D01*
X68072000Y-45720000D02*
X71120000Y-45720000D01*
X67421999Y-45069999D02*
X68072000Y-45720000D01*
X65449998Y-45069999D02*
X67421999Y-45069999D01*
%TD*%
M02*
