%TF.GenerationSoftware,KiCad,Pcbnew,7.0.8*%
%TF.CreationDate,2024-01-24T18:28:45-05:00*%
%TF.ProjectId,SupervisoryCircuitPCB,53757065-7276-4697-936f-727943697263,rev?*%
%TF.SameCoordinates,Original*%
%TF.FileFunction,Copper,L1,Top*%
%TF.FilePolarity,Positive*%
%FSLAX46Y46*%
G04 Gerber Fmt 4.6, Leading zero omitted, Abs format (unit mm)*
G04 Created by KiCad (PCBNEW 7.0.8) date 2024-01-24 18:28:45*
%MOMM*%
%LPD*%
G01*
G04 APERTURE LIST*
%TA.AperFunction,ComponentPad*%
%ADD10R,2.030000X1.730000*%
%TD*%
%TA.AperFunction,ComponentPad*%
%ADD11O,2.030000X1.730000*%
%TD*%
%TA.AperFunction,SMDPad,CuDef*%
%ADD12R,1.854200X0.558800*%
%TD*%
%TA.AperFunction,Conductor*%
%ADD13C,0.762000*%
%TD*%
%TA.AperFunction,Profile*%
%ADD14C,0.200000*%
%TD*%
G04 APERTURE END LIST*
D10*
%TO.P,REF\u002A\u002A,1*%
%TO.N,N/C*%
X76200000Y-68580000D03*
D11*
%TO.P,REF\u002A\u002A,2*%
X76200000Y-71120000D03*
%TO.P,REF\u002A\u002A,3*%
X76200000Y-73660000D03*
%TO.P,REF\u002A\u002A,4*%
X76200000Y-76200000D03*
%TD*%
D12*
%TO.P,REF\u002A\u002A,1*%
%TO.N,N/C*%
X81089500Y-69215000D03*
%TO.P,REF\u002A\u002A,2*%
X81089500Y-70485000D03*
%TO.P,REF\u002A\u002A,3*%
X81089500Y-71755000D03*
%TO.P,REF\u002A\u002A,4*%
X81089500Y-73025000D03*
%TO.P,REF\u002A\u002A,5*%
X86550500Y-73025000D03*
%TO.P,REF\u002A\u002A,6*%
X86550500Y-71755000D03*
%TO.P,REF\u002A\u002A,7*%
X86550500Y-70485000D03*
%TO.P,REF\u002A\u002A,8*%
X86550500Y-69215000D03*
%TD*%
D10*
%TO.P,REF\u002A\u002A,1*%
%TO.N,N/C*%
X91440000Y-76200000D03*
D11*
%TO.P,REF\u002A\u002A,2*%
X91440000Y-73660000D03*
%TO.P,REF\u002A\u002A,3*%
X91440000Y-71120000D03*
%TO.P,REF\u002A\u002A,4*%
X91440000Y-68580000D03*
%TD*%
D13*
%TO.N,*%
X86550500Y-71755000D02*
X89535000Y-71755000D01*
X76200000Y-76200000D02*
X77914500Y-76200000D01*
X76200000Y-68580000D02*
X80454500Y-68580000D01*
X90805000Y-70485000D02*
X91440000Y-71120000D01*
X91440000Y-76200000D02*
X89725500Y-76200000D01*
X78105000Y-71755000D02*
X76200000Y-73660000D01*
X77914500Y-76200000D02*
X81089500Y-73025000D01*
X80454500Y-68580000D02*
X81089500Y-69215000D01*
X87185500Y-68580000D02*
X86550500Y-69215000D01*
X91440000Y-68580000D02*
X87185500Y-68580000D01*
X81089500Y-70485000D02*
X76835000Y-70485000D01*
X81089500Y-71755000D02*
X78105000Y-71755000D01*
X89725500Y-76200000D02*
X86550500Y-73025000D01*
X89535000Y-71755000D02*
X91440000Y-73660000D01*
X86550500Y-70485000D02*
X90805000Y-70485000D01*
X76835000Y-70485000D02*
X76200000Y-71120000D01*
%TD*%
D14*
X71120000Y-66040000D02*
X96520000Y-66040000D01*
X96520000Y-78740000D01*
X71120000Y-78740000D01*
X71120000Y-66040000D01*
M02*
