%TF.GenerationSoftware,KiCad,Pcbnew,7.0.8*%
%TF.CreationDate,2024-01-23T15:03:54-05:00*%
%TF.ProjectId,SupervisoryCircuitPCB,53757065-7276-4697-936f-727943697263,rev?*%
%TF.SameCoordinates,Original*%
%TF.FileFunction,Drillmap*%
%TF.FilePolarity,Positive*%
%FSLAX45Y45*%
G04 Gerber Fmt 4.5, Leading zero omitted, Abs format (unit mm)*
G04 Created by KiCad (PCBNEW 7.0.8) date 2024-01-23 15:03:54*
%MOMM*%
%LPD*%
G01*
G04 APERTURE LIST*
%ADD10C,0.200000*%
%ADD11C,0.110000*%
G04 APERTURE END LIST*
D10*
D11*
X7527000Y-7311000D02*
X7637000Y-7421000D01*
X7637000Y-7311000D02*
X7527000Y-7421000D01*
X8873000Y-7057000D02*
X8983000Y-7167000D01*
X8983000Y-7057000D02*
X8873000Y-7167000D01*
D10*
X260777Y-311484D02*
X260777Y-111484D01*
X260777Y-111484D02*
X308396Y-111484D01*
X308396Y-111484D02*
X336967Y-121008D01*
X336967Y-121008D02*
X356015Y-140055D01*
X356015Y-140055D02*
X365539Y-159103D01*
X365539Y-159103D02*
X375062Y-197198D01*
X375062Y-197198D02*
X375062Y-225769D01*
X375062Y-225769D02*
X365539Y-263865D01*
X365539Y-263865D02*
X356015Y-282912D01*
X356015Y-282912D02*
X336967Y-301960D01*
X336967Y-301960D02*
X308396Y-311484D01*
X308396Y-311484D02*
X260777Y-311484D01*
X460777Y-311484D02*
X460777Y-178150D01*
X460777Y-216246D02*
X470301Y-197198D01*
X470301Y-197198D02*
X479824Y-187674D01*
X479824Y-187674D02*
X498872Y-178150D01*
X498872Y-178150D02*
X517920Y-178150D01*
X584586Y-311484D02*
X584586Y-178150D01*
X584586Y-111484D02*
X575063Y-121008D01*
X575063Y-121008D02*
X584586Y-130531D01*
X584586Y-130531D02*
X594110Y-121008D01*
X594110Y-121008D02*
X584586Y-111484D01*
X584586Y-111484D02*
X584586Y-130531D01*
X708396Y-311484D02*
X689348Y-301960D01*
X689348Y-301960D02*
X679824Y-282912D01*
X679824Y-282912D02*
X679824Y-111484D01*
X813158Y-311484D02*
X794110Y-301960D01*
X794110Y-301960D02*
X784586Y-282912D01*
X784586Y-282912D02*
X784586Y-111484D01*
X1041729Y-311484D02*
X1041729Y-111484D01*
X1041729Y-111484D02*
X1108396Y-254341D01*
X1108396Y-254341D02*
X1175063Y-111484D01*
X1175063Y-111484D02*
X1175063Y-311484D01*
X1356015Y-311484D02*
X1356015Y-206722D01*
X1356015Y-206722D02*
X1346491Y-187674D01*
X1346491Y-187674D02*
X1327444Y-178150D01*
X1327444Y-178150D02*
X1289348Y-178150D01*
X1289348Y-178150D02*
X1270301Y-187674D01*
X1356015Y-301960D02*
X1336967Y-311484D01*
X1336967Y-311484D02*
X1289348Y-311484D01*
X1289348Y-311484D02*
X1270301Y-301960D01*
X1270301Y-301960D02*
X1260777Y-282912D01*
X1260777Y-282912D02*
X1260777Y-263865D01*
X1260777Y-263865D02*
X1270301Y-244817D01*
X1270301Y-244817D02*
X1289348Y-235293D01*
X1289348Y-235293D02*
X1336967Y-235293D01*
X1336967Y-235293D02*
X1356015Y-225769D01*
X1451253Y-178150D02*
X1451253Y-378150D01*
X1451253Y-187674D02*
X1470301Y-178150D01*
X1470301Y-178150D02*
X1508396Y-178150D01*
X1508396Y-178150D02*
X1527443Y-187674D01*
X1527443Y-187674D02*
X1536967Y-197198D01*
X1536967Y-197198D02*
X1546491Y-216246D01*
X1546491Y-216246D02*
X1546491Y-273389D01*
X1546491Y-273389D02*
X1536967Y-292436D01*
X1536967Y-292436D02*
X1527443Y-301960D01*
X1527443Y-301960D02*
X1508396Y-311484D01*
X1508396Y-311484D02*
X1470301Y-311484D01*
X1470301Y-311484D02*
X1451253Y-301960D01*
X1632205Y-292436D02*
X1641729Y-301960D01*
X1641729Y-301960D02*
X1632205Y-311484D01*
X1632205Y-311484D02*
X1622682Y-301960D01*
X1622682Y-301960D02*
X1632205Y-292436D01*
X1632205Y-292436D02*
X1632205Y-311484D01*
X1632205Y-187674D02*
X1641729Y-197198D01*
X1641729Y-197198D02*
X1632205Y-206722D01*
X1632205Y-206722D02*
X1622682Y-197198D01*
X1622682Y-197198D02*
X1632205Y-187674D01*
X1632205Y-187674D02*
X1632205Y-206722D01*
D11*
X-110000Y-585000D02*
X0Y-695000D01*
X0Y-585000D02*
X-110000Y-695000D01*
D10*
X365539Y-731484D02*
X251253Y-731484D01*
X308396Y-731484D02*
X308396Y-531484D01*
X308396Y-531484D02*
X289348Y-560055D01*
X289348Y-560055D02*
X270301Y-579103D01*
X270301Y-579103D02*
X251253Y-588627D01*
X451253Y-712436D02*
X460777Y-721960D01*
X460777Y-721960D02*
X451253Y-731484D01*
X451253Y-731484D02*
X441729Y-721960D01*
X441729Y-721960D02*
X451253Y-712436D01*
X451253Y-712436D02*
X451253Y-731484D01*
X651253Y-731484D02*
X536967Y-731484D01*
X594110Y-731484D02*
X594110Y-531484D01*
X594110Y-531484D02*
X575063Y-560055D01*
X575063Y-560055D02*
X556015Y-579103D01*
X556015Y-579103D02*
X536967Y-588627D01*
X775062Y-531484D02*
X794110Y-531484D01*
X794110Y-531484D02*
X813158Y-541008D01*
X813158Y-541008D02*
X822682Y-550531D01*
X822682Y-550531D02*
X832205Y-569579D01*
X832205Y-569579D02*
X841729Y-607674D01*
X841729Y-607674D02*
X841729Y-655293D01*
X841729Y-655293D02*
X832205Y-693389D01*
X832205Y-693389D02*
X822682Y-712436D01*
X822682Y-712436D02*
X813158Y-721960D01*
X813158Y-721960D02*
X794110Y-731484D01*
X794110Y-731484D02*
X775062Y-731484D01*
X775062Y-731484D02*
X756015Y-721960D01*
X756015Y-721960D02*
X746491Y-712436D01*
X746491Y-712436D02*
X736967Y-693389D01*
X736967Y-693389D02*
X727443Y-655293D01*
X727443Y-655293D02*
X727443Y-607674D01*
X727443Y-607674D02*
X736967Y-569579D01*
X736967Y-569579D02*
X746491Y-550531D01*
X746491Y-550531D02*
X756015Y-541008D01*
X756015Y-541008D02*
X775062Y-531484D01*
X965539Y-531484D02*
X984586Y-531484D01*
X984586Y-531484D02*
X1003634Y-541008D01*
X1003634Y-541008D02*
X1013158Y-550531D01*
X1013158Y-550531D02*
X1022682Y-569579D01*
X1022682Y-569579D02*
X1032205Y-607674D01*
X1032205Y-607674D02*
X1032205Y-655293D01*
X1032205Y-655293D02*
X1022682Y-693389D01*
X1022682Y-693389D02*
X1013158Y-712436D01*
X1013158Y-712436D02*
X1003634Y-721960D01*
X1003634Y-721960D02*
X984586Y-731484D01*
X984586Y-731484D02*
X965539Y-731484D01*
X965539Y-731484D02*
X946491Y-721960D01*
X946491Y-721960D02*
X936967Y-712436D01*
X936967Y-712436D02*
X927443Y-693389D01*
X927443Y-693389D02*
X917920Y-655293D01*
X917920Y-655293D02*
X917920Y-607674D01*
X917920Y-607674D02*
X927443Y-569579D01*
X927443Y-569579D02*
X936967Y-550531D01*
X936967Y-550531D02*
X946491Y-541008D01*
X946491Y-541008D02*
X965539Y-531484D01*
X1117920Y-731484D02*
X1117920Y-598150D01*
X1117920Y-617198D02*
X1127444Y-607674D01*
X1127444Y-607674D02*
X1146491Y-598150D01*
X1146491Y-598150D02*
X1175063Y-598150D01*
X1175063Y-598150D02*
X1194110Y-607674D01*
X1194110Y-607674D02*
X1203634Y-626722D01*
X1203634Y-626722D02*
X1203634Y-731484D01*
X1203634Y-626722D02*
X1213158Y-607674D01*
X1213158Y-607674D02*
X1232205Y-598150D01*
X1232205Y-598150D02*
X1260777Y-598150D01*
X1260777Y-598150D02*
X1279825Y-607674D01*
X1279825Y-607674D02*
X1289348Y-626722D01*
X1289348Y-626722D02*
X1289348Y-731484D01*
X1384586Y-731484D02*
X1384586Y-598150D01*
X1384586Y-617198D02*
X1394110Y-607674D01*
X1394110Y-607674D02*
X1413158Y-598150D01*
X1413158Y-598150D02*
X1441729Y-598150D01*
X1441729Y-598150D02*
X1460777Y-607674D01*
X1460777Y-607674D02*
X1470301Y-626722D01*
X1470301Y-626722D02*
X1470301Y-731484D01*
X1470301Y-626722D02*
X1479824Y-607674D01*
X1479824Y-607674D02*
X1498872Y-598150D01*
X1498872Y-598150D02*
X1527443Y-598150D01*
X1527443Y-598150D02*
X1546491Y-607674D01*
X1546491Y-607674D02*
X1556015Y-626722D01*
X1556015Y-626722D02*
X1556015Y-731484D01*
X1946491Y-521960D02*
X1775063Y-779103D01*
X2203634Y-531484D02*
X2222682Y-531484D01*
X2222682Y-531484D02*
X2241729Y-541008D01*
X2241729Y-541008D02*
X2251253Y-550531D01*
X2251253Y-550531D02*
X2260777Y-569579D01*
X2260777Y-569579D02*
X2270301Y-607674D01*
X2270301Y-607674D02*
X2270301Y-655293D01*
X2270301Y-655293D02*
X2260777Y-693389D01*
X2260777Y-693389D02*
X2251253Y-712436D01*
X2251253Y-712436D02*
X2241729Y-721960D01*
X2241729Y-721960D02*
X2222682Y-731484D01*
X2222682Y-731484D02*
X2203634Y-731484D01*
X2203634Y-731484D02*
X2184587Y-721960D01*
X2184587Y-721960D02*
X2175063Y-712436D01*
X2175063Y-712436D02*
X2165539Y-693389D01*
X2165539Y-693389D02*
X2156015Y-655293D01*
X2156015Y-655293D02*
X2156015Y-607674D01*
X2156015Y-607674D02*
X2165539Y-569579D01*
X2165539Y-569579D02*
X2175063Y-550531D01*
X2175063Y-550531D02*
X2184587Y-541008D01*
X2184587Y-541008D02*
X2203634Y-531484D01*
X2356015Y-712436D02*
X2365539Y-721960D01*
X2365539Y-721960D02*
X2356015Y-731484D01*
X2356015Y-731484D02*
X2346491Y-721960D01*
X2346491Y-721960D02*
X2356015Y-712436D01*
X2356015Y-712436D02*
X2356015Y-731484D01*
X2489348Y-531484D02*
X2508396Y-531484D01*
X2508396Y-531484D02*
X2527444Y-541008D01*
X2527444Y-541008D02*
X2536968Y-550531D01*
X2536968Y-550531D02*
X2546491Y-569579D01*
X2546491Y-569579D02*
X2556015Y-607674D01*
X2556015Y-607674D02*
X2556015Y-655293D01*
X2556015Y-655293D02*
X2546491Y-693389D01*
X2546491Y-693389D02*
X2536968Y-712436D01*
X2536968Y-712436D02*
X2527444Y-721960D01*
X2527444Y-721960D02*
X2508396Y-731484D01*
X2508396Y-731484D02*
X2489348Y-731484D01*
X2489348Y-731484D02*
X2470301Y-721960D01*
X2470301Y-721960D02*
X2460777Y-712436D01*
X2460777Y-712436D02*
X2451253Y-693389D01*
X2451253Y-693389D02*
X2441729Y-655293D01*
X2441729Y-655293D02*
X2441729Y-607674D01*
X2441729Y-607674D02*
X2451253Y-569579D01*
X2451253Y-569579D02*
X2460777Y-550531D01*
X2460777Y-550531D02*
X2470301Y-541008D01*
X2470301Y-541008D02*
X2489348Y-531484D01*
X2727444Y-598150D02*
X2727444Y-731484D01*
X2679825Y-521960D02*
X2632206Y-664817D01*
X2632206Y-664817D02*
X2756015Y-664817D01*
X2813158Y-531484D02*
X2936967Y-531484D01*
X2936967Y-531484D02*
X2870301Y-607674D01*
X2870301Y-607674D02*
X2898872Y-607674D01*
X2898872Y-607674D02*
X2917920Y-617198D01*
X2917920Y-617198D02*
X2927444Y-626722D01*
X2927444Y-626722D02*
X2936967Y-645770D01*
X2936967Y-645770D02*
X2936967Y-693389D01*
X2936967Y-693389D02*
X2927444Y-712436D01*
X2927444Y-712436D02*
X2917920Y-721960D01*
X2917920Y-721960D02*
X2898872Y-731484D01*
X2898872Y-731484D02*
X2841729Y-731484D01*
X2841729Y-731484D02*
X2822682Y-721960D01*
X2822682Y-721960D02*
X2813158Y-712436D01*
X3003634Y-531484D02*
X3127444Y-531484D01*
X3127444Y-531484D02*
X3060777Y-607674D01*
X3060777Y-607674D02*
X3089348Y-607674D01*
X3089348Y-607674D02*
X3108396Y-617198D01*
X3108396Y-617198D02*
X3117920Y-626722D01*
X3117920Y-626722D02*
X3127444Y-645770D01*
X3127444Y-645770D02*
X3127444Y-693389D01*
X3127444Y-693389D02*
X3117920Y-712436D01*
X3117920Y-712436D02*
X3108396Y-721960D01*
X3108396Y-721960D02*
X3089348Y-731484D01*
X3089348Y-731484D02*
X3032206Y-731484D01*
X3032206Y-731484D02*
X3013158Y-721960D01*
X3013158Y-721960D02*
X3003634Y-712436D01*
X3203634Y-531484D02*
X3203634Y-569579D01*
X3279825Y-531484D02*
X3279825Y-569579D01*
X3575063Y-807674D02*
X3565539Y-798150D01*
X3565539Y-798150D02*
X3546491Y-769579D01*
X3546491Y-769579D02*
X3536968Y-750531D01*
X3536968Y-750531D02*
X3527444Y-721960D01*
X3527444Y-721960D02*
X3517920Y-674341D01*
X3517920Y-674341D02*
X3517920Y-636246D01*
X3517920Y-636246D02*
X3527444Y-588627D01*
X3527444Y-588627D02*
X3536968Y-560055D01*
X3536968Y-560055D02*
X3546491Y-541008D01*
X3546491Y-541008D02*
X3565539Y-512436D01*
X3565539Y-512436D02*
X3575063Y-502912D01*
X3641729Y-550531D02*
X3651253Y-541008D01*
X3651253Y-541008D02*
X3670301Y-531484D01*
X3670301Y-531484D02*
X3717920Y-531484D01*
X3717920Y-531484D02*
X3736968Y-541008D01*
X3736968Y-541008D02*
X3746491Y-550531D01*
X3746491Y-550531D02*
X3756015Y-569579D01*
X3756015Y-569579D02*
X3756015Y-588627D01*
X3756015Y-588627D02*
X3746491Y-617198D01*
X3746491Y-617198D02*
X3632206Y-731484D01*
X3632206Y-731484D02*
X3756015Y-731484D01*
X3994110Y-731484D02*
X3994110Y-531484D01*
X4079825Y-731484D02*
X4079825Y-626722D01*
X4079825Y-626722D02*
X4070301Y-607674D01*
X4070301Y-607674D02*
X4051253Y-598150D01*
X4051253Y-598150D02*
X4022682Y-598150D01*
X4022682Y-598150D02*
X4003634Y-607674D01*
X4003634Y-607674D02*
X3994110Y-617198D01*
X4203634Y-731484D02*
X4184587Y-721960D01*
X4184587Y-721960D02*
X4175063Y-712436D01*
X4175063Y-712436D02*
X4165539Y-693389D01*
X4165539Y-693389D02*
X4165539Y-636246D01*
X4165539Y-636246D02*
X4175063Y-617198D01*
X4175063Y-617198D02*
X4184587Y-607674D01*
X4184587Y-607674D02*
X4203634Y-598150D01*
X4203634Y-598150D02*
X4232206Y-598150D01*
X4232206Y-598150D02*
X4251253Y-607674D01*
X4251253Y-607674D02*
X4260777Y-617198D01*
X4260777Y-617198D02*
X4270301Y-636246D01*
X4270301Y-636246D02*
X4270301Y-693389D01*
X4270301Y-693389D02*
X4260777Y-712436D01*
X4260777Y-712436D02*
X4251253Y-721960D01*
X4251253Y-721960D02*
X4232206Y-731484D01*
X4232206Y-731484D02*
X4203634Y-731484D01*
X4384587Y-731484D02*
X4365539Y-721960D01*
X4365539Y-721960D02*
X4356015Y-702912D01*
X4356015Y-702912D02*
X4356015Y-531484D01*
X4536968Y-721960D02*
X4517920Y-731484D01*
X4517920Y-731484D02*
X4479825Y-731484D01*
X4479825Y-731484D02*
X4460777Y-721960D01*
X4460777Y-721960D02*
X4451253Y-702912D01*
X4451253Y-702912D02*
X4451253Y-626722D01*
X4451253Y-626722D02*
X4460777Y-607674D01*
X4460777Y-607674D02*
X4479825Y-598150D01*
X4479825Y-598150D02*
X4517920Y-598150D01*
X4517920Y-598150D02*
X4536968Y-607674D01*
X4536968Y-607674D02*
X4546492Y-626722D01*
X4546492Y-626722D02*
X4546492Y-645770D01*
X4546492Y-645770D02*
X4451253Y-664817D01*
X4622682Y-721960D02*
X4641730Y-731484D01*
X4641730Y-731484D02*
X4679825Y-731484D01*
X4679825Y-731484D02*
X4698873Y-721960D01*
X4698873Y-721960D02*
X4708396Y-702912D01*
X4708396Y-702912D02*
X4708396Y-693389D01*
X4708396Y-693389D02*
X4698873Y-674341D01*
X4698873Y-674341D02*
X4679825Y-664817D01*
X4679825Y-664817D02*
X4651253Y-664817D01*
X4651253Y-664817D02*
X4632206Y-655293D01*
X4632206Y-655293D02*
X4622682Y-636246D01*
X4622682Y-636246D02*
X4622682Y-626722D01*
X4622682Y-626722D02*
X4632206Y-607674D01*
X4632206Y-607674D02*
X4651253Y-598150D01*
X4651253Y-598150D02*
X4679825Y-598150D01*
X4679825Y-598150D02*
X4698873Y-607674D01*
X4775063Y-807674D02*
X4784587Y-798150D01*
X4784587Y-798150D02*
X4803634Y-769579D01*
X4803634Y-769579D02*
X4813158Y-750531D01*
X4813158Y-750531D02*
X4822682Y-721960D01*
X4822682Y-721960D02*
X4832206Y-674341D01*
X4832206Y-674341D02*
X4832206Y-636246D01*
X4832206Y-636246D02*
X4822682Y-588627D01*
X4822682Y-588627D02*
X4813158Y-560055D01*
X4813158Y-560055D02*
X4803634Y-541008D01*
X4803634Y-541008D02*
X4784587Y-512436D01*
X4784587Y-512436D02*
X4775063Y-502912D01*
X5136968Y-807674D02*
X5127444Y-798150D01*
X5127444Y-798150D02*
X5108396Y-769579D01*
X5108396Y-769579D02*
X5098873Y-750531D01*
X5098873Y-750531D02*
X5089349Y-721960D01*
X5089349Y-721960D02*
X5079825Y-674341D01*
X5079825Y-674341D02*
X5079825Y-636246D01*
X5079825Y-636246D02*
X5089349Y-588627D01*
X5089349Y-588627D02*
X5098873Y-560055D01*
X5098873Y-560055D02*
X5108396Y-541008D01*
X5108396Y-541008D02*
X5127444Y-512436D01*
X5127444Y-512436D02*
X5136968Y-502912D01*
X5213158Y-598150D02*
X5213158Y-731484D01*
X5213158Y-617198D02*
X5222682Y-607674D01*
X5222682Y-607674D02*
X5241730Y-598150D01*
X5241730Y-598150D02*
X5270301Y-598150D01*
X5270301Y-598150D02*
X5289349Y-607674D01*
X5289349Y-607674D02*
X5298873Y-626722D01*
X5298873Y-626722D02*
X5298873Y-731484D01*
X5422682Y-731484D02*
X5403634Y-721960D01*
X5403634Y-721960D02*
X5394111Y-712436D01*
X5394111Y-712436D02*
X5384587Y-693389D01*
X5384587Y-693389D02*
X5384587Y-636246D01*
X5384587Y-636246D02*
X5394111Y-617198D01*
X5394111Y-617198D02*
X5403634Y-607674D01*
X5403634Y-607674D02*
X5422682Y-598150D01*
X5422682Y-598150D02*
X5451254Y-598150D01*
X5451254Y-598150D02*
X5470301Y-607674D01*
X5470301Y-607674D02*
X5479825Y-617198D01*
X5479825Y-617198D02*
X5489349Y-636246D01*
X5489349Y-636246D02*
X5489349Y-693389D01*
X5489349Y-693389D02*
X5479825Y-712436D01*
X5479825Y-712436D02*
X5470301Y-721960D01*
X5470301Y-721960D02*
X5451254Y-731484D01*
X5451254Y-731484D02*
X5422682Y-731484D01*
X5546492Y-598150D02*
X5622682Y-598150D01*
X5575063Y-531484D02*
X5575063Y-702912D01*
X5575063Y-702912D02*
X5584587Y-721960D01*
X5584587Y-721960D02*
X5603634Y-731484D01*
X5603634Y-731484D02*
X5622682Y-731484D01*
X5841730Y-598150D02*
X5841730Y-798150D01*
X5841730Y-607674D02*
X5860777Y-598150D01*
X5860777Y-598150D02*
X5898873Y-598150D01*
X5898873Y-598150D02*
X5917920Y-607674D01*
X5917920Y-607674D02*
X5927444Y-617198D01*
X5927444Y-617198D02*
X5936968Y-636246D01*
X5936968Y-636246D02*
X5936968Y-693389D01*
X5936968Y-693389D02*
X5927444Y-712436D01*
X5927444Y-712436D02*
X5917920Y-721960D01*
X5917920Y-721960D02*
X5898873Y-731484D01*
X5898873Y-731484D02*
X5860777Y-731484D01*
X5860777Y-731484D02*
X5841730Y-721960D01*
X6051253Y-731484D02*
X6032206Y-721960D01*
X6032206Y-721960D02*
X6022682Y-702912D01*
X6022682Y-702912D02*
X6022682Y-531484D01*
X6213158Y-731484D02*
X6213158Y-626722D01*
X6213158Y-626722D02*
X6203634Y-607674D01*
X6203634Y-607674D02*
X6184587Y-598150D01*
X6184587Y-598150D02*
X6146492Y-598150D01*
X6146492Y-598150D02*
X6127444Y-607674D01*
X6213158Y-721960D02*
X6194111Y-731484D01*
X6194111Y-731484D02*
X6146492Y-731484D01*
X6146492Y-731484D02*
X6127444Y-721960D01*
X6127444Y-721960D02*
X6117920Y-702912D01*
X6117920Y-702912D02*
X6117920Y-683865D01*
X6117920Y-683865D02*
X6127444Y-664817D01*
X6127444Y-664817D02*
X6146492Y-655293D01*
X6146492Y-655293D02*
X6194111Y-655293D01*
X6194111Y-655293D02*
X6213158Y-645770D01*
X6279825Y-598150D02*
X6356015Y-598150D01*
X6308396Y-531484D02*
X6308396Y-702912D01*
X6308396Y-702912D02*
X6317920Y-721960D01*
X6317920Y-721960D02*
X6336968Y-731484D01*
X6336968Y-731484D02*
X6356015Y-731484D01*
X6498873Y-721960D02*
X6479825Y-731484D01*
X6479825Y-731484D02*
X6441730Y-731484D01*
X6441730Y-731484D02*
X6422682Y-721960D01*
X6422682Y-721960D02*
X6413158Y-702912D01*
X6413158Y-702912D02*
X6413158Y-626722D01*
X6413158Y-626722D02*
X6422682Y-607674D01*
X6422682Y-607674D02*
X6441730Y-598150D01*
X6441730Y-598150D02*
X6479825Y-598150D01*
X6479825Y-598150D02*
X6498873Y-607674D01*
X6498873Y-607674D02*
X6508396Y-626722D01*
X6508396Y-626722D02*
X6508396Y-645770D01*
X6508396Y-645770D02*
X6413158Y-664817D01*
X6679825Y-731484D02*
X6679825Y-531484D01*
X6679825Y-721960D02*
X6660777Y-731484D01*
X6660777Y-731484D02*
X6622682Y-731484D01*
X6622682Y-731484D02*
X6603634Y-721960D01*
X6603634Y-721960D02*
X6594111Y-712436D01*
X6594111Y-712436D02*
X6584587Y-693389D01*
X6584587Y-693389D02*
X6584587Y-636246D01*
X6584587Y-636246D02*
X6594111Y-617198D01*
X6594111Y-617198D02*
X6603634Y-607674D01*
X6603634Y-607674D02*
X6622682Y-598150D01*
X6622682Y-598150D02*
X6660777Y-598150D01*
X6660777Y-598150D02*
X6679825Y-607674D01*
X6756015Y-807674D02*
X6765539Y-798150D01*
X6765539Y-798150D02*
X6784587Y-769579D01*
X6784587Y-769579D02*
X6794111Y-750531D01*
X6794111Y-750531D02*
X6803634Y-721960D01*
X6803634Y-721960D02*
X6813158Y-674341D01*
X6813158Y-674341D02*
X6813158Y-636246D01*
X6813158Y-636246D02*
X6803634Y-588627D01*
X6803634Y-588627D02*
X6794111Y-560055D01*
X6794111Y-560055D02*
X6784587Y-541008D01*
X6784587Y-541008D02*
X6765539Y-512436D01*
X6765539Y-512436D02*
X6756015Y-502912D01*
M02*
