%TF.GenerationSoftware,KiCad,Pcbnew,7.0.8*%
%TF.CreationDate,2024-01-24T18:28:45-05:00*%
%TF.ProjectId,SupervisoryCircuitPCB,53757065-7276-4697-936f-727943697263,rev?*%
%TF.SameCoordinates,Original*%
%TF.FileFunction,Legend,Top*%
%TF.FilePolarity,Positive*%
%FSLAX46Y46*%
G04 Gerber Fmt 4.6, Leading zero omitted, Abs format (unit mm)*
G04 Created by KiCad (PCBNEW 7.0.8) date 2024-01-24 18:28:45*
%MOMM*%
%LPD*%
G01*
G04 APERTURE LIST*
%ADD10C,0.120000*%
%ADD11C,0.152400*%
%TA.AperFunction,Profile*%
%ADD12C,0.200000*%
%TD*%
G04 APERTURE END LIST*
D10*
%TO.C,REF\u002A\u002A*%
X78800000Y-67230000D02*
X78800000Y-72980000D01*
X72800000Y-67230000D02*
X78800000Y-67230000D01*
X73910000Y-68580000D02*
X73910000Y-73660000D01*
X72900000Y-68580000D02*
X73910000Y-68580000D01*
X73910000Y-73660000D02*
X72900000Y-73660000D01*
X78750000Y-74330000D02*
X78750000Y-77530000D01*
X78750000Y-77530000D02*
X72800000Y-77530000D01*
X72800000Y-77530000D02*
X72800000Y-67230000D01*
D11*
X81686400Y-73748900D02*
X85953600Y-73748900D01*
X85953600Y-68491100D02*
X81686400Y-68491100D01*
D10*
X88840000Y-77550000D02*
X88840000Y-71800000D01*
X94840000Y-77550000D02*
X88840000Y-77550000D01*
X93730000Y-76200000D02*
X93730000Y-71120000D01*
X94740000Y-76200000D02*
X93730000Y-76200000D01*
X93730000Y-71120000D02*
X94740000Y-71120000D01*
X88890000Y-70450000D02*
X88890000Y-67250000D01*
X88890000Y-67250000D02*
X94840000Y-67250000D01*
X94840000Y-67250000D02*
X94840000Y-77550000D01*
%TD*%
D12*
X71120000Y-66040000D02*
X96520000Y-66040000D01*
X96520000Y-78740000D01*
X71120000Y-78740000D01*
X71120000Y-66040000D01*
M02*
