%TF.GenerationSoftware,KiCad,Pcbnew,7.0.8*%
%TF.CreationDate,2024-01-29T15:51:42-05:00*%
%TF.ProjectId,VCO,56434f2e-6b69-4636-9164-5f7063625858,rev?*%
%TF.SameCoordinates,Original*%
%TF.FileFunction,Copper,L1,Top*%
%TF.FilePolarity,Positive*%
%FSLAX46Y46*%
G04 Gerber Fmt 4.6, Leading zero omitted, Abs format (unit mm)*
G04 Created by KiCad (PCBNEW 7.0.8) date 2024-01-29 15:51:42*
%MOMM*%
%LPD*%
G01*
G04 APERTURE LIST*
%ADD10C,0.150000*%
%TA.AperFunction,NonConductor*%
%ADD11C,0.150000*%
%TD*%
%TA.AperFunction,ComponentPad*%
%ADD12R,1.700000X1.700000*%
%TD*%
%TA.AperFunction,ComponentPad*%
%ADD13O,1.700000X1.700000*%
%TD*%
%TA.AperFunction,SMDPad,CuDef*%
%ADD14R,1.308100X0.457200*%
%TD*%
%TA.AperFunction,Conductor*%
%ADD15C,0.250000*%
%TD*%
G04 APERTURE END LIST*
D10*
D11*
X94316779Y-109089819D02*
X94316779Y-108089819D01*
X94316779Y-108089819D02*
X94650112Y-108804104D01*
X94650112Y-108804104D02*
X94983445Y-108089819D01*
X94983445Y-108089819D02*
X94983445Y-109089819D01*
X95888207Y-109089819D02*
X95888207Y-108566009D01*
X95888207Y-108566009D02*
X95840588Y-108470771D01*
X95840588Y-108470771D02*
X95745350Y-108423152D01*
X95745350Y-108423152D02*
X95554874Y-108423152D01*
X95554874Y-108423152D02*
X95459636Y-108470771D01*
X95888207Y-109042200D02*
X95792969Y-109089819D01*
X95792969Y-109089819D02*
X95554874Y-109089819D01*
X95554874Y-109089819D02*
X95459636Y-109042200D01*
X95459636Y-109042200D02*
X95412017Y-108946961D01*
X95412017Y-108946961D02*
X95412017Y-108851723D01*
X95412017Y-108851723D02*
X95459636Y-108756485D01*
X95459636Y-108756485D02*
X95554874Y-108708866D01*
X95554874Y-108708866D02*
X95792969Y-108708866D01*
X95792969Y-108708866D02*
X95888207Y-108661247D01*
X96792969Y-109042200D02*
X96697731Y-109089819D01*
X96697731Y-109089819D02*
X96507255Y-109089819D01*
X96507255Y-109089819D02*
X96412017Y-109042200D01*
X96412017Y-109042200D02*
X96364398Y-108994580D01*
X96364398Y-108994580D02*
X96316779Y-108899342D01*
X96316779Y-108899342D02*
X96316779Y-108613628D01*
X96316779Y-108613628D02*
X96364398Y-108518390D01*
X96364398Y-108518390D02*
X96412017Y-108470771D01*
X96412017Y-108470771D02*
X96507255Y-108423152D01*
X96507255Y-108423152D02*
X96697731Y-108423152D01*
X96697731Y-108423152D02*
X96792969Y-108470771D01*
X97221541Y-109089819D02*
X97221541Y-108423152D01*
X97221541Y-108613628D02*
X97269160Y-108518390D01*
X97269160Y-108518390D02*
X97316779Y-108470771D01*
X97316779Y-108470771D02*
X97412017Y-108423152D01*
X97412017Y-108423152D02*
X97507255Y-108423152D01*
X97983446Y-109089819D02*
X97888208Y-109042200D01*
X97888208Y-109042200D02*
X97840589Y-108994580D01*
X97840589Y-108994580D02*
X97792970Y-108899342D01*
X97792970Y-108899342D02*
X97792970Y-108613628D01*
X97792970Y-108613628D02*
X97840589Y-108518390D01*
X97840589Y-108518390D02*
X97888208Y-108470771D01*
X97888208Y-108470771D02*
X97983446Y-108423152D01*
X97983446Y-108423152D02*
X98126303Y-108423152D01*
X98126303Y-108423152D02*
X98221541Y-108470771D01*
X98221541Y-108470771D02*
X98269160Y-108518390D01*
X98269160Y-108518390D02*
X98316779Y-108613628D01*
X98316779Y-108613628D02*
X98316779Y-108899342D01*
X98316779Y-108899342D02*
X98269160Y-108994580D01*
X98269160Y-108994580D02*
X98221541Y-109042200D01*
X98221541Y-109042200D02*
X98126303Y-109089819D01*
X98126303Y-109089819D02*
X97983446Y-109089819D01*
X98745351Y-108423152D02*
X98745351Y-109423152D01*
X98745351Y-108470771D02*
X98840589Y-108423152D01*
X98840589Y-108423152D02*
X99031065Y-108423152D01*
X99031065Y-108423152D02*
X99126303Y-108470771D01*
X99126303Y-108470771D02*
X99173922Y-108518390D01*
X99173922Y-108518390D02*
X99221541Y-108613628D01*
X99221541Y-108613628D02*
X99221541Y-108899342D01*
X99221541Y-108899342D02*
X99173922Y-108994580D01*
X99173922Y-108994580D02*
X99126303Y-109042200D01*
X99126303Y-109042200D02*
X99031065Y-109089819D01*
X99031065Y-109089819D02*
X98840589Y-109089819D01*
X98840589Y-109089819D02*
X98745351Y-109042200D01*
X99650113Y-109089819D02*
X99650113Y-108089819D01*
X100078684Y-109089819D02*
X100078684Y-108566009D01*
X100078684Y-108566009D02*
X100031065Y-108470771D01*
X100031065Y-108470771D02*
X99935827Y-108423152D01*
X99935827Y-108423152D02*
X99792970Y-108423152D01*
X99792970Y-108423152D02*
X99697732Y-108470771D01*
X99697732Y-108470771D02*
X99650113Y-108518390D01*
X100412018Y-108423152D02*
X100792970Y-108423152D01*
X100554875Y-108089819D02*
X100554875Y-108946961D01*
X100554875Y-108946961D02*
X100602494Y-109042200D01*
X100602494Y-109042200D02*
X100697732Y-109089819D01*
X100697732Y-109089819D02*
X100792970Y-109089819D01*
X101126304Y-109089819D02*
X101126304Y-108089819D01*
X101554875Y-109089819D02*
X101554875Y-108566009D01*
X101554875Y-108566009D02*
X101507256Y-108470771D01*
X101507256Y-108470771D02*
X101412018Y-108423152D01*
X101412018Y-108423152D02*
X101269161Y-108423152D01*
X101269161Y-108423152D02*
X101173923Y-108470771D01*
X101173923Y-108470771D02*
X101126304Y-108518390D01*
X102459637Y-109089819D02*
X102459637Y-108566009D01*
X102459637Y-108566009D02*
X102412018Y-108470771D01*
X102412018Y-108470771D02*
X102316780Y-108423152D01*
X102316780Y-108423152D02*
X102126304Y-108423152D01*
X102126304Y-108423152D02*
X102031066Y-108470771D01*
X102459637Y-109042200D02*
X102364399Y-109089819D01*
X102364399Y-109089819D02*
X102126304Y-109089819D01*
X102126304Y-109089819D02*
X102031066Y-109042200D01*
X102031066Y-109042200D02*
X101983447Y-108946961D01*
X101983447Y-108946961D02*
X101983447Y-108851723D01*
X101983447Y-108851723D02*
X102031066Y-108756485D01*
X102031066Y-108756485D02*
X102126304Y-108708866D01*
X102126304Y-108708866D02*
X102364399Y-108708866D01*
X102364399Y-108708866D02*
X102459637Y-108661247D01*
X103078685Y-109089819D02*
X102983447Y-109042200D01*
X102983447Y-109042200D02*
X102935828Y-108946961D01*
X102935828Y-108946961D02*
X102935828Y-108089819D01*
X103459638Y-109089819D02*
X103459638Y-108423152D01*
X103459638Y-108518390D02*
X103507257Y-108470771D01*
X103507257Y-108470771D02*
X103602495Y-108423152D01*
X103602495Y-108423152D02*
X103745352Y-108423152D01*
X103745352Y-108423152D02*
X103840590Y-108470771D01*
X103840590Y-108470771D02*
X103888209Y-108566009D01*
X103888209Y-108566009D02*
X103888209Y-109089819D01*
X103888209Y-108566009D02*
X103935828Y-108470771D01*
X103935828Y-108470771D02*
X104031066Y-108423152D01*
X104031066Y-108423152D02*
X104173923Y-108423152D01*
X104173923Y-108423152D02*
X104269162Y-108470771D01*
X104269162Y-108470771D02*
X104316781Y-108566009D01*
X104316781Y-108566009D02*
X104316781Y-109089819D01*
X105221542Y-108423152D02*
X105221542Y-109089819D01*
X104792971Y-108423152D02*
X104792971Y-108946961D01*
X104792971Y-108946961D02*
X104840590Y-109042200D01*
X104840590Y-109042200D02*
X104935828Y-109089819D01*
X104935828Y-109089819D02*
X105078685Y-109089819D01*
X105078685Y-109089819D02*
X105173923Y-109042200D01*
X105173923Y-109042200D02*
X105221542Y-108994580D01*
X105650114Y-109042200D02*
X105745352Y-109089819D01*
X105745352Y-109089819D02*
X105935828Y-109089819D01*
X105935828Y-109089819D02*
X106031066Y-109042200D01*
X106031066Y-109042200D02*
X106078685Y-108946961D01*
X106078685Y-108946961D02*
X106078685Y-108899342D01*
X106078685Y-108899342D02*
X106031066Y-108804104D01*
X106031066Y-108804104D02*
X105935828Y-108756485D01*
X105935828Y-108756485D02*
X105792971Y-108756485D01*
X105792971Y-108756485D02*
X105697733Y-108708866D01*
X105697733Y-108708866D02*
X105650114Y-108613628D01*
X105650114Y-108613628D02*
X105650114Y-108566009D01*
X105650114Y-108566009D02*
X105697733Y-108470771D01*
X105697733Y-108470771D02*
X105792971Y-108423152D01*
X105792971Y-108423152D02*
X105935828Y-108423152D01*
X105935828Y-108423152D02*
X106031066Y-108470771D01*
D12*
%TO.P,REF\u002A\u002A,1*%
%TO.N,N/C*%
X142240000Y-91440000D03*
D13*
%TO.P,REF\u002A\u002A,2*%
X142240000Y-93980000D03*
%TO.P,REF\u002A\u002A,3*%
X142240000Y-96520000D03*
%TO.P,REF\u002A\u002A,4*%
X142240000Y-99060000D03*
%TD*%
D14*
%TO.P,REF\u002A\u002A,1*%
%TO.N,N/C*%
X129927350Y-93330002D03*
%TO.P,REF\u002A\u002A,2*%
X129927350Y-93980000D03*
%TO.P,REF\u002A\u002A,3*%
X129927350Y-94630002D03*
%TO.P,REF\u002A\u002A,4*%
X129927350Y-95280000D03*
%TO.P,REF\u002A\u002A,5*%
X134232650Y-95280000D03*
%TO.P,REF\u002A\u002A,6*%
X134232650Y-94630002D03*
%TO.P,REF\u002A\u002A,7*%
X134232650Y-93980000D03*
%TO.P,REF\u002A\u002A,8*%
X134232650Y-93330002D03*
%TD*%
D12*
%TO.P,REF\u002A\u002A,1*%
%TO.N,N/C*%
X121920000Y-91440000D03*
D13*
%TO.P,REF\u002A\u002A,2*%
X121920000Y-93980000D03*
%TO.P,REF\u002A\u002A,3*%
X121920000Y-96520000D03*
%TO.P,REF\u002A\u002A,4*%
X121920000Y-99060000D03*
%TD*%
D15*
%TO.N,*%
X127478000Y-95280000D02*
X129927350Y-95280000D01*
X123698000Y-99060000D02*
X127478000Y-95280000D01*
X121920000Y-99060000D02*
X123698000Y-99060000D01*
X140716000Y-99060000D02*
X142240000Y-99060000D01*
X136936000Y-95280000D02*
X140716000Y-99060000D01*
X134232650Y-95280000D02*
X136936000Y-95280000D01*
X139700000Y-96520000D02*
X142240000Y-96520000D01*
X137810002Y-94630002D02*
X139700000Y-96520000D01*
X134232650Y-94630002D02*
X137810002Y-94630002D01*
X134232650Y-93980000D02*
X142240000Y-93980000D01*
X139700000Y-91440000D02*
X142240000Y-91440000D01*
X137809998Y-93330002D02*
X139700000Y-91440000D01*
X134232650Y-93330002D02*
X137809998Y-93330002D01*
X124714000Y-96520000D02*
X126603998Y-94630002D01*
X121920000Y-96520000D02*
X124714000Y-96520000D01*
X126603998Y-94630002D02*
X129927350Y-94630002D01*
X121920000Y-93980000D02*
X129927350Y-93980000D01*
X125984000Y-91440000D02*
X121920000Y-91440000D01*
X127874002Y-93330002D02*
X125984000Y-91440000D01*
X129927350Y-93330002D02*
X127874002Y-93330002D01*
%TD*%
M02*
