%TF.GenerationSoftware,KiCad,Pcbnew,(7.0.0)*%
%TF.CreationDate,2024-01-29T14:23:52-05:00*%
%TF.ProjectId,VCO,56434f2e-6b69-4636-9164-5f7063625858,rev?*%
%TF.SameCoordinates,Original*%
%TF.FileFunction,Copper,L1,Top*%
%TF.FilePolarity,Positive*%
%FSLAX46Y46*%
G04 Gerber Fmt 4.6, Leading zero omitted, Abs format (unit mm)*
G04 Created by KiCad (PCBNEW (7.0.0)) date 2024-01-29 14:23:52*
%MOMM*%
%LPD*%
G01*
G04 APERTURE LIST*
%ADD10C,0.150000*%
%TA.AperFunction,NonConductor*%
%ADD11C,0.150000*%
%TD*%
%TA.AperFunction,ComponentPad*%
%ADD12R,1.700000X1.700000*%
%TD*%
%TA.AperFunction,ComponentPad*%
%ADD13O,1.700000X1.700000*%
%TD*%
%TA.AperFunction,SMDPad,CuDef*%
%ADD14R,1.308100X0.457200*%
%TD*%
%TA.AperFunction,Conductor*%
%ADD15C,0.500000*%
%TD*%
G04 APERTURE END LIST*
D10*
D11*
X94218095Y-109002380D02*
X94218095Y-108002380D01*
X94218095Y-108002380D02*
X94551428Y-108716666D01*
X94551428Y-108716666D02*
X94884761Y-108002380D01*
X94884761Y-108002380D02*
X94884761Y-109002380D01*
X95789523Y-109002380D02*
X95789523Y-108478571D01*
X95789523Y-108478571D02*
X95741904Y-108383333D01*
X95741904Y-108383333D02*
X95646666Y-108335714D01*
X95646666Y-108335714D02*
X95456190Y-108335714D01*
X95456190Y-108335714D02*
X95360952Y-108383333D01*
X95789523Y-108954761D02*
X95694285Y-109002380D01*
X95694285Y-109002380D02*
X95456190Y-109002380D01*
X95456190Y-109002380D02*
X95360952Y-108954761D01*
X95360952Y-108954761D02*
X95313333Y-108859523D01*
X95313333Y-108859523D02*
X95313333Y-108764285D01*
X95313333Y-108764285D02*
X95360952Y-108669047D01*
X95360952Y-108669047D02*
X95456190Y-108621428D01*
X95456190Y-108621428D02*
X95694285Y-108621428D01*
X95694285Y-108621428D02*
X95789523Y-108573809D01*
X96694285Y-108954761D02*
X96599047Y-109002380D01*
X96599047Y-109002380D02*
X96408571Y-109002380D01*
X96408571Y-109002380D02*
X96313333Y-108954761D01*
X96313333Y-108954761D02*
X96265714Y-108907142D01*
X96265714Y-108907142D02*
X96218095Y-108811904D01*
X96218095Y-108811904D02*
X96218095Y-108526190D01*
X96218095Y-108526190D02*
X96265714Y-108430952D01*
X96265714Y-108430952D02*
X96313333Y-108383333D01*
X96313333Y-108383333D02*
X96408571Y-108335714D01*
X96408571Y-108335714D02*
X96599047Y-108335714D01*
X96599047Y-108335714D02*
X96694285Y-108383333D01*
X97122857Y-109002380D02*
X97122857Y-108335714D01*
X97122857Y-108526190D02*
X97170476Y-108430952D01*
X97170476Y-108430952D02*
X97218095Y-108383333D01*
X97218095Y-108383333D02*
X97313333Y-108335714D01*
X97313333Y-108335714D02*
X97408571Y-108335714D01*
X97884762Y-109002380D02*
X97789524Y-108954761D01*
X97789524Y-108954761D02*
X97741905Y-108907142D01*
X97741905Y-108907142D02*
X97694286Y-108811904D01*
X97694286Y-108811904D02*
X97694286Y-108526190D01*
X97694286Y-108526190D02*
X97741905Y-108430952D01*
X97741905Y-108430952D02*
X97789524Y-108383333D01*
X97789524Y-108383333D02*
X97884762Y-108335714D01*
X97884762Y-108335714D02*
X98027619Y-108335714D01*
X98027619Y-108335714D02*
X98122857Y-108383333D01*
X98122857Y-108383333D02*
X98170476Y-108430952D01*
X98170476Y-108430952D02*
X98218095Y-108526190D01*
X98218095Y-108526190D02*
X98218095Y-108811904D01*
X98218095Y-108811904D02*
X98170476Y-108907142D01*
X98170476Y-108907142D02*
X98122857Y-108954761D01*
X98122857Y-108954761D02*
X98027619Y-109002380D01*
X98027619Y-109002380D02*
X97884762Y-109002380D01*
X98646667Y-108335714D02*
X98646667Y-109335714D01*
X98646667Y-108383333D02*
X98741905Y-108335714D01*
X98741905Y-108335714D02*
X98932381Y-108335714D01*
X98932381Y-108335714D02*
X99027619Y-108383333D01*
X99027619Y-108383333D02*
X99075238Y-108430952D01*
X99075238Y-108430952D02*
X99122857Y-108526190D01*
X99122857Y-108526190D02*
X99122857Y-108811904D01*
X99122857Y-108811904D02*
X99075238Y-108907142D01*
X99075238Y-108907142D02*
X99027619Y-108954761D01*
X99027619Y-108954761D02*
X98932381Y-109002380D01*
X98932381Y-109002380D02*
X98741905Y-109002380D01*
X98741905Y-109002380D02*
X98646667Y-108954761D01*
X99551429Y-109002380D02*
X99551429Y-108002380D01*
X99980000Y-109002380D02*
X99980000Y-108478571D01*
X99980000Y-108478571D02*
X99932381Y-108383333D01*
X99932381Y-108383333D02*
X99837143Y-108335714D01*
X99837143Y-108335714D02*
X99694286Y-108335714D01*
X99694286Y-108335714D02*
X99599048Y-108383333D01*
X99599048Y-108383333D02*
X99551429Y-108430952D01*
X100313334Y-108335714D02*
X100694286Y-108335714D01*
X100456191Y-108002380D02*
X100456191Y-108859523D01*
X100456191Y-108859523D02*
X100503810Y-108954761D01*
X100503810Y-108954761D02*
X100599048Y-109002380D01*
X100599048Y-109002380D02*
X100694286Y-109002380D01*
X101027620Y-109002380D02*
X101027620Y-108002380D01*
X101456191Y-109002380D02*
X101456191Y-108478571D01*
X101456191Y-108478571D02*
X101408572Y-108383333D01*
X101408572Y-108383333D02*
X101313334Y-108335714D01*
X101313334Y-108335714D02*
X101170477Y-108335714D01*
X101170477Y-108335714D02*
X101075239Y-108383333D01*
X101075239Y-108383333D02*
X101027620Y-108430952D01*
X102360953Y-109002380D02*
X102360953Y-108478571D01*
X102360953Y-108478571D02*
X102313334Y-108383333D01*
X102313334Y-108383333D02*
X102218096Y-108335714D01*
X102218096Y-108335714D02*
X102027620Y-108335714D01*
X102027620Y-108335714D02*
X101932382Y-108383333D01*
X102360953Y-108954761D02*
X102265715Y-109002380D01*
X102265715Y-109002380D02*
X102027620Y-109002380D01*
X102027620Y-109002380D02*
X101932382Y-108954761D01*
X101932382Y-108954761D02*
X101884763Y-108859523D01*
X101884763Y-108859523D02*
X101884763Y-108764285D01*
X101884763Y-108764285D02*
X101932382Y-108669047D01*
X101932382Y-108669047D02*
X102027620Y-108621428D01*
X102027620Y-108621428D02*
X102265715Y-108621428D01*
X102265715Y-108621428D02*
X102360953Y-108573809D01*
X102980001Y-109002380D02*
X102884763Y-108954761D01*
X102884763Y-108954761D02*
X102837144Y-108859523D01*
X102837144Y-108859523D02*
X102837144Y-108002380D01*
X103360954Y-109002380D02*
X103360954Y-108335714D01*
X103360954Y-108430952D02*
X103408573Y-108383333D01*
X103408573Y-108383333D02*
X103503811Y-108335714D01*
X103503811Y-108335714D02*
X103646668Y-108335714D01*
X103646668Y-108335714D02*
X103741906Y-108383333D01*
X103741906Y-108383333D02*
X103789525Y-108478571D01*
X103789525Y-108478571D02*
X103789525Y-109002380D01*
X103789525Y-108478571D02*
X103837144Y-108383333D01*
X103837144Y-108383333D02*
X103932382Y-108335714D01*
X103932382Y-108335714D02*
X104075239Y-108335714D01*
X104075239Y-108335714D02*
X104170478Y-108383333D01*
X104170478Y-108383333D02*
X104218097Y-108478571D01*
X104218097Y-108478571D02*
X104218097Y-109002380D01*
X105122858Y-108335714D02*
X105122858Y-109002380D01*
X104694287Y-108335714D02*
X104694287Y-108859523D01*
X104694287Y-108859523D02*
X104741906Y-108954761D01*
X104741906Y-108954761D02*
X104837144Y-109002380D01*
X104837144Y-109002380D02*
X104980001Y-109002380D01*
X104980001Y-109002380D02*
X105075239Y-108954761D01*
X105075239Y-108954761D02*
X105122858Y-108907142D01*
X105551430Y-108954761D02*
X105646668Y-109002380D01*
X105646668Y-109002380D02*
X105837144Y-109002380D01*
X105837144Y-109002380D02*
X105932382Y-108954761D01*
X105932382Y-108954761D02*
X105980001Y-108859523D01*
X105980001Y-108859523D02*
X105980001Y-108811904D01*
X105980001Y-108811904D02*
X105932382Y-108716666D01*
X105932382Y-108716666D02*
X105837144Y-108669047D01*
X105837144Y-108669047D02*
X105694287Y-108669047D01*
X105694287Y-108669047D02*
X105599049Y-108621428D01*
X105599049Y-108621428D02*
X105551430Y-108526190D01*
X105551430Y-108526190D02*
X105551430Y-108478571D01*
X105551430Y-108478571D02*
X105599049Y-108383333D01*
X105599049Y-108383333D02*
X105694287Y-108335714D01*
X105694287Y-108335714D02*
X105837144Y-108335714D01*
X105837144Y-108335714D02*
X105932382Y-108383333D01*
D12*
%TO.P,REF\u002A\u002A,1*%
%TO.N,N/C*%
X154939999Y-91439999D03*
D13*
%TO.P,REF\u002A\u002A,2*%
X154939999Y-93979999D03*
%TO.P,REF\u002A\u002A,3*%
X154939999Y-96519999D03*
%TO.P,REF\u002A\u002A,4*%
X154939999Y-99059999D03*
%TD*%
D14*
%TO.P,REF\u002A\u002A,1*%
%TO.N,N/C*%
X129927349Y-93330001D03*
%TO.P,REF\u002A\u002A,2*%
X129927349Y-93979999D03*
%TO.P,REF\u002A\u002A,3*%
X129927349Y-94630001D03*
%TO.P,REF\u002A\u002A,4*%
X129927349Y-95279999D03*
%TO.P,REF\u002A\u002A,5*%
X134232649Y-95279999D03*
%TO.P,REF\u002A\u002A,6*%
X134232649Y-94630001D03*
%TO.P,REF\u002A\u002A,7*%
X134232649Y-93979999D03*
%TO.P,REF\u002A\u002A,8*%
X134232649Y-93330001D03*
%TD*%
D12*
%TO.P,REF\u002A\u002A,1*%
%TO.N,N/C*%
X109219999Y-91439999D03*
D13*
%TO.P,REF\u002A\u002A,2*%
X109219999Y-93979999D03*
%TO.P,REF\u002A\u002A,3*%
X109219999Y-96519999D03*
%TO.P,REF\u002A\u002A,4*%
X109219999Y-99059999D03*
%TD*%
D15*
%TO.N,*%
X135600002Y-94630002D02*
X137490000Y-96520000D01*
X134232650Y-96442650D02*
X140200000Y-102410000D01*
X125150000Y-102520000D02*
X118230000Y-102520000D01*
X134232650Y-93330002D02*
X134232650Y-91127350D01*
X129927350Y-93330002D02*
X129927350Y-91457350D01*
X116750000Y-87150000D02*
X112460000Y-91440000D01*
X129927350Y-93980000D02*
X109220000Y-93980000D01*
X154940000Y-93980000D02*
X134232650Y-93980000D01*
X150960000Y-99060000D02*
X154940000Y-99060000D01*
X125620000Y-87150000D02*
X116750000Y-87150000D01*
X118230000Y-102520000D02*
X114770000Y-99060000D01*
X129927350Y-95280000D02*
X129927350Y-97742650D01*
X140200000Y-102410000D02*
X147610000Y-102410000D01*
X128529998Y-94630002D02*
X126640000Y-96520000D01*
X129927350Y-91457350D02*
X125620000Y-87150000D01*
X134232650Y-95280000D02*
X134232650Y-96442650D01*
X137240000Y-88120000D02*
X149780000Y-88120000D01*
X129927350Y-97742650D02*
X125150000Y-102520000D01*
X149780000Y-88120000D02*
X153100000Y-91440000D01*
X137490000Y-96520000D02*
X154940000Y-96520000D01*
X112460000Y-91440000D02*
X109220000Y-91440000D01*
X153100000Y-91440000D02*
X154940000Y-91440000D01*
X147610000Y-102410000D02*
X150960000Y-99060000D01*
X126640000Y-96520000D02*
X109220000Y-96520000D01*
X134232650Y-91127350D02*
X137240000Y-88120000D01*
X129927350Y-94630002D02*
X128529998Y-94630002D01*
X134232650Y-94630002D02*
X135600002Y-94630002D01*
X114770000Y-99060000D02*
X109220000Y-99060000D01*
%TD*%
M02*
