%TF.GenerationSoftware,KiCad,Pcbnew,7.0.8*%
%TF.CreationDate,2024-03-13T12:02:19-04:00*%
%TF.ProjectId,Mixer,4d697865-722e-46b6-9963-61645f706362,rev?*%
%TF.SameCoordinates,Original*%
%TF.FileFunction,Legend,Top*%
%TF.FilePolarity,Positive*%
%FSLAX46Y46*%
G04 Gerber Fmt 4.6, Leading zero omitted, Abs format (unit mm)*
G04 Created by KiCad (PCBNEW 7.0.8) date 2024-03-13 12:02:19*
%MOMM*%
%LPD*%
G01*
G04 APERTURE LIST*
%ADD10C,0.150000*%
%ADD11C,0.127000*%
%ADD12C,0.300000*%
%ADD13C,0.152400*%
G04 APERTURE END LIST*
D10*
X75057166Y-76654819D02*
X74723833Y-76178628D01*
X74485738Y-76654819D02*
X74485738Y-75654819D01*
X74485738Y-75654819D02*
X74866690Y-75654819D01*
X74866690Y-75654819D02*
X74961928Y-75702438D01*
X74961928Y-75702438D02*
X75009547Y-75750057D01*
X75009547Y-75750057D02*
X75057166Y-75845295D01*
X75057166Y-75845295D02*
X75057166Y-75988152D01*
X75057166Y-75988152D02*
X75009547Y-76083390D01*
X75009547Y-76083390D02*
X74961928Y-76131009D01*
X74961928Y-76131009D02*
X74866690Y-76178628D01*
X74866690Y-76178628D02*
X74485738Y-76178628D01*
X75485738Y-76131009D02*
X75819071Y-76131009D01*
X75961928Y-76654819D02*
X75485738Y-76654819D01*
X75485738Y-76654819D02*
X75485738Y-75654819D01*
X75485738Y-75654819D02*
X75961928Y-75654819D01*
X76723833Y-76131009D02*
X76390500Y-76131009D01*
X76390500Y-76654819D02*
X76390500Y-75654819D01*
X76390500Y-75654819D02*
X76866690Y-75654819D01*
X77390500Y-75654819D02*
X77390500Y-75892914D01*
X77152405Y-75797676D02*
X77390500Y-75892914D01*
X77390500Y-75892914D02*
X77628595Y-75797676D01*
X77247643Y-76083390D02*
X77390500Y-75892914D01*
X77390500Y-75892914D02*
X77533357Y-76083390D01*
X78152405Y-75654819D02*
X78152405Y-75892914D01*
X77914310Y-75797676D02*
X78152405Y-75892914D01*
X78152405Y-75892914D02*
X78390500Y-75797676D01*
X78009548Y-76083390D02*
X78152405Y-75892914D01*
X78152405Y-75892914D02*
X78295262Y-76083390D01*
X71771452Y-81988819D02*
X71771452Y-80988819D01*
X71771452Y-80988819D02*
X72009547Y-80988819D01*
X72009547Y-80988819D02*
X72152404Y-81036438D01*
X72152404Y-81036438D02*
X72247642Y-81131676D01*
X72247642Y-81131676D02*
X72295261Y-81226914D01*
X72295261Y-81226914D02*
X72342880Y-81417390D01*
X72342880Y-81417390D02*
X72342880Y-81560247D01*
X72342880Y-81560247D02*
X72295261Y-81750723D01*
X72295261Y-81750723D02*
X72247642Y-81845961D01*
X72247642Y-81845961D02*
X72152404Y-81941200D01*
X72152404Y-81941200D02*
X72009547Y-81988819D01*
X72009547Y-81988819D02*
X71771452Y-81988819D01*
X72676214Y-80988819D02*
X73342880Y-80988819D01*
X73342880Y-80988819D02*
X72676214Y-81988819D01*
X72676214Y-81988819D02*
X73342880Y-81988819D01*
X74247642Y-81988819D02*
X73676214Y-81988819D01*
X73961928Y-81988819D02*
X73961928Y-80988819D01*
X73961928Y-80988819D02*
X73866690Y-81131676D01*
X73866690Y-81131676D02*
X73771452Y-81226914D01*
X73771452Y-81226914D02*
X73676214Y-81274533D01*
X75104785Y-80988819D02*
X74914309Y-80988819D01*
X74914309Y-80988819D02*
X74819071Y-81036438D01*
X74819071Y-81036438D02*
X74771452Y-81084057D01*
X74771452Y-81084057D02*
X74676214Y-81226914D01*
X74676214Y-81226914D02*
X74628595Y-81417390D01*
X74628595Y-81417390D02*
X74628595Y-81798342D01*
X74628595Y-81798342D02*
X74676214Y-81893580D01*
X74676214Y-81893580D02*
X74723833Y-81941200D01*
X74723833Y-81941200D02*
X74819071Y-81988819D01*
X74819071Y-81988819D02*
X75009547Y-81988819D01*
X75009547Y-81988819D02*
X75104785Y-81941200D01*
X75104785Y-81941200D02*
X75152404Y-81893580D01*
X75152404Y-81893580D02*
X75200023Y-81798342D01*
X75200023Y-81798342D02*
X75200023Y-81560247D01*
X75200023Y-81560247D02*
X75152404Y-81465009D01*
X75152404Y-81465009D02*
X75104785Y-81417390D01*
X75104785Y-81417390D02*
X75009547Y-81369771D01*
X75009547Y-81369771D02*
X74819071Y-81369771D01*
X74819071Y-81369771D02*
X74723833Y-81417390D01*
X74723833Y-81417390D02*
X74676214Y-81465009D01*
X74676214Y-81465009D02*
X74628595Y-81560247D01*
X76104785Y-80988819D02*
X75628595Y-80988819D01*
X75628595Y-80988819D02*
X75580976Y-81465009D01*
X75580976Y-81465009D02*
X75628595Y-81417390D01*
X75628595Y-81417390D02*
X75723833Y-81369771D01*
X75723833Y-81369771D02*
X75961928Y-81369771D01*
X75961928Y-81369771D02*
X76057166Y-81417390D01*
X76057166Y-81417390D02*
X76104785Y-81465009D01*
X76104785Y-81465009D02*
X76152404Y-81560247D01*
X76152404Y-81560247D02*
X76152404Y-81798342D01*
X76152404Y-81798342D02*
X76104785Y-81893580D01*
X76104785Y-81893580D02*
X76057166Y-81941200D01*
X76057166Y-81941200D02*
X75961928Y-81988819D01*
X75961928Y-81988819D02*
X75723833Y-81988819D01*
X75723833Y-81988819D02*
X75628595Y-81941200D01*
X75628595Y-81941200D02*
X75580976Y-81893580D01*
X76771452Y-80988819D02*
X76866690Y-80988819D01*
X76866690Y-80988819D02*
X76961928Y-81036438D01*
X76961928Y-81036438D02*
X77009547Y-81084057D01*
X77009547Y-81084057D02*
X77057166Y-81179295D01*
X77057166Y-81179295D02*
X77104785Y-81369771D01*
X77104785Y-81369771D02*
X77104785Y-81607866D01*
X77104785Y-81607866D02*
X77057166Y-81798342D01*
X77057166Y-81798342D02*
X77009547Y-81893580D01*
X77009547Y-81893580D02*
X76961928Y-81941200D01*
X76961928Y-81941200D02*
X76866690Y-81988819D01*
X76866690Y-81988819D02*
X76771452Y-81988819D01*
X76771452Y-81988819D02*
X76676214Y-81941200D01*
X76676214Y-81941200D02*
X76628595Y-81893580D01*
X76628595Y-81893580D02*
X76580976Y-81798342D01*
X76580976Y-81798342D02*
X76533357Y-81607866D01*
X76533357Y-81607866D02*
X76533357Y-81369771D01*
X76533357Y-81369771D02*
X76580976Y-81179295D01*
X76580976Y-81179295D02*
X76628595Y-81084057D01*
X76628595Y-81084057D02*
X76676214Y-81036438D01*
X76676214Y-81036438D02*
X76771452Y-80988819D01*
X77295262Y-82084057D02*
X78057166Y-82084057D01*
X78295262Y-81988819D02*
X78295262Y-80988819D01*
X78295262Y-80988819D02*
X78628595Y-81703104D01*
X78628595Y-81703104D02*
X78961928Y-80988819D01*
X78961928Y-80988819D02*
X78961928Y-81988819D01*
X79438119Y-81988819D02*
X79438119Y-80988819D01*
X79438119Y-80988819D02*
X80009547Y-81988819D01*
X80009547Y-81988819D02*
X80009547Y-80988819D01*
X81057166Y-81893580D02*
X81009547Y-81941200D01*
X81009547Y-81941200D02*
X80866690Y-81988819D01*
X80866690Y-81988819D02*
X80771452Y-81988819D01*
X80771452Y-81988819D02*
X80628595Y-81941200D01*
X80628595Y-81941200D02*
X80533357Y-81845961D01*
X80533357Y-81845961D02*
X80485738Y-81750723D01*
X80485738Y-81750723D02*
X80438119Y-81560247D01*
X80438119Y-81560247D02*
X80438119Y-81417390D01*
X80438119Y-81417390D02*
X80485738Y-81226914D01*
X80485738Y-81226914D02*
X80533357Y-81131676D01*
X80533357Y-81131676D02*
X80628595Y-81036438D01*
X80628595Y-81036438D02*
X80771452Y-80988819D01*
X80771452Y-80988819D02*
X80866690Y-80988819D01*
X80866690Y-80988819D02*
X81009547Y-81036438D01*
X81009547Y-81036438D02*
X81057166Y-81084057D01*
D11*
%TO.C,REF\u002A\u002A*%
X64258000Y-74302750D02*
X64258000Y-75402750D01*
X60458000Y-74302750D02*
X60458000Y-75402750D01*
X64258000Y-77002750D02*
X64258000Y-78102750D01*
X60458000Y-77002750D02*
X60458000Y-78102750D01*
D12*
X65726000Y-76129750D02*
G75*
G03*
X65726000Y-76129750I-100000J0D01*
G01*
D11*
X68460750Y-88650000D02*
X69560750Y-88650000D01*
X68460750Y-92450000D02*
X69560750Y-92450000D01*
X71160750Y-88650000D02*
X72260750Y-88650000D01*
X71160750Y-92450000D02*
X72260750Y-92450000D01*
D12*
X70387750Y-87282000D02*
G75*
G03*
X70387750Y-87282000I-100000J0D01*
G01*
X86620000Y-73733000D02*
G75*
G03*
X86620000Y-73733000I-100000J0D01*
G01*
D11*
X91688000Y-72860000D02*
X91688000Y-71760000D01*
X87888000Y-72860000D02*
X87888000Y-71760000D01*
X91688000Y-75560000D02*
X91688000Y-74460000D01*
X87888000Y-75560000D02*
X87888000Y-74460000D01*
D13*
X73088500Y-80137000D02*
X79692500Y-80137000D01*
X79692500Y-80137000D02*
X79692500Y-79517240D01*
X79692500Y-72263000D02*
X73088500Y-72263000D01*
X73088500Y-72263000D02*
X73088500Y-72882760D01*
X73088500Y-79517240D02*
X73088500Y-80137000D01*
X79692500Y-72882760D02*
X79692500Y-72263000D01*
X71272400Y-73660000D02*
G75*
G03*
X71272400Y-73660000I-127000J0D01*
G01*
%TD*%
M02*
