%TF.GenerationSoftware,KiCad,Pcbnew,7.0.8*%
%TF.CreationDate,2024-03-05T13:26:06-05:00*%
%TF.ProjectId,BPF-Eval-Board,4250462d-4576-4616-9c2d-426f6172642e,rev?*%
%TF.SameCoordinates,Original*%
%TF.FileFunction,Copper,L1,Top*%
%TF.FilePolarity,Positive*%
%FSLAX46Y46*%
G04 Gerber Fmt 4.6, Leading zero omitted, Abs format (unit mm)*
G04 Created by KiCad (PCBNEW 7.0.8) date 2024-03-05 13:26:06*
%MOMM*%
%LPD*%
G01*
G04 APERTURE LIST*
%ADD10C,0.300000*%
%TA.AperFunction,NonConductor*%
%ADD11C,0.300000*%
%TD*%
%TA.AperFunction,ComponentPad*%
%ADD12R,1.700000X1.700000*%
%TD*%
%TA.AperFunction,ComponentPad*%
%ADD13O,1.700000X1.700000*%
%TD*%
%TA.AperFunction,SMDPad,CuDef*%
%ADD14R,4.560000X0.850000*%
%TD*%
%TA.AperFunction,SMDPad,CuDef*%
%ADD15R,4.560000X1.000000*%
%TD*%
%TA.AperFunction,SMDPad,CuDef*%
%ADD16R,1.889000X1.422400*%
%TD*%
%TA.AperFunction,Conductor*%
%ADD17C,0.762000*%
%TD*%
G04 APERTURE END LIST*
D10*
D11*
X135103082Y-106409400D02*
X135317368Y-106480828D01*
X135317368Y-106480828D02*
X135674510Y-106480828D01*
X135674510Y-106480828D02*
X135817368Y-106409400D01*
X135817368Y-106409400D02*
X135888796Y-106337971D01*
X135888796Y-106337971D02*
X135960225Y-106195114D01*
X135960225Y-106195114D02*
X135960225Y-106052257D01*
X135960225Y-106052257D02*
X135888796Y-105909400D01*
X135888796Y-105909400D02*
X135817368Y-105837971D01*
X135817368Y-105837971D02*
X135674510Y-105766542D01*
X135674510Y-105766542D02*
X135388796Y-105695114D01*
X135388796Y-105695114D02*
X135245939Y-105623685D01*
X135245939Y-105623685D02*
X135174510Y-105552257D01*
X135174510Y-105552257D02*
X135103082Y-105409400D01*
X135103082Y-105409400D02*
X135103082Y-105266542D01*
X135103082Y-105266542D02*
X135174510Y-105123685D01*
X135174510Y-105123685D02*
X135245939Y-105052257D01*
X135245939Y-105052257D02*
X135388796Y-104980828D01*
X135388796Y-104980828D02*
X135745939Y-104980828D01*
X135745939Y-104980828D02*
X135960225Y-105052257D01*
X136603081Y-106480828D02*
X136603081Y-104980828D01*
X136603081Y-104980828D02*
X137174510Y-104980828D01*
X137174510Y-104980828D02*
X137317367Y-105052257D01*
X137317367Y-105052257D02*
X137388796Y-105123685D01*
X137388796Y-105123685D02*
X137460224Y-105266542D01*
X137460224Y-105266542D02*
X137460224Y-105480828D01*
X137460224Y-105480828D02*
X137388796Y-105623685D01*
X137388796Y-105623685D02*
X137317367Y-105695114D01*
X137317367Y-105695114D02*
X137174510Y-105766542D01*
X137174510Y-105766542D02*
X136603081Y-105766542D01*
X137960224Y-104980828D02*
X138960224Y-106480828D01*
X138960224Y-104980828D02*
X137960224Y-106480828D01*
X141388795Y-106480828D02*
X140674509Y-106480828D01*
X140674509Y-106480828D02*
X140674509Y-104980828D01*
X142103081Y-106480828D02*
X141960224Y-106409400D01*
X141960224Y-106409400D02*
X141888795Y-106337971D01*
X141888795Y-106337971D02*
X141817367Y-106195114D01*
X141817367Y-106195114D02*
X141817367Y-105766542D01*
X141817367Y-105766542D02*
X141888795Y-105623685D01*
X141888795Y-105623685D02*
X141960224Y-105552257D01*
X141960224Y-105552257D02*
X142103081Y-105480828D01*
X142103081Y-105480828D02*
X142317367Y-105480828D01*
X142317367Y-105480828D02*
X142460224Y-105552257D01*
X142460224Y-105552257D02*
X142531653Y-105623685D01*
X142531653Y-105623685D02*
X142603081Y-105766542D01*
X142603081Y-105766542D02*
X142603081Y-106195114D01*
X142603081Y-106195114D02*
X142531653Y-106337971D01*
X142531653Y-106337971D02*
X142460224Y-106409400D01*
X142460224Y-106409400D02*
X142317367Y-106480828D01*
X142317367Y-106480828D02*
X142103081Y-106480828D01*
X143103081Y-105480828D02*
X143388796Y-106480828D01*
X143388796Y-106480828D02*
X143674510Y-105766542D01*
X143674510Y-105766542D02*
X143960224Y-106480828D01*
X143960224Y-106480828D02*
X144245938Y-105480828D01*
X145960224Y-106480828D02*
X145960224Y-104980828D01*
X145960224Y-104980828D02*
X146531653Y-104980828D01*
X146531653Y-104980828D02*
X146674510Y-105052257D01*
X146674510Y-105052257D02*
X146745939Y-105123685D01*
X146745939Y-105123685D02*
X146817367Y-105266542D01*
X146817367Y-105266542D02*
X146817367Y-105480828D01*
X146817367Y-105480828D02*
X146745939Y-105623685D01*
X146745939Y-105623685D02*
X146674510Y-105695114D01*
X146674510Y-105695114D02*
X146531653Y-105766542D01*
X146531653Y-105766542D02*
X145960224Y-105766542D01*
X148103082Y-106480828D02*
X148103082Y-105695114D01*
X148103082Y-105695114D02*
X148031653Y-105552257D01*
X148031653Y-105552257D02*
X147888796Y-105480828D01*
X147888796Y-105480828D02*
X147603082Y-105480828D01*
X147603082Y-105480828D02*
X147460224Y-105552257D01*
X148103082Y-106409400D02*
X147960224Y-106480828D01*
X147960224Y-106480828D02*
X147603082Y-106480828D01*
X147603082Y-106480828D02*
X147460224Y-106409400D01*
X147460224Y-106409400D02*
X147388796Y-106266542D01*
X147388796Y-106266542D02*
X147388796Y-106123685D01*
X147388796Y-106123685D02*
X147460224Y-105980828D01*
X147460224Y-105980828D02*
X147603082Y-105909400D01*
X147603082Y-105909400D02*
X147960224Y-105909400D01*
X147960224Y-105909400D02*
X148103082Y-105837971D01*
X148745939Y-106409400D02*
X148888796Y-106480828D01*
X148888796Y-106480828D02*
X149174510Y-106480828D01*
X149174510Y-106480828D02*
X149317367Y-106409400D01*
X149317367Y-106409400D02*
X149388796Y-106266542D01*
X149388796Y-106266542D02*
X149388796Y-106195114D01*
X149388796Y-106195114D02*
X149317367Y-106052257D01*
X149317367Y-106052257D02*
X149174510Y-105980828D01*
X149174510Y-105980828D02*
X148960225Y-105980828D01*
X148960225Y-105980828D02*
X148817367Y-105909400D01*
X148817367Y-105909400D02*
X148745939Y-105766542D01*
X148745939Y-105766542D02*
X148745939Y-105695114D01*
X148745939Y-105695114D02*
X148817367Y-105552257D01*
X148817367Y-105552257D02*
X148960225Y-105480828D01*
X148960225Y-105480828D02*
X149174510Y-105480828D01*
X149174510Y-105480828D02*
X149317367Y-105552257D01*
X149960225Y-106409400D02*
X150103082Y-106480828D01*
X150103082Y-106480828D02*
X150388796Y-106480828D01*
X150388796Y-106480828D02*
X150531653Y-106409400D01*
X150531653Y-106409400D02*
X150603082Y-106266542D01*
X150603082Y-106266542D02*
X150603082Y-106195114D01*
X150603082Y-106195114D02*
X150531653Y-106052257D01*
X150531653Y-106052257D02*
X150388796Y-105980828D01*
X150388796Y-105980828D02*
X150174511Y-105980828D01*
X150174511Y-105980828D02*
X150031653Y-105909400D01*
X150031653Y-105909400D02*
X149960225Y-105766542D01*
X149960225Y-105766542D02*
X149960225Y-105695114D01*
X149960225Y-105695114D02*
X150031653Y-105552257D01*
X150031653Y-105552257D02*
X150174511Y-105480828D01*
X150174511Y-105480828D02*
X150388796Y-105480828D01*
X150388796Y-105480828D02*
X150531653Y-105552257D01*
D12*
%TO.P,REF\u002A\u002A,1*%
%TO.N,N/C*%
X137160000Y-96520000D03*
D13*
%TO.P,REF\u002A\u002A,2*%
X137160000Y-99060000D03*
%TD*%
D12*
%TO.P,REF\u002A\u002A,1*%
%TO.N,N/C*%
X162560000Y-96520000D03*
D13*
%TO.P,REF\u002A\u002A,2*%
X162560000Y-99060000D03*
%TD*%
D14*
%TO.P,REF\u002A\u002A,1*%
%TO.N,N/C*%
X163181500Y-88135250D03*
D15*
%TO.P,REF\u002A\u002A,SH1*%
X163181500Y-90905250D03*
%TO.P,REF\u002A\u002A,SH2*%
X163181500Y-85365250D03*
%TD*%
D14*
%TO.P,REF\u002A\u002A,1*%
%TO.N,N/C*%
X136538500Y-88140750D03*
D15*
%TO.P,REF\u002A\u002A,SH1*%
X136538500Y-85370750D03*
%TO.P,REF\u002A\u002A,SH2*%
X136538500Y-90910750D03*
%TD*%
D16*
%TO.P,REF\u002A\u002A,1*%
%TO.N,N/C*%
X145259300Y-86360000D03*
%TO.P,REF\u002A\u002A,2*%
X154460700Y-86360000D03*
%TO.P,REF\u002A\u002A,3*%
X145259300Y-91440000D03*
%TO.P,REF\u002A\u002A,4*%
X154460700Y-91440000D03*
%TO.P,REF\u002A\u002A,5*%
X145259300Y-96520000D03*
%TO.P,REF\u002A\u002A,6*%
X154460700Y-96520000D03*
%TO.P,REF\u002A\u002A,7*%
X145259300Y-101600000D03*
%TO.P,REF\u002A\u002A,8*%
X154460700Y-101600000D03*
%TD*%
D17*
%TO.N,*%
X158522750Y-90905250D02*
X163181500Y-90905250D01*
X163181500Y-85365250D02*
X160041250Y-85365250D01*
X142240000Y-101600000D02*
X144259300Y-101600000D01*
X142748000Y-86360000D02*
X140967250Y-88140750D01*
X160020000Y-99060000D02*
X157480000Y-101600000D01*
X144259300Y-91440000D02*
X142494000Y-91440000D01*
X157988000Y-91440000D02*
X158522750Y-90905250D01*
X140967250Y-88140750D02*
X136538500Y-88140750D01*
X137160000Y-99060000D02*
X139700000Y-99060000D01*
X137160000Y-96520000D02*
X144259300Y-96520000D01*
X144259300Y-86360000D02*
X142748000Y-86360000D01*
X155460700Y-91440000D02*
X157988000Y-91440000D01*
X136538500Y-85370750D02*
X139673250Y-85370750D01*
X141964750Y-90910750D02*
X136538500Y-90910750D01*
X162560000Y-99060000D02*
X160020000Y-99060000D01*
X160041250Y-85365250D02*
X159004000Y-84328000D01*
X162560000Y-96520000D02*
X155460700Y-96520000D01*
X157480000Y-101600000D02*
X155460700Y-101600000D01*
X155460700Y-86360000D02*
X156972000Y-86360000D01*
X156972000Y-86360000D02*
X158747250Y-88135250D01*
X139700000Y-99060000D02*
X142240000Y-101600000D01*
X142494000Y-91440000D02*
X141964750Y-90910750D01*
X139673250Y-85370750D02*
X140716000Y-84328000D01*
X158747250Y-88135250D02*
X163181500Y-88135250D01*
%TD*%
M02*
