%TF.GenerationSoftware,KiCad,Pcbnew,(7.0.0)*%
%TF.CreationDate,2024-01-25T20:54:46-05:00*%
%TF.ProjectId,BPF-Eval-Board,4250462d-4576-4616-9c2d-426f6172642e,rev?*%
%TF.SameCoordinates,Original*%
%TF.FileFunction,Drillmap*%
%TF.FilePolarity,Positive*%
%FSLAX45Y45*%
G04 Gerber Fmt 4.5, Leading zero omitted, Abs format (unit mm)*
G04 Created by KiCad (PCBNEW (7.0.0)) date 2024-01-25 20:54:46*
%MOMM*%
%LPD*%
G01*
G04 APERTURE LIST*
%ADD10C,0.100000*%
%ADD11C,0.200000*%
%ADD12C,0.110000*%
G04 APERTURE END LIST*
D10*
X11938000Y-7620000D02*
X18034000Y-7620000D01*
X18034000Y-7620000D02*
X18034000Y-10922000D01*
X18034000Y-10922000D02*
X11938000Y-10922000D01*
X11938000Y-10922000D02*
X11938000Y-7620000D01*
D11*
D12*
X12653000Y-9089000D02*
X12763000Y-9199000D01*
X12763000Y-9089000D02*
X12653000Y-9199000D01*
X17179000Y-9343000D02*
X17289000Y-9453000D01*
X17289000Y-9343000D02*
X17179000Y-9453000D01*
D11*
X12180619Y-11220476D02*
X12180619Y-11020476D01*
X12180619Y-11020476D02*
X12228238Y-11020476D01*
X12228238Y-11020476D02*
X12256809Y-11030000D01*
X12256809Y-11030000D02*
X12275857Y-11049048D01*
X12275857Y-11049048D02*
X12285381Y-11068095D01*
X12285381Y-11068095D02*
X12294905Y-11106190D01*
X12294905Y-11106190D02*
X12294905Y-11134762D01*
X12294905Y-11134762D02*
X12285381Y-11172857D01*
X12285381Y-11172857D02*
X12275857Y-11191905D01*
X12275857Y-11191905D02*
X12256809Y-11210952D01*
X12256809Y-11210952D02*
X12228238Y-11220476D01*
X12228238Y-11220476D02*
X12180619Y-11220476D01*
X12380619Y-11220476D02*
X12380619Y-11087143D01*
X12380619Y-11125238D02*
X12390143Y-11106190D01*
X12390143Y-11106190D02*
X12399667Y-11096667D01*
X12399667Y-11096667D02*
X12418714Y-11087143D01*
X12418714Y-11087143D02*
X12437762Y-11087143D01*
X12504428Y-11220476D02*
X12504428Y-11087143D01*
X12504428Y-11020476D02*
X12494905Y-11030000D01*
X12494905Y-11030000D02*
X12504428Y-11039524D01*
X12504428Y-11039524D02*
X12513952Y-11030000D01*
X12513952Y-11030000D02*
X12504428Y-11020476D01*
X12504428Y-11020476D02*
X12504428Y-11039524D01*
X12628238Y-11220476D02*
X12609190Y-11210952D01*
X12609190Y-11210952D02*
X12599667Y-11191905D01*
X12599667Y-11191905D02*
X12599667Y-11020476D01*
X12733000Y-11220476D02*
X12713952Y-11210952D01*
X12713952Y-11210952D02*
X12704428Y-11191905D01*
X12704428Y-11191905D02*
X12704428Y-11020476D01*
X12929190Y-11220476D02*
X12929190Y-11020476D01*
X12929190Y-11020476D02*
X12995857Y-11163333D01*
X12995857Y-11163333D02*
X13062524Y-11020476D01*
X13062524Y-11020476D02*
X13062524Y-11220476D01*
X13243476Y-11220476D02*
X13243476Y-11115714D01*
X13243476Y-11115714D02*
X13233952Y-11096667D01*
X13233952Y-11096667D02*
X13214905Y-11087143D01*
X13214905Y-11087143D02*
X13176809Y-11087143D01*
X13176809Y-11087143D02*
X13157762Y-11096667D01*
X13243476Y-11210952D02*
X13224428Y-11220476D01*
X13224428Y-11220476D02*
X13176809Y-11220476D01*
X13176809Y-11220476D02*
X13157762Y-11210952D01*
X13157762Y-11210952D02*
X13148238Y-11191905D01*
X13148238Y-11191905D02*
X13148238Y-11172857D01*
X13148238Y-11172857D02*
X13157762Y-11153810D01*
X13157762Y-11153810D02*
X13176809Y-11144286D01*
X13176809Y-11144286D02*
X13224428Y-11144286D01*
X13224428Y-11144286D02*
X13243476Y-11134762D01*
X13338714Y-11087143D02*
X13338714Y-11287143D01*
X13338714Y-11096667D02*
X13357762Y-11087143D01*
X13357762Y-11087143D02*
X13395857Y-11087143D01*
X13395857Y-11087143D02*
X13414905Y-11096667D01*
X13414905Y-11096667D02*
X13424428Y-11106190D01*
X13424428Y-11106190D02*
X13433952Y-11125238D01*
X13433952Y-11125238D02*
X13433952Y-11182381D01*
X13433952Y-11182381D02*
X13424428Y-11201428D01*
X13424428Y-11201428D02*
X13414905Y-11210952D01*
X13414905Y-11210952D02*
X13395857Y-11220476D01*
X13395857Y-11220476D02*
X13357762Y-11220476D01*
X13357762Y-11220476D02*
X13338714Y-11210952D01*
X13519667Y-11201428D02*
X13529190Y-11210952D01*
X13529190Y-11210952D02*
X13519667Y-11220476D01*
X13519667Y-11220476D02*
X13510143Y-11210952D01*
X13510143Y-11210952D02*
X13519667Y-11201428D01*
X13519667Y-11201428D02*
X13519667Y-11220476D01*
X13519667Y-11096667D02*
X13529190Y-11106190D01*
X13529190Y-11106190D02*
X13519667Y-11115714D01*
X13519667Y-11115714D02*
X13510143Y-11106190D01*
X13510143Y-11106190D02*
X13519667Y-11096667D01*
X13519667Y-11096667D02*
X13519667Y-11115714D01*
D12*
X11823000Y-11512000D02*
X11933000Y-11622000D01*
X11933000Y-11512000D02*
X11823000Y-11622000D01*
D11*
X12285381Y-11640476D02*
X12171095Y-11640476D01*
X12228238Y-11640476D02*
X12228238Y-11440476D01*
X12228238Y-11440476D02*
X12209190Y-11469048D01*
X12209190Y-11469048D02*
X12190143Y-11488095D01*
X12190143Y-11488095D02*
X12171095Y-11497619D01*
X12371095Y-11621428D02*
X12380619Y-11630952D01*
X12380619Y-11630952D02*
X12371095Y-11640476D01*
X12371095Y-11640476D02*
X12361571Y-11630952D01*
X12361571Y-11630952D02*
X12371095Y-11621428D01*
X12371095Y-11621428D02*
X12371095Y-11640476D01*
X12571095Y-11640476D02*
X12456809Y-11640476D01*
X12513952Y-11640476D02*
X12513952Y-11440476D01*
X12513952Y-11440476D02*
X12494905Y-11469048D01*
X12494905Y-11469048D02*
X12475857Y-11488095D01*
X12475857Y-11488095D02*
X12456809Y-11497619D01*
X12694905Y-11440476D02*
X12713952Y-11440476D01*
X12713952Y-11440476D02*
X12733000Y-11450000D01*
X12733000Y-11450000D02*
X12742524Y-11459524D01*
X12742524Y-11459524D02*
X12752048Y-11478571D01*
X12752048Y-11478571D02*
X12761571Y-11516667D01*
X12761571Y-11516667D02*
X12761571Y-11564286D01*
X12761571Y-11564286D02*
X12752048Y-11602381D01*
X12752048Y-11602381D02*
X12742524Y-11621428D01*
X12742524Y-11621428D02*
X12733000Y-11630952D01*
X12733000Y-11630952D02*
X12713952Y-11640476D01*
X12713952Y-11640476D02*
X12694905Y-11640476D01*
X12694905Y-11640476D02*
X12675857Y-11630952D01*
X12675857Y-11630952D02*
X12666333Y-11621428D01*
X12666333Y-11621428D02*
X12656809Y-11602381D01*
X12656809Y-11602381D02*
X12647286Y-11564286D01*
X12647286Y-11564286D02*
X12647286Y-11516667D01*
X12647286Y-11516667D02*
X12656809Y-11478571D01*
X12656809Y-11478571D02*
X12666333Y-11459524D01*
X12666333Y-11459524D02*
X12675857Y-11450000D01*
X12675857Y-11450000D02*
X12694905Y-11440476D01*
X12885381Y-11440476D02*
X12904429Y-11440476D01*
X12904429Y-11440476D02*
X12923476Y-11450000D01*
X12923476Y-11450000D02*
X12933000Y-11459524D01*
X12933000Y-11459524D02*
X12942524Y-11478571D01*
X12942524Y-11478571D02*
X12952048Y-11516667D01*
X12952048Y-11516667D02*
X12952048Y-11564286D01*
X12952048Y-11564286D02*
X12942524Y-11602381D01*
X12942524Y-11602381D02*
X12933000Y-11621428D01*
X12933000Y-11621428D02*
X12923476Y-11630952D01*
X12923476Y-11630952D02*
X12904429Y-11640476D01*
X12904429Y-11640476D02*
X12885381Y-11640476D01*
X12885381Y-11640476D02*
X12866333Y-11630952D01*
X12866333Y-11630952D02*
X12856809Y-11621428D01*
X12856809Y-11621428D02*
X12847286Y-11602381D01*
X12847286Y-11602381D02*
X12837762Y-11564286D01*
X12837762Y-11564286D02*
X12837762Y-11516667D01*
X12837762Y-11516667D02*
X12847286Y-11478571D01*
X12847286Y-11478571D02*
X12856809Y-11459524D01*
X12856809Y-11459524D02*
X12866333Y-11450000D01*
X12866333Y-11450000D02*
X12885381Y-11440476D01*
X13037762Y-11640476D02*
X13037762Y-11507143D01*
X13037762Y-11526190D02*
X13047286Y-11516667D01*
X13047286Y-11516667D02*
X13066333Y-11507143D01*
X13066333Y-11507143D02*
X13094905Y-11507143D01*
X13094905Y-11507143D02*
X13113952Y-11516667D01*
X13113952Y-11516667D02*
X13123476Y-11535714D01*
X13123476Y-11535714D02*
X13123476Y-11640476D01*
X13123476Y-11535714D02*
X13133000Y-11516667D01*
X13133000Y-11516667D02*
X13152048Y-11507143D01*
X13152048Y-11507143D02*
X13180619Y-11507143D01*
X13180619Y-11507143D02*
X13199667Y-11516667D01*
X13199667Y-11516667D02*
X13209190Y-11535714D01*
X13209190Y-11535714D02*
X13209190Y-11640476D01*
X13304429Y-11640476D02*
X13304429Y-11507143D01*
X13304429Y-11526190D02*
X13313952Y-11516667D01*
X13313952Y-11516667D02*
X13333000Y-11507143D01*
X13333000Y-11507143D02*
X13361571Y-11507143D01*
X13361571Y-11507143D02*
X13380619Y-11516667D01*
X13380619Y-11516667D02*
X13390143Y-11535714D01*
X13390143Y-11535714D02*
X13390143Y-11640476D01*
X13390143Y-11535714D02*
X13399667Y-11516667D01*
X13399667Y-11516667D02*
X13418714Y-11507143D01*
X13418714Y-11507143D02*
X13447286Y-11507143D01*
X13447286Y-11507143D02*
X13466333Y-11516667D01*
X13466333Y-11516667D02*
X13475857Y-11535714D01*
X13475857Y-11535714D02*
X13475857Y-11640476D01*
X13833952Y-11430952D02*
X13662524Y-11688095D01*
X14058714Y-11440476D02*
X14077762Y-11440476D01*
X14077762Y-11440476D02*
X14096810Y-11450000D01*
X14096810Y-11450000D02*
X14106333Y-11459524D01*
X14106333Y-11459524D02*
X14115857Y-11478571D01*
X14115857Y-11478571D02*
X14125381Y-11516667D01*
X14125381Y-11516667D02*
X14125381Y-11564286D01*
X14125381Y-11564286D02*
X14115857Y-11602381D01*
X14115857Y-11602381D02*
X14106333Y-11621428D01*
X14106333Y-11621428D02*
X14096810Y-11630952D01*
X14096810Y-11630952D02*
X14077762Y-11640476D01*
X14077762Y-11640476D02*
X14058714Y-11640476D01*
X14058714Y-11640476D02*
X14039667Y-11630952D01*
X14039667Y-11630952D02*
X14030143Y-11621428D01*
X14030143Y-11621428D02*
X14020619Y-11602381D01*
X14020619Y-11602381D02*
X14011095Y-11564286D01*
X14011095Y-11564286D02*
X14011095Y-11516667D01*
X14011095Y-11516667D02*
X14020619Y-11478571D01*
X14020619Y-11478571D02*
X14030143Y-11459524D01*
X14030143Y-11459524D02*
X14039667Y-11450000D01*
X14039667Y-11450000D02*
X14058714Y-11440476D01*
X14211095Y-11621428D02*
X14220619Y-11630952D01*
X14220619Y-11630952D02*
X14211095Y-11640476D01*
X14211095Y-11640476D02*
X14201571Y-11630952D01*
X14201571Y-11630952D02*
X14211095Y-11621428D01*
X14211095Y-11621428D02*
X14211095Y-11640476D01*
X14344429Y-11440476D02*
X14363476Y-11440476D01*
X14363476Y-11440476D02*
X14382524Y-11450000D01*
X14382524Y-11450000D02*
X14392048Y-11459524D01*
X14392048Y-11459524D02*
X14401571Y-11478571D01*
X14401571Y-11478571D02*
X14411095Y-11516667D01*
X14411095Y-11516667D02*
X14411095Y-11564286D01*
X14411095Y-11564286D02*
X14401571Y-11602381D01*
X14401571Y-11602381D02*
X14392048Y-11621428D01*
X14392048Y-11621428D02*
X14382524Y-11630952D01*
X14382524Y-11630952D02*
X14363476Y-11640476D01*
X14363476Y-11640476D02*
X14344429Y-11640476D01*
X14344429Y-11640476D02*
X14325381Y-11630952D01*
X14325381Y-11630952D02*
X14315857Y-11621428D01*
X14315857Y-11621428D02*
X14306333Y-11602381D01*
X14306333Y-11602381D02*
X14296810Y-11564286D01*
X14296810Y-11564286D02*
X14296810Y-11516667D01*
X14296810Y-11516667D02*
X14306333Y-11478571D01*
X14306333Y-11478571D02*
X14315857Y-11459524D01*
X14315857Y-11459524D02*
X14325381Y-11450000D01*
X14325381Y-11450000D02*
X14344429Y-11440476D01*
X14582524Y-11507143D02*
X14582524Y-11640476D01*
X14534905Y-11430952D02*
X14487286Y-11573809D01*
X14487286Y-11573809D02*
X14611095Y-11573809D01*
X14668238Y-11440476D02*
X14792048Y-11440476D01*
X14792048Y-11440476D02*
X14725381Y-11516667D01*
X14725381Y-11516667D02*
X14753952Y-11516667D01*
X14753952Y-11516667D02*
X14773000Y-11526190D01*
X14773000Y-11526190D02*
X14782524Y-11535714D01*
X14782524Y-11535714D02*
X14792048Y-11554762D01*
X14792048Y-11554762D02*
X14792048Y-11602381D01*
X14792048Y-11602381D02*
X14782524Y-11621428D01*
X14782524Y-11621428D02*
X14773000Y-11630952D01*
X14773000Y-11630952D02*
X14753952Y-11640476D01*
X14753952Y-11640476D02*
X14696810Y-11640476D01*
X14696810Y-11640476D02*
X14677762Y-11630952D01*
X14677762Y-11630952D02*
X14668238Y-11621428D01*
X14858714Y-11440476D02*
X14982524Y-11440476D01*
X14982524Y-11440476D02*
X14915857Y-11516667D01*
X14915857Y-11516667D02*
X14944429Y-11516667D01*
X14944429Y-11516667D02*
X14963476Y-11526190D01*
X14963476Y-11526190D02*
X14973000Y-11535714D01*
X14973000Y-11535714D02*
X14982524Y-11554762D01*
X14982524Y-11554762D02*
X14982524Y-11602381D01*
X14982524Y-11602381D02*
X14973000Y-11621428D01*
X14973000Y-11621428D02*
X14963476Y-11630952D01*
X14963476Y-11630952D02*
X14944429Y-11640476D01*
X14944429Y-11640476D02*
X14887286Y-11640476D01*
X14887286Y-11640476D02*
X14868238Y-11630952D01*
X14868238Y-11630952D02*
X14858714Y-11621428D01*
X15058714Y-11440476D02*
X15058714Y-11478571D01*
X15134905Y-11440476D02*
X15134905Y-11478571D01*
X15397762Y-11716667D02*
X15388238Y-11707143D01*
X15388238Y-11707143D02*
X15369191Y-11678571D01*
X15369191Y-11678571D02*
X15359667Y-11659524D01*
X15359667Y-11659524D02*
X15350143Y-11630952D01*
X15350143Y-11630952D02*
X15340619Y-11583333D01*
X15340619Y-11583333D02*
X15340619Y-11545238D01*
X15340619Y-11545238D02*
X15350143Y-11497619D01*
X15350143Y-11497619D02*
X15359667Y-11469048D01*
X15359667Y-11469048D02*
X15369191Y-11450000D01*
X15369191Y-11450000D02*
X15388238Y-11421428D01*
X15388238Y-11421428D02*
X15397762Y-11411905D01*
X15464429Y-11459524D02*
X15473952Y-11450000D01*
X15473952Y-11450000D02*
X15493000Y-11440476D01*
X15493000Y-11440476D02*
X15540619Y-11440476D01*
X15540619Y-11440476D02*
X15559667Y-11450000D01*
X15559667Y-11450000D02*
X15569191Y-11459524D01*
X15569191Y-11459524D02*
X15578714Y-11478571D01*
X15578714Y-11478571D02*
X15578714Y-11497619D01*
X15578714Y-11497619D02*
X15569191Y-11526190D01*
X15569191Y-11526190D02*
X15454905Y-11640476D01*
X15454905Y-11640476D02*
X15578714Y-11640476D01*
X15784429Y-11640476D02*
X15784429Y-11440476D01*
X15870143Y-11640476D02*
X15870143Y-11535714D01*
X15870143Y-11535714D02*
X15860619Y-11516667D01*
X15860619Y-11516667D02*
X15841572Y-11507143D01*
X15841572Y-11507143D02*
X15813000Y-11507143D01*
X15813000Y-11507143D02*
X15793952Y-11516667D01*
X15793952Y-11516667D02*
X15784429Y-11526190D01*
X15993952Y-11640476D02*
X15974905Y-11630952D01*
X15974905Y-11630952D02*
X15965381Y-11621428D01*
X15965381Y-11621428D02*
X15955857Y-11602381D01*
X15955857Y-11602381D02*
X15955857Y-11545238D01*
X15955857Y-11545238D02*
X15965381Y-11526190D01*
X15965381Y-11526190D02*
X15974905Y-11516667D01*
X15974905Y-11516667D02*
X15993952Y-11507143D01*
X15993952Y-11507143D02*
X16022524Y-11507143D01*
X16022524Y-11507143D02*
X16041572Y-11516667D01*
X16041572Y-11516667D02*
X16051095Y-11526190D01*
X16051095Y-11526190D02*
X16060619Y-11545238D01*
X16060619Y-11545238D02*
X16060619Y-11602381D01*
X16060619Y-11602381D02*
X16051095Y-11621428D01*
X16051095Y-11621428D02*
X16041572Y-11630952D01*
X16041572Y-11630952D02*
X16022524Y-11640476D01*
X16022524Y-11640476D02*
X15993952Y-11640476D01*
X16174905Y-11640476D02*
X16155857Y-11630952D01*
X16155857Y-11630952D02*
X16146333Y-11611905D01*
X16146333Y-11611905D02*
X16146333Y-11440476D01*
X16327286Y-11630952D02*
X16308238Y-11640476D01*
X16308238Y-11640476D02*
X16270143Y-11640476D01*
X16270143Y-11640476D02*
X16251095Y-11630952D01*
X16251095Y-11630952D02*
X16241572Y-11611905D01*
X16241572Y-11611905D02*
X16241572Y-11535714D01*
X16241572Y-11535714D02*
X16251095Y-11516667D01*
X16251095Y-11516667D02*
X16270143Y-11507143D01*
X16270143Y-11507143D02*
X16308238Y-11507143D01*
X16308238Y-11507143D02*
X16327286Y-11516667D01*
X16327286Y-11516667D02*
X16336810Y-11535714D01*
X16336810Y-11535714D02*
X16336810Y-11554762D01*
X16336810Y-11554762D02*
X16241572Y-11573809D01*
X16413000Y-11630952D02*
X16432048Y-11640476D01*
X16432048Y-11640476D02*
X16470143Y-11640476D01*
X16470143Y-11640476D02*
X16489191Y-11630952D01*
X16489191Y-11630952D02*
X16498714Y-11611905D01*
X16498714Y-11611905D02*
X16498714Y-11602381D01*
X16498714Y-11602381D02*
X16489191Y-11583333D01*
X16489191Y-11583333D02*
X16470143Y-11573809D01*
X16470143Y-11573809D02*
X16441572Y-11573809D01*
X16441572Y-11573809D02*
X16422524Y-11564286D01*
X16422524Y-11564286D02*
X16413000Y-11545238D01*
X16413000Y-11545238D02*
X16413000Y-11535714D01*
X16413000Y-11535714D02*
X16422524Y-11516667D01*
X16422524Y-11516667D02*
X16441572Y-11507143D01*
X16441572Y-11507143D02*
X16470143Y-11507143D01*
X16470143Y-11507143D02*
X16489191Y-11516667D01*
X16565381Y-11716667D02*
X16574905Y-11707143D01*
X16574905Y-11707143D02*
X16593953Y-11678571D01*
X16593953Y-11678571D02*
X16603476Y-11659524D01*
X16603476Y-11659524D02*
X16613000Y-11630952D01*
X16613000Y-11630952D02*
X16622524Y-11583333D01*
X16622524Y-11583333D02*
X16622524Y-11545238D01*
X16622524Y-11545238D02*
X16613000Y-11497619D01*
X16613000Y-11497619D02*
X16603476Y-11469048D01*
X16603476Y-11469048D02*
X16593953Y-11450000D01*
X16593953Y-11450000D02*
X16574905Y-11421428D01*
X16574905Y-11421428D02*
X16565381Y-11411905D01*
X16894905Y-11716667D02*
X16885381Y-11707143D01*
X16885381Y-11707143D02*
X16866334Y-11678571D01*
X16866334Y-11678571D02*
X16856810Y-11659524D01*
X16856810Y-11659524D02*
X16847286Y-11630952D01*
X16847286Y-11630952D02*
X16837762Y-11583333D01*
X16837762Y-11583333D02*
X16837762Y-11545238D01*
X16837762Y-11545238D02*
X16847286Y-11497619D01*
X16847286Y-11497619D02*
X16856810Y-11469048D01*
X16856810Y-11469048D02*
X16866334Y-11450000D01*
X16866334Y-11450000D02*
X16885381Y-11421428D01*
X16885381Y-11421428D02*
X16894905Y-11411905D01*
X16971095Y-11507143D02*
X16971095Y-11640476D01*
X16971095Y-11526190D02*
X16980619Y-11516667D01*
X16980619Y-11516667D02*
X16999667Y-11507143D01*
X16999667Y-11507143D02*
X17028238Y-11507143D01*
X17028238Y-11507143D02*
X17047286Y-11516667D01*
X17047286Y-11516667D02*
X17056810Y-11535714D01*
X17056810Y-11535714D02*
X17056810Y-11640476D01*
X17180619Y-11640476D02*
X17161572Y-11630952D01*
X17161572Y-11630952D02*
X17152048Y-11621428D01*
X17152048Y-11621428D02*
X17142524Y-11602381D01*
X17142524Y-11602381D02*
X17142524Y-11545238D01*
X17142524Y-11545238D02*
X17152048Y-11526190D01*
X17152048Y-11526190D02*
X17161572Y-11516667D01*
X17161572Y-11516667D02*
X17180619Y-11507143D01*
X17180619Y-11507143D02*
X17209191Y-11507143D01*
X17209191Y-11507143D02*
X17228238Y-11516667D01*
X17228238Y-11516667D02*
X17237762Y-11526190D01*
X17237762Y-11526190D02*
X17247286Y-11545238D01*
X17247286Y-11545238D02*
X17247286Y-11602381D01*
X17247286Y-11602381D02*
X17237762Y-11621428D01*
X17237762Y-11621428D02*
X17228238Y-11630952D01*
X17228238Y-11630952D02*
X17209191Y-11640476D01*
X17209191Y-11640476D02*
X17180619Y-11640476D01*
X17304429Y-11507143D02*
X17380619Y-11507143D01*
X17333000Y-11440476D02*
X17333000Y-11611905D01*
X17333000Y-11611905D02*
X17342524Y-11630952D01*
X17342524Y-11630952D02*
X17361572Y-11640476D01*
X17361572Y-11640476D02*
X17380619Y-11640476D01*
X17567286Y-11507143D02*
X17567286Y-11707143D01*
X17567286Y-11516667D02*
X17586334Y-11507143D01*
X17586334Y-11507143D02*
X17624429Y-11507143D01*
X17624429Y-11507143D02*
X17643476Y-11516667D01*
X17643476Y-11516667D02*
X17653000Y-11526190D01*
X17653000Y-11526190D02*
X17662524Y-11545238D01*
X17662524Y-11545238D02*
X17662524Y-11602381D01*
X17662524Y-11602381D02*
X17653000Y-11621428D01*
X17653000Y-11621428D02*
X17643476Y-11630952D01*
X17643476Y-11630952D02*
X17624429Y-11640476D01*
X17624429Y-11640476D02*
X17586334Y-11640476D01*
X17586334Y-11640476D02*
X17567286Y-11630952D01*
X17776810Y-11640476D02*
X17757762Y-11630952D01*
X17757762Y-11630952D02*
X17748238Y-11611905D01*
X17748238Y-11611905D02*
X17748238Y-11440476D01*
X17938715Y-11640476D02*
X17938715Y-11535714D01*
X17938715Y-11535714D02*
X17929191Y-11516667D01*
X17929191Y-11516667D02*
X17910143Y-11507143D01*
X17910143Y-11507143D02*
X17872048Y-11507143D01*
X17872048Y-11507143D02*
X17853000Y-11516667D01*
X17938715Y-11630952D02*
X17919667Y-11640476D01*
X17919667Y-11640476D02*
X17872048Y-11640476D01*
X17872048Y-11640476D02*
X17853000Y-11630952D01*
X17853000Y-11630952D02*
X17843476Y-11611905D01*
X17843476Y-11611905D02*
X17843476Y-11592857D01*
X17843476Y-11592857D02*
X17853000Y-11573809D01*
X17853000Y-11573809D02*
X17872048Y-11564286D01*
X17872048Y-11564286D02*
X17919667Y-11564286D01*
X17919667Y-11564286D02*
X17938715Y-11554762D01*
X18005381Y-11507143D02*
X18081572Y-11507143D01*
X18033953Y-11440476D02*
X18033953Y-11611905D01*
X18033953Y-11611905D02*
X18043476Y-11630952D01*
X18043476Y-11630952D02*
X18062524Y-11640476D01*
X18062524Y-11640476D02*
X18081572Y-11640476D01*
X18224429Y-11630952D02*
X18205381Y-11640476D01*
X18205381Y-11640476D02*
X18167286Y-11640476D01*
X18167286Y-11640476D02*
X18148238Y-11630952D01*
X18148238Y-11630952D02*
X18138715Y-11611905D01*
X18138715Y-11611905D02*
X18138715Y-11535714D01*
X18138715Y-11535714D02*
X18148238Y-11516667D01*
X18148238Y-11516667D02*
X18167286Y-11507143D01*
X18167286Y-11507143D02*
X18205381Y-11507143D01*
X18205381Y-11507143D02*
X18224429Y-11516667D01*
X18224429Y-11516667D02*
X18233953Y-11535714D01*
X18233953Y-11535714D02*
X18233953Y-11554762D01*
X18233953Y-11554762D02*
X18138715Y-11573809D01*
X18405381Y-11640476D02*
X18405381Y-11440476D01*
X18405381Y-11630952D02*
X18386334Y-11640476D01*
X18386334Y-11640476D02*
X18348238Y-11640476D01*
X18348238Y-11640476D02*
X18329191Y-11630952D01*
X18329191Y-11630952D02*
X18319667Y-11621428D01*
X18319667Y-11621428D02*
X18310143Y-11602381D01*
X18310143Y-11602381D02*
X18310143Y-11545238D01*
X18310143Y-11545238D02*
X18319667Y-11526190D01*
X18319667Y-11526190D02*
X18329191Y-11516667D01*
X18329191Y-11516667D02*
X18348238Y-11507143D01*
X18348238Y-11507143D02*
X18386334Y-11507143D01*
X18386334Y-11507143D02*
X18405381Y-11516667D01*
X18481572Y-11716667D02*
X18491096Y-11707143D01*
X18491096Y-11707143D02*
X18510143Y-11678571D01*
X18510143Y-11678571D02*
X18519667Y-11659524D01*
X18519667Y-11659524D02*
X18529191Y-11630952D01*
X18529191Y-11630952D02*
X18538715Y-11583333D01*
X18538715Y-11583333D02*
X18538715Y-11545238D01*
X18538715Y-11545238D02*
X18529191Y-11497619D01*
X18529191Y-11497619D02*
X18519667Y-11469048D01*
X18519667Y-11469048D02*
X18510143Y-11450000D01*
X18510143Y-11450000D02*
X18491096Y-11421428D01*
X18491096Y-11421428D02*
X18481572Y-11411905D01*
M02*
