%TF.GenerationSoftware,KiCad,Pcbnew,(7.0.0)*%
%TF.CreationDate,2024-01-29T17:46:40-05:00*%
%TF.ProjectId,BPF-Eval-Board,4250462d-4576-4616-9c2d-426f6172642e,rev?*%
%TF.SameCoordinates,Original*%
%TF.FileFunction,Copper,L1,Top*%
%TF.FilePolarity,Positive*%
%FSLAX46Y46*%
G04 Gerber Fmt 4.6, Leading zero omitted, Abs format (unit mm)*
G04 Created by KiCad (PCBNEW (7.0.0)) date 2024-01-29 17:46:40*
%MOMM*%
%LPD*%
G01*
G04 APERTURE LIST*
%ADD10C,0.300000*%
%TA.AperFunction,NonConductor*%
%ADD11C,0.300000*%
%TD*%
%TA.AperFunction,ComponentPad*%
%ADD12R,1.700000X1.700000*%
%TD*%
%TA.AperFunction,ComponentPad*%
%ADD13O,1.700000X1.700000*%
%TD*%
%TA.AperFunction,SMDPad,CuDef*%
%ADD14R,4.560000X0.850000*%
%TD*%
%TA.AperFunction,SMDPad,CuDef*%
%ADD15R,4.560000X1.000000*%
%TD*%
%TA.AperFunction,SMDPad,CuDef*%
%ADD16R,1.889000X1.422400*%
%TD*%
%TA.AperFunction,Conductor*%
%ADD17C,0.762000*%
%TD*%
G04 APERTURE END LIST*
D10*
D11*
X134977142Y-106353571D02*
X134977142Y-104853571D01*
X134977142Y-104853571D02*
X135477142Y-105925000D01*
X135477142Y-105925000D02*
X135977142Y-104853571D01*
X135977142Y-104853571D02*
X135977142Y-106353571D01*
X137334286Y-106353571D02*
X137334286Y-105567857D01*
X137334286Y-105567857D02*
X137262857Y-105425000D01*
X137262857Y-105425000D02*
X137120000Y-105353571D01*
X137120000Y-105353571D02*
X136834286Y-105353571D01*
X136834286Y-105353571D02*
X136691428Y-105425000D01*
X137334286Y-106282142D02*
X137191428Y-106353571D01*
X137191428Y-106353571D02*
X136834286Y-106353571D01*
X136834286Y-106353571D02*
X136691428Y-106282142D01*
X136691428Y-106282142D02*
X136620000Y-106139285D01*
X136620000Y-106139285D02*
X136620000Y-105996428D01*
X136620000Y-105996428D02*
X136691428Y-105853571D01*
X136691428Y-105853571D02*
X136834286Y-105782142D01*
X136834286Y-105782142D02*
X137191428Y-105782142D01*
X137191428Y-105782142D02*
X137334286Y-105710714D01*
X138691429Y-106282142D02*
X138548571Y-106353571D01*
X138548571Y-106353571D02*
X138262857Y-106353571D01*
X138262857Y-106353571D02*
X138120000Y-106282142D01*
X138120000Y-106282142D02*
X138048571Y-106210714D01*
X138048571Y-106210714D02*
X137977143Y-106067857D01*
X137977143Y-106067857D02*
X137977143Y-105639285D01*
X137977143Y-105639285D02*
X138048571Y-105496428D01*
X138048571Y-105496428D02*
X138120000Y-105425000D01*
X138120000Y-105425000D02*
X138262857Y-105353571D01*
X138262857Y-105353571D02*
X138548571Y-105353571D01*
X138548571Y-105353571D02*
X138691429Y-105425000D01*
X139334285Y-106353571D02*
X139334285Y-105353571D01*
X139334285Y-105639285D02*
X139405714Y-105496428D01*
X139405714Y-105496428D02*
X139477143Y-105425000D01*
X139477143Y-105425000D02*
X139620000Y-105353571D01*
X139620000Y-105353571D02*
X139762857Y-105353571D01*
X140477142Y-106353571D02*
X140334285Y-106282142D01*
X140334285Y-106282142D02*
X140262856Y-106210714D01*
X140262856Y-106210714D02*
X140191428Y-106067857D01*
X140191428Y-106067857D02*
X140191428Y-105639285D01*
X140191428Y-105639285D02*
X140262856Y-105496428D01*
X140262856Y-105496428D02*
X140334285Y-105425000D01*
X140334285Y-105425000D02*
X140477142Y-105353571D01*
X140477142Y-105353571D02*
X140691428Y-105353571D01*
X140691428Y-105353571D02*
X140834285Y-105425000D01*
X140834285Y-105425000D02*
X140905714Y-105496428D01*
X140905714Y-105496428D02*
X140977142Y-105639285D01*
X140977142Y-105639285D02*
X140977142Y-106067857D01*
X140977142Y-106067857D02*
X140905714Y-106210714D01*
X140905714Y-106210714D02*
X140834285Y-106282142D01*
X140834285Y-106282142D02*
X140691428Y-106353571D01*
X140691428Y-106353571D02*
X140477142Y-106353571D01*
X141619999Y-105353571D02*
X141619999Y-106853571D01*
X141619999Y-105425000D02*
X141762857Y-105353571D01*
X141762857Y-105353571D02*
X142048571Y-105353571D01*
X142048571Y-105353571D02*
X142191428Y-105425000D01*
X142191428Y-105425000D02*
X142262857Y-105496428D01*
X142262857Y-105496428D02*
X142334285Y-105639285D01*
X142334285Y-105639285D02*
X142334285Y-106067857D01*
X142334285Y-106067857D02*
X142262857Y-106210714D01*
X142262857Y-106210714D02*
X142191428Y-106282142D01*
X142191428Y-106282142D02*
X142048571Y-106353571D01*
X142048571Y-106353571D02*
X141762857Y-106353571D01*
X141762857Y-106353571D02*
X141619999Y-106282142D01*
X142977142Y-106353571D02*
X142977142Y-104853571D01*
X143620000Y-106353571D02*
X143620000Y-105567857D01*
X143620000Y-105567857D02*
X143548571Y-105425000D01*
X143548571Y-105425000D02*
X143405714Y-105353571D01*
X143405714Y-105353571D02*
X143191428Y-105353571D01*
X143191428Y-105353571D02*
X143048571Y-105425000D01*
X143048571Y-105425000D02*
X142977142Y-105496428D01*
X144120000Y-105353571D02*
X144691428Y-105353571D01*
X144334285Y-104853571D02*
X144334285Y-106139285D01*
X144334285Y-106139285D02*
X144405714Y-106282142D01*
X144405714Y-106282142D02*
X144548571Y-106353571D01*
X144548571Y-106353571D02*
X144691428Y-106353571D01*
X145191428Y-106353571D02*
X145191428Y-104853571D01*
X145834286Y-106353571D02*
X145834286Y-105567857D01*
X145834286Y-105567857D02*
X145762857Y-105425000D01*
X145762857Y-105425000D02*
X145620000Y-105353571D01*
X145620000Y-105353571D02*
X145405714Y-105353571D01*
X145405714Y-105353571D02*
X145262857Y-105425000D01*
X145262857Y-105425000D02*
X145191428Y-105496428D01*
X147191429Y-106353571D02*
X147191429Y-105567857D01*
X147191429Y-105567857D02*
X147120000Y-105425000D01*
X147120000Y-105425000D02*
X146977143Y-105353571D01*
X146977143Y-105353571D02*
X146691429Y-105353571D01*
X146691429Y-105353571D02*
X146548571Y-105425000D01*
X147191429Y-106282142D02*
X147048571Y-106353571D01*
X147048571Y-106353571D02*
X146691429Y-106353571D01*
X146691429Y-106353571D02*
X146548571Y-106282142D01*
X146548571Y-106282142D02*
X146477143Y-106139285D01*
X146477143Y-106139285D02*
X146477143Y-105996428D01*
X146477143Y-105996428D02*
X146548571Y-105853571D01*
X146548571Y-105853571D02*
X146691429Y-105782142D01*
X146691429Y-105782142D02*
X147048571Y-105782142D01*
X147048571Y-105782142D02*
X147191429Y-105710714D01*
X148120000Y-106353571D02*
X147977143Y-106282142D01*
X147977143Y-106282142D02*
X147905714Y-106139285D01*
X147905714Y-106139285D02*
X147905714Y-104853571D01*
X148691428Y-106353571D02*
X148691428Y-105353571D01*
X148691428Y-105496428D02*
X148762857Y-105425000D01*
X148762857Y-105425000D02*
X148905714Y-105353571D01*
X148905714Y-105353571D02*
X149120000Y-105353571D01*
X149120000Y-105353571D02*
X149262857Y-105425000D01*
X149262857Y-105425000D02*
X149334286Y-105567857D01*
X149334286Y-105567857D02*
X149334286Y-106353571D01*
X149334286Y-105567857D02*
X149405714Y-105425000D01*
X149405714Y-105425000D02*
X149548571Y-105353571D01*
X149548571Y-105353571D02*
X149762857Y-105353571D01*
X149762857Y-105353571D02*
X149905714Y-105425000D01*
X149905714Y-105425000D02*
X149977143Y-105567857D01*
X149977143Y-105567857D02*
X149977143Y-106353571D01*
X151334286Y-105353571D02*
X151334286Y-106353571D01*
X150691428Y-105353571D02*
X150691428Y-106139285D01*
X150691428Y-106139285D02*
X150762857Y-106282142D01*
X150762857Y-106282142D02*
X150905714Y-106353571D01*
X150905714Y-106353571D02*
X151120000Y-106353571D01*
X151120000Y-106353571D02*
X151262857Y-106282142D01*
X151262857Y-106282142D02*
X151334286Y-106210714D01*
X151977143Y-106282142D02*
X152120000Y-106353571D01*
X152120000Y-106353571D02*
X152405714Y-106353571D01*
X152405714Y-106353571D02*
X152548571Y-106282142D01*
X152548571Y-106282142D02*
X152620000Y-106139285D01*
X152620000Y-106139285D02*
X152620000Y-106067857D01*
X152620000Y-106067857D02*
X152548571Y-105925000D01*
X152548571Y-105925000D02*
X152405714Y-105853571D01*
X152405714Y-105853571D02*
X152191429Y-105853571D01*
X152191429Y-105853571D02*
X152048571Y-105782142D01*
X152048571Y-105782142D02*
X151977143Y-105639285D01*
X151977143Y-105639285D02*
X151977143Y-105567857D01*
X151977143Y-105567857D02*
X152048571Y-105425000D01*
X152048571Y-105425000D02*
X152191429Y-105353571D01*
X152191429Y-105353571D02*
X152405714Y-105353571D01*
X152405714Y-105353571D02*
X152548571Y-105425000D01*
D12*
%TO.P,REF\u002A\u002A,1*%
%TO.N,N/C*%
X137159999Y-96519999D03*
D13*
%TO.P,REF\u002A\u002A,2*%
X137159999Y-99059999D03*
%TD*%
D12*
%TO.P,REF\u002A\u002A,1*%
%TO.N,N/C*%
X162559999Y-96519999D03*
D13*
%TO.P,REF\u002A\u002A,2*%
X162559999Y-99059999D03*
%TD*%
D14*
%TO.P,REF\u002A\u002A,1*%
%TO.N,N/C*%
X163181499Y-88135249D03*
D15*
%TO.P,REF\u002A\u002A,SH1*%
X163181499Y-90905249D03*
%TO.P,REF\u002A\u002A,SH2*%
X163181499Y-85365249D03*
%TD*%
D14*
%TO.P,REF\u002A\u002A,1*%
%TO.N,N/C*%
X136538499Y-88140749D03*
D15*
%TO.P,REF\u002A\u002A,SH1*%
X136538499Y-85370749D03*
%TO.P,REF\u002A\u002A,SH2*%
X136538499Y-90910749D03*
%TD*%
D16*
%TO.P,REF\u002A\u002A,1*%
%TO.N,N/C*%
X145259299Y-86359999D03*
%TO.P,REF\u002A\u002A,2*%
X154460699Y-86359999D03*
%TO.P,REF\u002A\u002A,3*%
X145259299Y-91439999D03*
%TO.P,REF\u002A\u002A,4*%
X154460699Y-91439999D03*
%TO.P,REF\u002A\u002A,5*%
X145259299Y-96519999D03*
%TO.P,REF\u002A\u002A,6*%
X154460699Y-96519999D03*
%TO.P,REF\u002A\u002A,7*%
X145259299Y-101599999D03*
%TO.P,REF\u002A\u002A,8*%
X154460699Y-101599999D03*
%TD*%
D17*
%TO.N,*%
X158522750Y-90905250D02*
X163181500Y-90905250D01*
X163181500Y-85365250D02*
X160041250Y-85365250D01*
X142240000Y-101600000D02*
X144259300Y-101600000D01*
X142748000Y-86360000D02*
X140967250Y-88140750D01*
X160020000Y-99060000D02*
X157480000Y-101600000D01*
X144259300Y-91440000D02*
X142494000Y-91440000D01*
X157988000Y-91440000D02*
X158522750Y-90905250D01*
X140967250Y-88140750D02*
X136538500Y-88140750D01*
X137160000Y-99060000D02*
X139700000Y-99060000D01*
X137160000Y-96520000D02*
X144259300Y-96520000D01*
X144259300Y-86360000D02*
X142748000Y-86360000D01*
X155460700Y-91440000D02*
X157988000Y-91440000D01*
X136538500Y-85370750D02*
X139673250Y-85370750D01*
X141964750Y-90910750D02*
X136538500Y-90910750D01*
X162560000Y-99060000D02*
X160020000Y-99060000D01*
X160041250Y-85365250D02*
X159004000Y-84328000D01*
X162560000Y-96520000D02*
X155460700Y-96520000D01*
X157480000Y-101600000D02*
X155460700Y-101600000D01*
X155460700Y-86360000D02*
X156972000Y-86360000D01*
X156972000Y-86360000D02*
X158747250Y-88135250D01*
X139700000Y-99060000D02*
X142240000Y-101600000D01*
X142494000Y-91440000D02*
X141964750Y-90910750D01*
X139673250Y-85370750D02*
X140716000Y-84328000D01*
X158747250Y-88135250D02*
X163181500Y-88135250D01*
%TD*%
M02*
