%TF.GenerationSoftware,KiCad,Pcbnew,(7.0.0)*%
%TF.CreationDate,2024-01-29T17:46:37-05:00*%
%TF.ProjectId,BPF-Eval-Board,4250462d-4576-4616-9c2d-426f6172642e,rev?*%
%TF.SameCoordinates,Original*%
%TF.FileFunction,Drillmap*%
%TF.FilePolarity,Positive*%
%FSLAX45Y45*%
G04 Gerber Fmt 4.5, Leading zero omitted, Abs format (unit mm)*
G04 Created by KiCad (PCBNEW (7.0.0)) date 2024-01-29 17:46:37*
%MOMM*%
%LPD*%
G01*
G04 APERTURE LIST*
%ADD10C,0.100000*%
%ADD11C,0.200000*%
G04 APERTURE END LIST*
D10*
X13411200Y-8280400D02*
X16560800Y-8280400D01*
X16560800Y-8280400D02*
X16560800Y-10744200D01*
X16560800Y-10744200D02*
X13411200Y-10744200D01*
X13411200Y-10744200D02*
X13411200Y-8280400D01*
D11*
X13653819Y-11042676D02*
X13653819Y-10842676D01*
X13653819Y-10842676D02*
X13701438Y-10842676D01*
X13701438Y-10842676D02*
X13730009Y-10852200D01*
X13730009Y-10852200D02*
X13749057Y-10871248D01*
X13749057Y-10871248D02*
X13758581Y-10890295D01*
X13758581Y-10890295D02*
X13768105Y-10928390D01*
X13768105Y-10928390D02*
X13768105Y-10956962D01*
X13768105Y-10956962D02*
X13758581Y-10995057D01*
X13758581Y-10995057D02*
X13749057Y-11014105D01*
X13749057Y-11014105D02*
X13730009Y-11033152D01*
X13730009Y-11033152D02*
X13701438Y-11042676D01*
X13701438Y-11042676D02*
X13653819Y-11042676D01*
X13853819Y-11042676D02*
X13853819Y-10909343D01*
X13853819Y-10947438D02*
X13863343Y-10928390D01*
X13863343Y-10928390D02*
X13872867Y-10918867D01*
X13872867Y-10918867D02*
X13891914Y-10909343D01*
X13891914Y-10909343D02*
X13910962Y-10909343D01*
X13977628Y-11042676D02*
X13977628Y-10909343D01*
X13977628Y-10842676D02*
X13968105Y-10852200D01*
X13968105Y-10852200D02*
X13977628Y-10861724D01*
X13977628Y-10861724D02*
X13987152Y-10852200D01*
X13987152Y-10852200D02*
X13977628Y-10842676D01*
X13977628Y-10842676D02*
X13977628Y-10861724D01*
X14101438Y-11042676D02*
X14082390Y-11033152D01*
X14082390Y-11033152D02*
X14072867Y-11014105D01*
X14072867Y-11014105D02*
X14072867Y-10842676D01*
X14206200Y-11042676D02*
X14187152Y-11033152D01*
X14187152Y-11033152D02*
X14177628Y-11014105D01*
X14177628Y-11014105D02*
X14177628Y-10842676D01*
X14402390Y-11042676D02*
X14402390Y-10842676D01*
X14402390Y-10842676D02*
X14469057Y-10985533D01*
X14469057Y-10985533D02*
X14535724Y-10842676D01*
X14535724Y-10842676D02*
X14535724Y-11042676D01*
X14716676Y-11042676D02*
X14716676Y-10937914D01*
X14716676Y-10937914D02*
X14707152Y-10918867D01*
X14707152Y-10918867D02*
X14688105Y-10909343D01*
X14688105Y-10909343D02*
X14650009Y-10909343D01*
X14650009Y-10909343D02*
X14630962Y-10918867D01*
X14716676Y-11033152D02*
X14697628Y-11042676D01*
X14697628Y-11042676D02*
X14650009Y-11042676D01*
X14650009Y-11042676D02*
X14630962Y-11033152D01*
X14630962Y-11033152D02*
X14621438Y-11014105D01*
X14621438Y-11014105D02*
X14621438Y-10995057D01*
X14621438Y-10995057D02*
X14630962Y-10976010D01*
X14630962Y-10976010D02*
X14650009Y-10966486D01*
X14650009Y-10966486D02*
X14697628Y-10966486D01*
X14697628Y-10966486D02*
X14716676Y-10956962D01*
X14811914Y-10909343D02*
X14811914Y-11109343D01*
X14811914Y-10918867D02*
X14830962Y-10909343D01*
X14830962Y-10909343D02*
X14869057Y-10909343D01*
X14869057Y-10909343D02*
X14888105Y-10918867D01*
X14888105Y-10918867D02*
X14897628Y-10928390D01*
X14897628Y-10928390D02*
X14907152Y-10947438D01*
X14907152Y-10947438D02*
X14907152Y-11004581D01*
X14907152Y-11004581D02*
X14897628Y-11023629D01*
X14897628Y-11023629D02*
X14888105Y-11033152D01*
X14888105Y-11033152D02*
X14869057Y-11042676D01*
X14869057Y-11042676D02*
X14830962Y-11042676D01*
X14830962Y-11042676D02*
X14811914Y-11033152D01*
X14992867Y-11023629D02*
X15002390Y-11033152D01*
X15002390Y-11033152D02*
X14992867Y-11042676D01*
X14992867Y-11042676D02*
X14983343Y-11033152D01*
X14983343Y-11033152D02*
X14992867Y-11023629D01*
X14992867Y-11023629D02*
X14992867Y-11042676D01*
X14992867Y-10918867D02*
X15002390Y-10928390D01*
X15002390Y-10928390D02*
X14992867Y-10937914D01*
X14992867Y-10937914D02*
X14983343Y-10928390D01*
X14983343Y-10928390D02*
X14992867Y-10918867D01*
X14992867Y-10918867D02*
X14992867Y-10937914D01*
M02*
