%TF.GenerationSoftware,KiCad,Pcbnew,(7.0.0)*%
%TF.CreationDate,2024-01-29T17:46:37-05:00*%
%TF.ProjectId,BPF-Eval-Board,4250462d-4576-4616-9c2d-426f6172642e,rev?*%
%TF.SameCoordinates,Original*%
%TF.FileFunction,Drillmap*%
%TF.FilePolarity,Positive*%
%FSLAX45Y45*%
G04 Gerber Fmt 4.5, Leading zero omitted, Abs format (unit mm)*
G04 Created by KiCad (PCBNEW (7.0.0)) date 2024-01-29 17:46:37*
%MOMM*%
%LPD*%
G01*
G04 APERTURE LIST*
%ADD10C,0.100000*%
%ADD11C,0.200000*%
G04 APERTURE END LIST*
D10*
X13411200Y-8280400D02*
X16560800Y-8280400D01*
X16560800Y-8280400D02*
X16560800Y-10744200D01*
X16560800Y-10744200D02*
X13411200Y-10744200D01*
X13411200Y-10744200D02*
X13411200Y-8280400D01*
D11*
D10*
X13666000Y-9602000D02*
X13766000Y-9702000D01*
X13766000Y-9602000D02*
X13666000Y-9702000D01*
X13666000Y-9856000D02*
X13766000Y-9956000D01*
X13766000Y-9856000D02*
X13666000Y-9956000D01*
X16206000Y-9602000D02*
X16306000Y-9702000D01*
X16306000Y-9602000D02*
X16206000Y-9702000D01*
X16206000Y-9856000D02*
X16306000Y-9956000D01*
X16306000Y-9856000D02*
X16206000Y-9956000D01*
D11*
X13653819Y-11042676D02*
X13653819Y-10842676D01*
X13653819Y-10842676D02*
X13701438Y-10842676D01*
X13701438Y-10842676D02*
X13730009Y-10852200D01*
X13730009Y-10852200D02*
X13749057Y-10871248D01*
X13749057Y-10871248D02*
X13758581Y-10890295D01*
X13758581Y-10890295D02*
X13768105Y-10928390D01*
X13768105Y-10928390D02*
X13768105Y-10956962D01*
X13768105Y-10956962D02*
X13758581Y-10995057D01*
X13758581Y-10995057D02*
X13749057Y-11014105D01*
X13749057Y-11014105D02*
X13730009Y-11033152D01*
X13730009Y-11033152D02*
X13701438Y-11042676D01*
X13701438Y-11042676D02*
X13653819Y-11042676D01*
X13853819Y-11042676D02*
X13853819Y-10909343D01*
X13853819Y-10947438D02*
X13863343Y-10928390D01*
X13863343Y-10928390D02*
X13872867Y-10918867D01*
X13872867Y-10918867D02*
X13891914Y-10909343D01*
X13891914Y-10909343D02*
X13910962Y-10909343D01*
X13977628Y-11042676D02*
X13977628Y-10909343D01*
X13977628Y-10842676D02*
X13968105Y-10852200D01*
X13968105Y-10852200D02*
X13977628Y-10861724D01*
X13977628Y-10861724D02*
X13987152Y-10852200D01*
X13987152Y-10852200D02*
X13977628Y-10842676D01*
X13977628Y-10842676D02*
X13977628Y-10861724D01*
X14101438Y-11042676D02*
X14082390Y-11033152D01*
X14082390Y-11033152D02*
X14072867Y-11014105D01*
X14072867Y-11014105D02*
X14072867Y-10842676D01*
X14206200Y-11042676D02*
X14187152Y-11033152D01*
X14187152Y-11033152D02*
X14177628Y-11014105D01*
X14177628Y-11014105D02*
X14177628Y-10842676D01*
X14402390Y-11042676D02*
X14402390Y-10842676D01*
X14402390Y-10842676D02*
X14469057Y-10985533D01*
X14469057Y-10985533D02*
X14535724Y-10842676D01*
X14535724Y-10842676D02*
X14535724Y-11042676D01*
X14716676Y-11042676D02*
X14716676Y-10937914D01*
X14716676Y-10937914D02*
X14707152Y-10918867D01*
X14707152Y-10918867D02*
X14688105Y-10909343D01*
X14688105Y-10909343D02*
X14650009Y-10909343D01*
X14650009Y-10909343D02*
X14630962Y-10918867D01*
X14716676Y-11033152D02*
X14697628Y-11042676D01*
X14697628Y-11042676D02*
X14650009Y-11042676D01*
X14650009Y-11042676D02*
X14630962Y-11033152D01*
X14630962Y-11033152D02*
X14621438Y-11014105D01*
X14621438Y-11014105D02*
X14621438Y-10995057D01*
X14621438Y-10995057D02*
X14630962Y-10976010D01*
X14630962Y-10976010D02*
X14650009Y-10966486D01*
X14650009Y-10966486D02*
X14697628Y-10966486D01*
X14697628Y-10966486D02*
X14716676Y-10956962D01*
X14811914Y-10909343D02*
X14811914Y-11109343D01*
X14811914Y-10918867D02*
X14830962Y-10909343D01*
X14830962Y-10909343D02*
X14869057Y-10909343D01*
X14869057Y-10909343D02*
X14888105Y-10918867D01*
X14888105Y-10918867D02*
X14897628Y-10928390D01*
X14897628Y-10928390D02*
X14907152Y-10947438D01*
X14907152Y-10947438D02*
X14907152Y-11004581D01*
X14907152Y-11004581D02*
X14897628Y-11023629D01*
X14897628Y-11023629D02*
X14888105Y-11033152D01*
X14888105Y-11033152D02*
X14869057Y-11042676D01*
X14869057Y-11042676D02*
X14830962Y-11042676D01*
X14830962Y-11042676D02*
X14811914Y-11033152D01*
X14992867Y-11023629D02*
X15002390Y-11033152D01*
X15002390Y-11033152D02*
X14992867Y-11042676D01*
X14992867Y-11042676D02*
X14983343Y-11033152D01*
X14983343Y-11033152D02*
X14992867Y-11023629D01*
X14992867Y-11023629D02*
X14992867Y-11042676D01*
X14992867Y-10918867D02*
X15002390Y-10928390D01*
X15002390Y-10928390D02*
X14992867Y-10937914D01*
X14992867Y-10937914D02*
X14983343Y-10928390D01*
X14983343Y-10928390D02*
X14992867Y-10918867D01*
X14992867Y-10918867D02*
X14992867Y-10937914D01*
D10*
X13306200Y-11339200D02*
X13406200Y-11439200D01*
X13406200Y-11339200D02*
X13306200Y-11439200D01*
D11*
X13758581Y-11462676D02*
X13644295Y-11462676D01*
X13701438Y-11462676D02*
X13701438Y-11262676D01*
X13701438Y-11262676D02*
X13682390Y-11291248D01*
X13682390Y-11291248D02*
X13663343Y-11310295D01*
X13663343Y-11310295D02*
X13644295Y-11319819D01*
X13844295Y-11443628D02*
X13853819Y-11453152D01*
X13853819Y-11453152D02*
X13844295Y-11462676D01*
X13844295Y-11462676D02*
X13834771Y-11453152D01*
X13834771Y-11453152D02*
X13844295Y-11443628D01*
X13844295Y-11443628D02*
X13844295Y-11462676D01*
X13977628Y-11262676D02*
X13996676Y-11262676D01*
X13996676Y-11262676D02*
X14015724Y-11272200D01*
X14015724Y-11272200D02*
X14025248Y-11281724D01*
X14025248Y-11281724D02*
X14034771Y-11300771D01*
X14034771Y-11300771D02*
X14044295Y-11338867D01*
X14044295Y-11338867D02*
X14044295Y-11386486D01*
X14044295Y-11386486D02*
X14034771Y-11424581D01*
X14034771Y-11424581D02*
X14025248Y-11443628D01*
X14025248Y-11443628D02*
X14015724Y-11453152D01*
X14015724Y-11453152D02*
X13996676Y-11462676D01*
X13996676Y-11462676D02*
X13977628Y-11462676D01*
X13977628Y-11462676D02*
X13958581Y-11453152D01*
X13958581Y-11453152D02*
X13949057Y-11443628D01*
X13949057Y-11443628D02*
X13939533Y-11424581D01*
X13939533Y-11424581D02*
X13930009Y-11386486D01*
X13930009Y-11386486D02*
X13930009Y-11338867D01*
X13930009Y-11338867D02*
X13939533Y-11300771D01*
X13939533Y-11300771D02*
X13949057Y-11281724D01*
X13949057Y-11281724D02*
X13958581Y-11272200D01*
X13958581Y-11272200D02*
X13977628Y-11262676D01*
X14168105Y-11262676D02*
X14187152Y-11262676D01*
X14187152Y-11262676D02*
X14206200Y-11272200D01*
X14206200Y-11272200D02*
X14215724Y-11281724D01*
X14215724Y-11281724D02*
X14225248Y-11300771D01*
X14225248Y-11300771D02*
X14234771Y-11338867D01*
X14234771Y-11338867D02*
X14234771Y-11386486D01*
X14234771Y-11386486D02*
X14225248Y-11424581D01*
X14225248Y-11424581D02*
X14215724Y-11443628D01*
X14215724Y-11443628D02*
X14206200Y-11453152D01*
X14206200Y-11453152D02*
X14187152Y-11462676D01*
X14187152Y-11462676D02*
X14168105Y-11462676D01*
X14168105Y-11462676D02*
X14149057Y-11453152D01*
X14149057Y-11453152D02*
X14139533Y-11443628D01*
X14139533Y-11443628D02*
X14130009Y-11424581D01*
X14130009Y-11424581D02*
X14120486Y-11386486D01*
X14120486Y-11386486D02*
X14120486Y-11338867D01*
X14120486Y-11338867D02*
X14130009Y-11300771D01*
X14130009Y-11300771D02*
X14139533Y-11281724D01*
X14139533Y-11281724D02*
X14149057Y-11272200D01*
X14149057Y-11272200D02*
X14168105Y-11262676D01*
X14358581Y-11262676D02*
X14377629Y-11262676D01*
X14377629Y-11262676D02*
X14396676Y-11272200D01*
X14396676Y-11272200D02*
X14406200Y-11281724D01*
X14406200Y-11281724D02*
X14415724Y-11300771D01*
X14415724Y-11300771D02*
X14425248Y-11338867D01*
X14425248Y-11338867D02*
X14425248Y-11386486D01*
X14425248Y-11386486D02*
X14415724Y-11424581D01*
X14415724Y-11424581D02*
X14406200Y-11443628D01*
X14406200Y-11443628D02*
X14396676Y-11453152D01*
X14396676Y-11453152D02*
X14377629Y-11462676D01*
X14377629Y-11462676D02*
X14358581Y-11462676D01*
X14358581Y-11462676D02*
X14339533Y-11453152D01*
X14339533Y-11453152D02*
X14330009Y-11443628D01*
X14330009Y-11443628D02*
X14320486Y-11424581D01*
X14320486Y-11424581D02*
X14310962Y-11386486D01*
X14310962Y-11386486D02*
X14310962Y-11338867D01*
X14310962Y-11338867D02*
X14320486Y-11300771D01*
X14320486Y-11300771D02*
X14330009Y-11281724D01*
X14330009Y-11281724D02*
X14339533Y-11272200D01*
X14339533Y-11272200D02*
X14358581Y-11262676D01*
X14510962Y-11462676D02*
X14510962Y-11329343D01*
X14510962Y-11348390D02*
X14520486Y-11338867D01*
X14520486Y-11338867D02*
X14539533Y-11329343D01*
X14539533Y-11329343D02*
X14568105Y-11329343D01*
X14568105Y-11329343D02*
X14587152Y-11338867D01*
X14587152Y-11338867D02*
X14596676Y-11357914D01*
X14596676Y-11357914D02*
X14596676Y-11462676D01*
X14596676Y-11357914D02*
X14606200Y-11338867D01*
X14606200Y-11338867D02*
X14625248Y-11329343D01*
X14625248Y-11329343D02*
X14653819Y-11329343D01*
X14653819Y-11329343D02*
X14672867Y-11338867D01*
X14672867Y-11338867D02*
X14682390Y-11357914D01*
X14682390Y-11357914D02*
X14682390Y-11462676D01*
X14777629Y-11462676D02*
X14777629Y-11329343D01*
X14777629Y-11348390D02*
X14787152Y-11338867D01*
X14787152Y-11338867D02*
X14806200Y-11329343D01*
X14806200Y-11329343D02*
X14834771Y-11329343D01*
X14834771Y-11329343D02*
X14853819Y-11338867D01*
X14853819Y-11338867D02*
X14863343Y-11357914D01*
X14863343Y-11357914D02*
X14863343Y-11462676D01*
X14863343Y-11357914D02*
X14872867Y-11338867D01*
X14872867Y-11338867D02*
X14891914Y-11329343D01*
X14891914Y-11329343D02*
X14920486Y-11329343D01*
X14920486Y-11329343D02*
X14939533Y-11338867D01*
X14939533Y-11338867D02*
X14949057Y-11357914D01*
X14949057Y-11357914D02*
X14949057Y-11462676D01*
X15307152Y-11253152D02*
X15135724Y-11510295D01*
X15531914Y-11262676D02*
X15550962Y-11262676D01*
X15550962Y-11262676D02*
X15570010Y-11272200D01*
X15570010Y-11272200D02*
X15579533Y-11281724D01*
X15579533Y-11281724D02*
X15589057Y-11300771D01*
X15589057Y-11300771D02*
X15598581Y-11338867D01*
X15598581Y-11338867D02*
X15598581Y-11386486D01*
X15598581Y-11386486D02*
X15589057Y-11424581D01*
X15589057Y-11424581D02*
X15579533Y-11443628D01*
X15579533Y-11443628D02*
X15570010Y-11453152D01*
X15570010Y-11453152D02*
X15550962Y-11462676D01*
X15550962Y-11462676D02*
X15531914Y-11462676D01*
X15531914Y-11462676D02*
X15512867Y-11453152D01*
X15512867Y-11453152D02*
X15503343Y-11443628D01*
X15503343Y-11443628D02*
X15493819Y-11424581D01*
X15493819Y-11424581D02*
X15484295Y-11386486D01*
X15484295Y-11386486D02*
X15484295Y-11338867D01*
X15484295Y-11338867D02*
X15493819Y-11300771D01*
X15493819Y-11300771D02*
X15503343Y-11281724D01*
X15503343Y-11281724D02*
X15512867Y-11272200D01*
X15512867Y-11272200D02*
X15531914Y-11262676D01*
X15684295Y-11443628D02*
X15693819Y-11453152D01*
X15693819Y-11453152D02*
X15684295Y-11462676D01*
X15684295Y-11462676D02*
X15674771Y-11453152D01*
X15674771Y-11453152D02*
X15684295Y-11443628D01*
X15684295Y-11443628D02*
X15684295Y-11462676D01*
X15817629Y-11262676D02*
X15836676Y-11262676D01*
X15836676Y-11262676D02*
X15855724Y-11272200D01*
X15855724Y-11272200D02*
X15865248Y-11281724D01*
X15865248Y-11281724D02*
X15874771Y-11300771D01*
X15874771Y-11300771D02*
X15884295Y-11338867D01*
X15884295Y-11338867D02*
X15884295Y-11386486D01*
X15884295Y-11386486D02*
X15874771Y-11424581D01*
X15874771Y-11424581D02*
X15865248Y-11443628D01*
X15865248Y-11443628D02*
X15855724Y-11453152D01*
X15855724Y-11453152D02*
X15836676Y-11462676D01*
X15836676Y-11462676D02*
X15817629Y-11462676D01*
X15817629Y-11462676D02*
X15798581Y-11453152D01*
X15798581Y-11453152D02*
X15789057Y-11443628D01*
X15789057Y-11443628D02*
X15779533Y-11424581D01*
X15779533Y-11424581D02*
X15770010Y-11386486D01*
X15770010Y-11386486D02*
X15770010Y-11338867D01*
X15770010Y-11338867D02*
X15779533Y-11300771D01*
X15779533Y-11300771D02*
X15789057Y-11281724D01*
X15789057Y-11281724D02*
X15798581Y-11272200D01*
X15798581Y-11272200D02*
X15817629Y-11262676D01*
X15950962Y-11262676D02*
X16074771Y-11262676D01*
X16074771Y-11262676D02*
X16008105Y-11338867D01*
X16008105Y-11338867D02*
X16036676Y-11338867D01*
X16036676Y-11338867D02*
X16055724Y-11348390D01*
X16055724Y-11348390D02*
X16065248Y-11357914D01*
X16065248Y-11357914D02*
X16074771Y-11376962D01*
X16074771Y-11376962D02*
X16074771Y-11424581D01*
X16074771Y-11424581D02*
X16065248Y-11443628D01*
X16065248Y-11443628D02*
X16055724Y-11453152D01*
X16055724Y-11453152D02*
X16036676Y-11462676D01*
X16036676Y-11462676D02*
X15979533Y-11462676D01*
X15979533Y-11462676D02*
X15960486Y-11453152D01*
X15960486Y-11453152D02*
X15950962Y-11443628D01*
X16170010Y-11462676D02*
X16208105Y-11462676D01*
X16208105Y-11462676D02*
X16227152Y-11453152D01*
X16227152Y-11453152D02*
X16236676Y-11443628D01*
X16236676Y-11443628D02*
X16255724Y-11415057D01*
X16255724Y-11415057D02*
X16265248Y-11376962D01*
X16265248Y-11376962D02*
X16265248Y-11300771D01*
X16265248Y-11300771D02*
X16255724Y-11281724D01*
X16255724Y-11281724D02*
X16246200Y-11272200D01*
X16246200Y-11272200D02*
X16227152Y-11262676D01*
X16227152Y-11262676D02*
X16189057Y-11262676D01*
X16189057Y-11262676D02*
X16170010Y-11272200D01*
X16170010Y-11272200D02*
X16160486Y-11281724D01*
X16160486Y-11281724D02*
X16150962Y-11300771D01*
X16150962Y-11300771D02*
X16150962Y-11348390D01*
X16150962Y-11348390D02*
X16160486Y-11367438D01*
X16160486Y-11367438D02*
X16170010Y-11376962D01*
X16170010Y-11376962D02*
X16189057Y-11386486D01*
X16189057Y-11386486D02*
X16227152Y-11386486D01*
X16227152Y-11386486D02*
X16246200Y-11376962D01*
X16246200Y-11376962D02*
X16255724Y-11367438D01*
X16255724Y-11367438D02*
X16265248Y-11348390D01*
X16436676Y-11329343D02*
X16436676Y-11462676D01*
X16389057Y-11253152D02*
X16341438Y-11396009D01*
X16341438Y-11396009D02*
X16465248Y-11396009D01*
X16531914Y-11262676D02*
X16531914Y-11300771D01*
X16608105Y-11262676D02*
X16608105Y-11300771D01*
X16870962Y-11538867D02*
X16861438Y-11529343D01*
X16861438Y-11529343D02*
X16842391Y-11500771D01*
X16842391Y-11500771D02*
X16832867Y-11481724D01*
X16832867Y-11481724D02*
X16823343Y-11453152D01*
X16823343Y-11453152D02*
X16813819Y-11405533D01*
X16813819Y-11405533D02*
X16813819Y-11367438D01*
X16813819Y-11367438D02*
X16823343Y-11319819D01*
X16823343Y-11319819D02*
X16832867Y-11291248D01*
X16832867Y-11291248D02*
X16842391Y-11272200D01*
X16842391Y-11272200D02*
X16861438Y-11243628D01*
X16861438Y-11243628D02*
X16870962Y-11234105D01*
X17032867Y-11329343D02*
X17032867Y-11462676D01*
X16985248Y-11253152D02*
X16937629Y-11396009D01*
X16937629Y-11396009D02*
X17061438Y-11396009D01*
X17257629Y-11462676D02*
X17257629Y-11262676D01*
X17343343Y-11462676D02*
X17343343Y-11357914D01*
X17343343Y-11357914D02*
X17333819Y-11338867D01*
X17333819Y-11338867D02*
X17314772Y-11329343D01*
X17314772Y-11329343D02*
X17286200Y-11329343D01*
X17286200Y-11329343D02*
X17267153Y-11338867D01*
X17267153Y-11338867D02*
X17257629Y-11348390D01*
X17467153Y-11462676D02*
X17448105Y-11453152D01*
X17448105Y-11453152D02*
X17438581Y-11443628D01*
X17438581Y-11443628D02*
X17429057Y-11424581D01*
X17429057Y-11424581D02*
X17429057Y-11367438D01*
X17429057Y-11367438D02*
X17438581Y-11348390D01*
X17438581Y-11348390D02*
X17448105Y-11338867D01*
X17448105Y-11338867D02*
X17467153Y-11329343D01*
X17467153Y-11329343D02*
X17495724Y-11329343D01*
X17495724Y-11329343D02*
X17514772Y-11338867D01*
X17514772Y-11338867D02*
X17524295Y-11348390D01*
X17524295Y-11348390D02*
X17533819Y-11367438D01*
X17533819Y-11367438D02*
X17533819Y-11424581D01*
X17533819Y-11424581D02*
X17524295Y-11443628D01*
X17524295Y-11443628D02*
X17514772Y-11453152D01*
X17514772Y-11453152D02*
X17495724Y-11462676D01*
X17495724Y-11462676D02*
X17467153Y-11462676D01*
X17648105Y-11462676D02*
X17629057Y-11453152D01*
X17629057Y-11453152D02*
X17619534Y-11434105D01*
X17619534Y-11434105D02*
X17619534Y-11262676D01*
X17800486Y-11453152D02*
X17781438Y-11462676D01*
X17781438Y-11462676D02*
X17743343Y-11462676D01*
X17743343Y-11462676D02*
X17724295Y-11453152D01*
X17724295Y-11453152D02*
X17714772Y-11434105D01*
X17714772Y-11434105D02*
X17714772Y-11357914D01*
X17714772Y-11357914D02*
X17724295Y-11338867D01*
X17724295Y-11338867D02*
X17743343Y-11329343D01*
X17743343Y-11329343D02*
X17781438Y-11329343D01*
X17781438Y-11329343D02*
X17800486Y-11338867D01*
X17800486Y-11338867D02*
X17810010Y-11357914D01*
X17810010Y-11357914D02*
X17810010Y-11376962D01*
X17810010Y-11376962D02*
X17714772Y-11396009D01*
X17886200Y-11453152D02*
X17905248Y-11462676D01*
X17905248Y-11462676D02*
X17943343Y-11462676D01*
X17943343Y-11462676D02*
X17962391Y-11453152D01*
X17962391Y-11453152D02*
X17971915Y-11434105D01*
X17971915Y-11434105D02*
X17971915Y-11424581D01*
X17971915Y-11424581D02*
X17962391Y-11405533D01*
X17962391Y-11405533D02*
X17943343Y-11396009D01*
X17943343Y-11396009D02*
X17914772Y-11396009D01*
X17914772Y-11396009D02*
X17895724Y-11386486D01*
X17895724Y-11386486D02*
X17886200Y-11367438D01*
X17886200Y-11367438D02*
X17886200Y-11357914D01*
X17886200Y-11357914D02*
X17895724Y-11338867D01*
X17895724Y-11338867D02*
X17914772Y-11329343D01*
X17914772Y-11329343D02*
X17943343Y-11329343D01*
X17943343Y-11329343D02*
X17962391Y-11338867D01*
X18038581Y-11538867D02*
X18048105Y-11529343D01*
X18048105Y-11529343D02*
X18067153Y-11500771D01*
X18067153Y-11500771D02*
X18076676Y-11481724D01*
X18076676Y-11481724D02*
X18086200Y-11453152D01*
X18086200Y-11453152D02*
X18095724Y-11405533D01*
X18095724Y-11405533D02*
X18095724Y-11367438D01*
X18095724Y-11367438D02*
X18086200Y-11319819D01*
X18086200Y-11319819D02*
X18076676Y-11291248D01*
X18076676Y-11291248D02*
X18067153Y-11272200D01*
X18067153Y-11272200D02*
X18048105Y-11243628D01*
X18048105Y-11243628D02*
X18038581Y-11234105D01*
M02*
