%TF.GenerationSoftware,KiCad,Pcbnew,7.0.8*%
%TF.CreationDate,2024-03-06T14:03:55-05:00*%
%TF.ProjectId,NewLow,4e65774c-6f77-42e6-9b69-6361645f7063,rev?*%
%TF.SameCoordinates,Original*%
%TF.FileFunction,Legend,Top*%
%TF.FilePolarity,Positive*%
%FSLAX46Y46*%
G04 Gerber Fmt 4.6, Leading zero omitted, Abs format (unit mm)*
G04 Created by KiCad (PCBNEW 7.0.8) date 2024-03-06 14:03:55*
%MOMM*%
%LPD*%
G01*
G04 APERTURE LIST*
%ADD10C,0.150000*%
%ADD11C,0.127000*%
%ADD12C,0.300000*%
%ADD13C,0.120000*%
%ADD14C,0.152400*%
G04 APERTURE END LIST*
D10*
X85534666Y-69796819D02*
X85201333Y-69320628D01*
X84963238Y-69796819D02*
X84963238Y-68796819D01*
X84963238Y-68796819D02*
X85344190Y-68796819D01*
X85344190Y-68796819D02*
X85439428Y-68844438D01*
X85439428Y-68844438D02*
X85487047Y-68892057D01*
X85487047Y-68892057D02*
X85534666Y-68987295D01*
X85534666Y-68987295D02*
X85534666Y-69130152D01*
X85534666Y-69130152D02*
X85487047Y-69225390D01*
X85487047Y-69225390D02*
X85439428Y-69273009D01*
X85439428Y-69273009D02*
X85344190Y-69320628D01*
X85344190Y-69320628D02*
X84963238Y-69320628D01*
X85963238Y-69273009D02*
X86296571Y-69273009D01*
X86439428Y-69796819D02*
X85963238Y-69796819D01*
X85963238Y-69796819D02*
X85963238Y-68796819D01*
X85963238Y-68796819D02*
X86439428Y-68796819D01*
X87201333Y-69273009D02*
X86868000Y-69273009D01*
X86868000Y-69796819D02*
X86868000Y-68796819D01*
X86868000Y-68796819D02*
X87344190Y-68796819D01*
X87868000Y-68796819D02*
X87868000Y-69034914D01*
X87629905Y-68939676D02*
X87868000Y-69034914D01*
X87868000Y-69034914D02*
X88106095Y-68939676D01*
X87725143Y-69225390D02*
X87868000Y-69034914D01*
X87868000Y-69034914D02*
X88010857Y-69225390D01*
X88629905Y-68796819D02*
X88629905Y-69034914D01*
X88391810Y-68939676D02*
X88629905Y-69034914D01*
X88629905Y-69034914D02*
X88868000Y-68939676D01*
X88487048Y-69225390D02*
X88629905Y-69034914D01*
X88629905Y-69034914D02*
X88772762Y-69225390D01*
X80645000Y-59906819D02*
X80645000Y-60144914D01*
X80406905Y-60049676D02*
X80645000Y-60144914D01*
X80645000Y-60144914D02*
X80883095Y-60049676D01*
X80502143Y-60335390D02*
X80645000Y-60144914D01*
X80645000Y-60144914D02*
X80787857Y-60335390D01*
X80645000Y-59906819D02*
X80645000Y-60144914D01*
X80406905Y-60049676D02*
X80645000Y-60144914D01*
X80645000Y-60144914D02*
X80883095Y-60049676D01*
X80502143Y-60335390D02*
X80645000Y-60144914D01*
X80645000Y-60144914D02*
X80787857Y-60335390D01*
D11*
%TO.C,REF\u002A\u002A*%
X98669500Y-78330000D02*
X98669500Y-77230000D01*
X102469500Y-78330000D02*
X102469500Y-77230000D01*
X98669500Y-75630000D02*
X98669500Y-74530000D01*
X102469500Y-75630000D02*
X102469500Y-74530000D01*
D12*
X97401500Y-76503000D02*
G75*
G03*
X97401500Y-76503000I-100000J0D01*
G01*
D11*
X75066500Y-61602750D02*
X75066500Y-62702750D01*
X71266500Y-61602750D02*
X71266500Y-62702750D01*
X75066500Y-64302750D02*
X75066500Y-65402750D01*
X71266500Y-64302750D02*
X71266500Y-65402750D01*
D12*
X76534500Y-63429750D02*
G75*
G03*
X76534500Y-63429750I-100000J0D01*
G01*
D13*
X72838000Y-70552000D02*
X74168000Y-70552000D01*
X72838000Y-71882000D02*
X72838000Y-70552000D01*
X72838000Y-73152000D02*
X72838000Y-75752000D01*
X72838000Y-73152000D02*
X75498000Y-73152000D01*
X72838000Y-75752000D02*
X75498000Y-75752000D01*
X75498000Y-73152000D02*
X75498000Y-75752000D01*
D14*
X81153000Y-59817000D02*
X92583000Y-59817000D01*
X81153000Y-60678060D02*
X81153000Y-59817000D01*
X81153000Y-78005940D02*
X81153000Y-78867000D01*
X81153000Y-78867000D02*
X92583000Y-78867000D01*
X81280000Y-62765940D02*
X81280000Y-65758060D01*
X81280000Y-67845940D02*
X81280000Y-70838060D01*
X81280000Y-72925940D02*
X81280000Y-75918060D01*
X81534000Y-59944000D02*
X81280000Y-60198000D01*
X92456000Y-62765940D02*
X92456000Y-65758060D01*
X92456000Y-67845940D02*
X92456000Y-70838060D01*
X92456000Y-72925940D02*
X92456000Y-75918060D01*
X92583000Y-60678060D02*
X92583000Y-59817000D01*
X92583000Y-78005940D02*
X92583000Y-78867000D01*
D13*
X97730000Y-62170000D02*
X99060000Y-62170000D01*
X97730000Y-63500000D02*
X97730000Y-62170000D01*
X97730000Y-64770000D02*
X97730000Y-67370000D01*
X97730000Y-64770000D02*
X100390000Y-64770000D01*
X97730000Y-67370000D02*
X100390000Y-67370000D01*
X100390000Y-64770000D02*
X100390000Y-67370000D01*
%TD*%
M02*
