%TF.GenerationSoftware,KiCad,Pcbnew,7.0.8*%
%TF.CreationDate,2024-03-06T14:03:55-05:00*%
%TF.ProjectId,NewLow,4e65774c-6f77-42e6-9b69-6361645f7063,rev?*%
%TF.SameCoordinates,Original*%
%TF.FileFunction,Copper,L1,Top*%
%TF.FilePolarity,Positive*%
%FSLAX46Y46*%
G04 Gerber Fmt 4.6, Leading zero omitted, Abs format (unit mm)*
G04 Created by KiCad (PCBNEW 7.0.8) date 2024-03-06 14:03:55*
%MOMM*%
%LPD*%
G01*
G04 APERTURE LIST*
%ADD10C,0.300000*%
%TA.AperFunction,NonConductor*%
%ADD11C,0.300000*%
%TD*%
%TA.AperFunction,SMDPad,CuDef*%
%ADD12R,4.560000X0.850000*%
%TD*%
%TA.AperFunction,SMDPad,CuDef*%
%ADD13R,4.560000X1.000000*%
%TD*%
%TA.AperFunction,ComponentPad*%
%ADD14R,1.700000X1.700000*%
%TD*%
%TA.AperFunction,ComponentPad*%
%ADD15O,1.700000X1.700000*%
%TD*%
%TA.AperFunction,SMDPad,CuDef*%
%ADD16R,1.889000X1.422400*%
%TD*%
%TA.AperFunction,Conductor*%
%ADD17C,0.762000*%
%TD*%
G04 APERTURE END LIST*
D10*
D11*
X72111082Y-81771400D02*
X72325368Y-81842828D01*
X72325368Y-81842828D02*
X72682510Y-81842828D01*
X72682510Y-81842828D02*
X72825368Y-81771400D01*
X72825368Y-81771400D02*
X72896796Y-81699971D01*
X72896796Y-81699971D02*
X72968225Y-81557114D01*
X72968225Y-81557114D02*
X72968225Y-81414257D01*
X72968225Y-81414257D02*
X72896796Y-81271400D01*
X72896796Y-81271400D02*
X72825368Y-81199971D01*
X72825368Y-81199971D02*
X72682510Y-81128542D01*
X72682510Y-81128542D02*
X72396796Y-81057114D01*
X72396796Y-81057114D02*
X72253939Y-80985685D01*
X72253939Y-80985685D02*
X72182510Y-80914257D01*
X72182510Y-80914257D02*
X72111082Y-80771400D01*
X72111082Y-80771400D02*
X72111082Y-80628542D01*
X72111082Y-80628542D02*
X72182510Y-80485685D01*
X72182510Y-80485685D02*
X72253939Y-80414257D01*
X72253939Y-80414257D02*
X72396796Y-80342828D01*
X72396796Y-80342828D02*
X72753939Y-80342828D01*
X72753939Y-80342828D02*
X72968225Y-80414257D01*
X73611081Y-81842828D02*
X73611081Y-80342828D01*
X73611081Y-80342828D02*
X74182510Y-80342828D01*
X74182510Y-80342828D02*
X74325367Y-80414257D01*
X74325367Y-80414257D02*
X74396796Y-80485685D01*
X74396796Y-80485685D02*
X74468224Y-80628542D01*
X74468224Y-80628542D02*
X74468224Y-80842828D01*
X74468224Y-80842828D02*
X74396796Y-80985685D01*
X74396796Y-80985685D02*
X74325367Y-81057114D01*
X74325367Y-81057114D02*
X74182510Y-81128542D01*
X74182510Y-81128542D02*
X73611081Y-81128542D01*
X74968224Y-80342828D02*
X75968224Y-81842828D01*
X75968224Y-80342828D02*
X74968224Y-81842828D01*
X78396795Y-81842828D02*
X77682509Y-81842828D01*
X77682509Y-81842828D02*
X77682509Y-80342828D01*
X79111081Y-81842828D02*
X78968224Y-81771400D01*
X78968224Y-81771400D02*
X78896795Y-81699971D01*
X78896795Y-81699971D02*
X78825367Y-81557114D01*
X78825367Y-81557114D02*
X78825367Y-81128542D01*
X78825367Y-81128542D02*
X78896795Y-80985685D01*
X78896795Y-80985685D02*
X78968224Y-80914257D01*
X78968224Y-80914257D02*
X79111081Y-80842828D01*
X79111081Y-80842828D02*
X79325367Y-80842828D01*
X79325367Y-80842828D02*
X79468224Y-80914257D01*
X79468224Y-80914257D02*
X79539653Y-80985685D01*
X79539653Y-80985685D02*
X79611081Y-81128542D01*
X79611081Y-81128542D02*
X79611081Y-81557114D01*
X79611081Y-81557114D02*
X79539653Y-81699971D01*
X79539653Y-81699971D02*
X79468224Y-81771400D01*
X79468224Y-81771400D02*
X79325367Y-81842828D01*
X79325367Y-81842828D02*
X79111081Y-81842828D01*
X80111081Y-80842828D02*
X80396796Y-81842828D01*
X80396796Y-81842828D02*
X80682510Y-81128542D01*
X80682510Y-81128542D02*
X80968224Y-81842828D01*
X80968224Y-81842828D02*
X81253938Y-80842828D01*
X82968224Y-81842828D02*
X82968224Y-80342828D01*
X82968224Y-80342828D02*
X83539653Y-80342828D01*
X83539653Y-80342828D02*
X83682510Y-80414257D01*
X83682510Y-80414257D02*
X83753939Y-80485685D01*
X83753939Y-80485685D02*
X83825367Y-80628542D01*
X83825367Y-80628542D02*
X83825367Y-80842828D01*
X83825367Y-80842828D02*
X83753939Y-80985685D01*
X83753939Y-80985685D02*
X83682510Y-81057114D01*
X83682510Y-81057114D02*
X83539653Y-81128542D01*
X83539653Y-81128542D02*
X82968224Y-81128542D01*
X85111082Y-81842828D02*
X85111082Y-81057114D01*
X85111082Y-81057114D02*
X85039653Y-80914257D01*
X85039653Y-80914257D02*
X84896796Y-80842828D01*
X84896796Y-80842828D02*
X84611082Y-80842828D01*
X84611082Y-80842828D02*
X84468224Y-80914257D01*
X85111082Y-81771400D02*
X84968224Y-81842828D01*
X84968224Y-81842828D02*
X84611082Y-81842828D01*
X84611082Y-81842828D02*
X84468224Y-81771400D01*
X84468224Y-81771400D02*
X84396796Y-81628542D01*
X84396796Y-81628542D02*
X84396796Y-81485685D01*
X84396796Y-81485685D02*
X84468224Y-81342828D01*
X84468224Y-81342828D02*
X84611082Y-81271400D01*
X84611082Y-81271400D02*
X84968224Y-81271400D01*
X84968224Y-81271400D02*
X85111082Y-81199971D01*
X85753939Y-81771400D02*
X85896796Y-81842828D01*
X85896796Y-81842828D02*
X86182510Y-81842828D01*
X86182510Y-81842828D02*
X86325367Y-81771400D01*
X86325367Y-81771400D02*
X86396796Y-81628542D01*
X86396796Y-81628542D02*
X86396796Y-81557114D01*
X86396796Y-81557114D02*
X86325367Y-81414257D01*
X86325367Y-81414257D02*
X86182510Y-81342828D01*
X86182510Y-81342828D02*
X85968225Y-81342828D01*
X85968225Y-81342828D02*
X85825367Y-81271400D01*
X85825367Y-81271400D02*
X85753939Y-81128542D01*
X85753939Y-81128542D02*
X85753939Y-81057114D01*
X85753939Y-81057114D02*
X85825367Y-80914257D01*
X85825367Y-80914257D02*
X85968225Y-80842828D01*
X85968225Y-80842828D02*
X86182510Y-80842828D01*
X86182510Y-80842828D02*
X86325367Y-80914257D01*
X86968225Y-81771400D02*
X87111082Y-81842828D01*
X87111082Y-81842828D02*
X87396796Y-81842828D01*
X87396796Y-81842828D02*
X87539653Y-81771400D01*
X87539653Y-81771400D02*
X87611082Y-81628542D01*
X87611082Y-81628542D02*
X87611082Y-81557114D01*
X87611082Y-81557114D02*
X87539653Y-81414257D01*
X87539653Y-81414257D02*
X87396796Y-81342828D01*
X87396796Y-81342828D02*
X87182511Y-81342828D01*
X87182511Y-81342828D02*
X87039653Y-81271400D01*
X87039653Y-81271400D02*
X86968225Y-81128542D01*
X86968225Y-81128542D02*
X86968225Y-81057114D01*
X86968225Y-81057114D02*
X87039653Y-80914257D01*
X87039653Y-80914257D02*
X87182511Y-80842828D01*
X87182511Y-80842828D02*
X87396796Y-80842828D01*
X87396796Y-80842828D02*
X87539653Y-80914257D01*
D12*
%TO.P,REF\u002A\u002A,1*%
%TO.N,N/C*%
X100189500Y-76430000D03*
D13*
%TO.P,REF\u002A\u002A,SH1*%
X100189500Y-79200000D03*
%TO.P,REF\u002A\u002A,SH2*%
X100189500Y-73660000D03*
%TD*%
D12*
%TO.P,REF\u002A\u002A,1*%
%TO.N,N/C*%
X73546500Y-63502750D03*
D13*
%TO.P,REF\u002A\u002A,SH1*%
X73546500Y-60732750D03*
%TO.P,REF\u002A\u002A,SH2*%
X73546500Y-66272750D03*
%TD*%
D14*
%TO.P,REF\u002A\u002A,1*%
%TO.N,N/C*%
X74168000Y-71882000D03*
D15*
%TO.P,REF\u002A\u002A,2*%
X74168000Y-74422000D03*
%TD*%
D16*
%TO.P,REF\u002A\u002A,1*%
%TO.N,N/C*%
X82267300Y-61722000D03*
%TO.P,REF\u002A\u002A,2*%
X91468700Y-61722000D03*
%TO.P,REF\u002A\u002A,3*%
X82267300Y-66802000D03*
%TO.P,REF\u002A\u002A,4*%
X91468700Y-66802000D03*
%TO.P,REF\u002A\u002A,5*%
X82267300Y-71882000D03*
%TO.P,REF\u002A\u002A,6*%
X91468700Y-71882000D03*
%TO.P,REF\u002A\u002A,7*%
X82267300Y-76962000D03*
%TO.P,REF\u002A\u002A,8*%
X91468700Y-76962000D03*
%TD*%
D14*
%TO.P,REF\u002A\u002A,1*%
%TO.N,N/C*%
X99060000Y-63500000D03*
D15*
%TO.P,REF\u002A\u002A,2*%
X99060000Y-66040000D03*
%TD*%
D17*
%TO.N,*%
X79502000Y-66802000D02*
X82267300Y-66802000D01*
X73546500Y-66272750D02*
X78972750Y-66272750D01*
X78972750Y-66272750D02*
X79502000Y-66802000D01*
X78613000Y-58547000D02*
X89027000Y-58547000D01*
X76681250Y-60732750D02*
X76681250Y-60478750D01*
X76681250Y-60478750D02*
X78613000Y-58547000D01*
X89027000Y-58547000D02*
X91468700Y-60988700D01*
X91468700Y-60988700D02*
X91468700Y-61722000D01*
X73546500Y-60732750D02*
X76681250Y-60732750D01*
X84505300Y-79200000D02*
X82267300Y-76962000D01*
X100189500Y-79200000D02*
X84505300Y-79200000D01*
X93246700Y-73660000D02*
X91468700Y-71882000D01*
X100189500Y-73660000D02*
X93246700Y-73660000D01*
X99060000Y-66040000D02*
X99060000Y-63500000D01*
X74168000Y-71882000D02*
X74168000Y-74422000D01*
X82267300Y-71882000D02*
X74168000Y-71882000D01*
X98298000Y-66802000D02*
X99060000Y-66040000D01*
X91468700Y-66802000D02*
X98298000Y-66802000D01*
X82267300Y-76962000D02*
X82267300Y-71882000D01*
X82267300Y-66802000D02*
X82267300Y-71882000D01*
X91468700Y-71882000D02*
X91468700Y-66802000D01*
X91468700Y-61722000D02*
X91468700Y-66802000D01*
X99657500Y-76962000D02*
X100189500Y-76430000D01*
X91468700Y-76962000D02*
X99657500Y-76962000D01*
X77975250Y-63502750D02*
X73546500Y-63502750D01*
X79756000Y-61722000D02*
X77975250Y-63502750D01*
X81267300Y-61722000D02*
X79756000Y-61722000D01*
%TD*%
M02*
